<svg width="16" height="16" viewBox="0 0 16 16" fill="none" xmlns="http://www.w3.org/2000/svg">
<path fill-rule="evenodd" clip-rule="evenodd" d="M13.7082 2.3097C13.2407 1.84076 12.4192 1.95068 11.9491 2.42187L9.55673 4.8086L5.11941 3.15042C4.69436 3.0405 4.26632 2.89832 3.73923 3.42691C3.47024 3.69627 2.91126 4.25675 3.73923 5.08622L6.78172 7.57723L4.80204 9.5528L2.95478 9.09098C2.68092 9.02045 2.49635 9.0756 2.35567 9.23092C2.28476 9.31945 1.77042 9.70061 2.12907 10.06L4.27682 11.7309L5.94776 13.8787C6.20736 14.139 6.44858 13.9766 6.77834 13.6634C6.9873 13.454 6.94229 13.3463 6.87926 13.0413L6.46209 11.2069L8.42827 9.23392L10.9155 12.2772C11.7431 13.1066 12.3025 12.5458 12.5715 12.2772C13.0989 11.7482 12.9571 11.3198 12.8472 10.894L11.2029 6.44915L13.5855 4.05829C14.0556 3.58747 14.176 2.77827 13.7082 2.3097Z" fill="#242424"/>
</svg>
