<svg width="16" height="16" viewBox="0 0 16 16" fill="none" xmlns="http://www.w3.org/2000/svg">
<g clip-path="url(#clip0_864_47)">
<path d="M12.1007 8.03042C12.1007 10.2095 10.3289 11.9809 8.15073 11.9809C5.97186 11.9809 4.1999 10.2088 4.1999 8.03042C4.1999 5.85188 5.97219 4.07997 8.15073 4.07997C10.3286 4.07992 12.1007 5.85215 12.1007 8.03042ZM8.15073 2.57627C8.36862 2.57627 8.54566 2.39913 8.54566 2.18118V0.534682C8.54566 0.316133 8.36901 0.139587 8.15073 0.139587C7.93218 0.139587 7.75531 0.316406 7.75531 0.534682V2.18118C7.75531 2.39913 7.93185 2.57627 8.15073 2.57627ZM12.0824 4.58434C12.1835 4.58434 12.2846 4.54589 12.3615 4.46872L13.777 3.05357C13.9313 2.89868 13.9313 2.6483 13.777 2.49429C13.6227 2.34055 13.373 2.34055 13.2187 2.49429L11.8032 3.9101C11.6489 4.06477 11.6489 4.31466 11.8032 4.46872C11.8804 4.54595 11.9812 4.58434 12.0824 4.58434ZM3.30908 4.46878C3.38641 4.54562 3.48776 4.5844 3.58822 4.5844C3.68957 4.5844 3.79069 4.54595 3.86803 4.46878C4.02237 4.31444 4.02237 4.06482 3.86803 3.91015L2.45195 2.49435C2.29761 2.34061 2.04799 2.34061 1.89365 2.49435C1.73931 2.64869 1.73931 2.89879 1.89365 3.05363L3.30908 4.46878ZM7.83532 13.424C7.6171 13.424 7.44056 13.6013 7.44056 13.8191V15.4654C7.44056 15.6835 7.61738 15.8605 7.83532 15.8605C8.05327 15.8605 8.23085 15.6838 8.23085 15.4654V13.819C8.23085 13.6013 8.05354 13.424 7.83532 13.424ZM3.62388 11.5316L2.20846 12.9471C2.05412 13.1014 2.05412 13.3517 2.20846 13.5054C2.28579 13.5826 2.38714 13.6213 2.48826 13.6213C2.58955 13.6213 2.69007 13.5829 2.76741 13.5054L4.18289 12.0899C4.33723 11.9356 4.33723 11.6853 4.18289 11.5316C4.02849 11.3776 3.77822 11.3776 3.62388 11.5316ZM12.6768 11.5316C12.5224 11.3776 12.2725 11.3776 12.1181 11.5316C11.9638 11.686 11.9638 11.9356 12.1181 12.0899L13.5336 13.5054C13.6107 13.5826 13.7119 13.6213 13.8134 13.6213C13.9145 13.6213 14.0151 13.5829 14.0922 13.5054C14.2466 13.351 14.2466 13.1014 14.0922 12.9471L12.6768 11.5316ZM2.56833 8.03042C2.56833 7.81187 2.39064 7.63533 2.17274 7.63533H0.394766C0.176545 7.63533 0 7.81187 0 8.03042C0 8.24881 0.176819 8.42552 0.394766 8.42552H2.1728C2.39102 8.42546 2.56833 8.24881 2.56833 8.03042ZM15.6049 7.63533H13.4978C13.2797 7.63533 13.103 7.81187 13.103 8.03042C13.103 8.24881 13.2797 8.42552 13.4978 8.42552H15.6049C15.823 8.42552 16 8.24886 16 8.03042C16 7.81182 15.823 7.63533 15.6049 7.63533Z" fill="#242424"/>
</g>
<defs>
<clipPath id="clip0_864_47">
<rect width="16" height="16" fill="white"/>
</clipPath>
</defs>
</svg>
