<svg xmlns="http://www.w3.org/2000/svg">
    <symbol id="icon-logo" width="146" height="22" viewBox="0 0 146 22" fill="none" xmlns="http://www.w3.org/2000/svg">
        <g clip-path="url(#clip0_6489_289)">
            <path d="M16.8031 20.2727H13.0691L10.922 12.3636C10.6419 11.4546 10.5486 10.2727 10.5486 10.2727H10.4552C10.4552 10.2727 10.2685 11.4546 9.98849 12.3636L7.84143 20.2727H4.10742L0 6.36365H3.64067L5.60102 14.9091C5.88107 15.9091 5.97442 17.1818 5.97442 17.1818H6.06778C6.06778 17.1818 6.25448 15.9091 6.53453 14.9091L8.86829 6.36365H12.1356L14.4693 14.9091C14.7494 15.9091 14.9361 17.1818 14.9361 17.1818C14.9361 17.1818 15.0294 15.9091 15.3095 14.9091L17.3632 6.36365H21.0038L16.8031 20.2727Z" fill="black"/>
            <path d="M33.5127 20.2727V11.1818C33.5127 9.63636 32.5792 8.90909 30.8989 8.90909C30.1521 8.90909 29.4053 9.09091 28.8452 9.45455V20.3636H25.2979V0H28.8452V6.72727C29.6853 6.36364 30.8055 6.09091 31.8324 6.09091C35.193 6.09091 37.06 7.72727 37.06 10.8182V20.2727H33.5127Z" fill="black"/>
            <path d="M42.4744 20.2727H46.0217V6.36365H42.4744V20.2727Z" fill="black"/>
            <path d="M56.3837 20.4545C53.6765 20.4545 52.3696 19 52.3696 16.0909V8.99998H50.5959V6.36361H52.3696V3.2727L55.9169 2.27271V6.36361H58.6241V8.99998H55.9169V15.9091C55.9169 17 56.6637 17.4545 57.5972 17.4545C57.9706 17.4545 58.344 17.3636 58.6241 17.2727V20.1818C58.1573 20.2727 57.2238 20.4545 56.3837 20.4545Z" fill="black"/>
            <path d="M68.986 8.63636C67.119 8.63636 65.8121 10 65.7188 12.5455L71.6932 11.7273C71.6932 9.63636 70.573 8.63636 68.986 8.63636ZM75.0538 13.5455L65.9055 14.7273C66.1855 16.7273 67.7725 17.8182 69.8262 17.8182C71.2264 17.8182 72.8134 17.4545 73.7469 16.9091L74.7738 19.5455C73.5602 20.1818 71.5998 20.5455 69.5461 20.5455C64.8786 20.5455 62.3582 17.5455 62.3582 13.2727C62.3582 9 64.7853 6 68.986 6C72.9067 6 75.0538 8.54545 75.0538 12.3636C75.1472 12.7273 75.1472 13.1818 75.0538 13.5455Z" fill="black"/>
            <path d="M96.0576 20.2728V11C96.0576 9.6364 95.1241 8.81821 93.7238 8.81821C92.7903 8.81821 92.1369 9.09094 91.5768 9.54549V20.2728H87.9361V10.8182C87.9361 9.54549 87.0026 8.81821 85.4156 8.81821C84.5755 8.81821 83.922 8.90912 83.4553 9.18185V20.2728H79.908V7.09094C81.4016 6.54549 83.2686 6.09094 85.2289 6.09094C87.5627 6.09094 88.9629 6.81822 89.8031 7.54549C90.7366 6.90912 92.4169 6.09094 94.564 6.09094C97.7379 6.09094 99.6049 7.90912 99.6049 10.7273V20.3637H96.0576V20.2728Z" fill="black"/>
            <path d="M112.58 13.5455C109.967 13.6364 107.633 13.9091 107.633 16C107.633 17.2728 108.66 18.0909 110.527 18.0909C111.274 18.0909 112.207 18 112.58 17.8182V13.5455ZM110.62 20.6364C106.326 20.6364 104.179 19 104.179 16.1819C104.179 12.3637 108.193 11.6364 112.487 11.3637V10.6364C112.487 9.18185 111.46 8.6364 109.78 8.6364C108.473 8.6364 106.793 9.09094 105.766 9.45458L104.832 7.09094C106.046 6.6364 108.006 6.09094 110.06 6.09094C113.701 6.09094 115.754 7.45458 115.754 11.0909V19.6364C114.914 20.0909 112.767 20.6364 110.62 20.6364Z" fill="black"/>
            <path d="M128.263 9.09094C127.797 9.00003 127.237 8.90912 126.676 8.90912C126.023 8.90912 125.37 9.00003 124.903 9.18185V22L121.355 21.2728V7.09094C122.849 6.54549 124.903 6.09094 127.143 6.09094C127.89 6.09094 128.543 6.18185 129.01 6.18185L128.263 9.09094Z" fill="black"/>
            <path d="M141.986 20.2727L136.852 13.2727H136.758V20.2727H133.211V0H136.758V12.4545H136.852L141.519 6.36364H145.72L140.586 12.9091L146 20.2727H141.986Z" fill="black"/>
        </g>
        <defs>
            <clipPath id="clip0_6489_289">
                <rect width="146" height="22" fill="white"/>
            </clipPath>
        </defs>
    </symbol>
    <symbol id="icon-arrow-right" viewBox="0 0 36 36" fill="none" xmlns="http://www.w3.org/2000/svg">
        <g clip-path="url(#clip0_6313_277)">
            <path d="M1.67881 16.3212L29.3587 16.3213L21.3012 8.26391L23.7826 5.78257L36.0759 18.0759L23.7826 30.3692L21.3012 27.8879L29.3586 19.8305L1.67881 19.8306V16.3212Z" fill="black"/>
        </g>
        <defs>
            <clipPath id="clip0_6313_277">
                <rect width="36" height="36" fill="white"/>
            </clipPath>
        </defs>
    </symbol>
    <symbol id="icon-plus" viewBox="0 0 32 32" fill="none" xmlns="http://www.w3.org/2000/svg">
        <g clip-path="url(#clip0_6313_302)">
            <path fill-rule="evenodd" clip-rule="evenodd" d="M14.4 32V0H17.6V32H14.4Z" fill="black"/>
            <path fill-rule="evenodd" clip-rule="evenodd" d="M32 17.6H0V14.4H32V17.6Z" fill="black"/>
        </g>
        <defs>
            <clipPath id="clip0_6313_302">
                <rect width="32" height="32" fill="white"/>
            </clipPath>
        </defs>
    </symbol>
    <symbol id="icon-arrow-top" viewBox="0 0 24 24" fill="none" xmlns="http://www.w3.org/2000/svg">
        <g clip-path="url(#clip0_6313_334)">
            <path fill-rule="evenodd" clip-rule="evenodd" d="M4.17679 16.8968L10.4335 10.64L11.737 9.36554L13.1584 10.6401L19.4151 16.8968L21.3419 14.97L11.7959 5.42403L2.25 14.97L4.17679 16.8968Z" fill="white"/>
        </g>
        <defs>
            <clipPath id="clip0_6313_334">
                <rect width="24" height="24" fill="white" transform="matrix(0 -1 1 0 0 24)"/>
            </clipPath>
        </defs>
    </symbol>
    <symbol id="icon-dots" viewBox="0 0 24 24" fill="none" xmlns="http://www.w3.org/2000/svg">
        <path d="M4.6 2.8C4.6 3.79411 3.79411 4.6 2.8 4.6C1.80589 4.6 1 3.79411 1 2.8C1 1.80589 1.80589 1 2.8 1C3.79411 1 4.6 1.80589 4.6 2.8Z" fill="black"/>
        <path d="M4.6 11.8C4.6 12.7941 3.79411 13.6 2.8 13.6C1.80589 13.6 1 12.7941 1 11.8C1 10.8059 1.80589 10 2.8 10C3.79411 10 4.6 10.8059 4.6 11.8Z" fill="black"/>
        <path d="M4.6 20.8C4.6 21.7941 3.79411 22.6 2.8 22.6C1.80589 22.6 1 21.7941 1 20.8C1 19.8059 1.80589 19 2.8 19C3.79411 19 4.6 19.8059 4.6 20.8Z" fill="black"/>
        <path d="M13.6 2.8C13.6 3.79411 12.7941 4.6 11.8 4.6C10.8059 4.6 10 3.79411 10 2.8C10 1.80589 10.8059 1 11.8 1C12.7941 1 13.6 1.80589 13.6 2.8Z" fill="black"/>
        <path d="M13.6 11.8C13.6 12.7941 12.7941 13.6 11.8 13.6C10.8059 13.6 10 12.7941 10 11.8C10 10.8059 10.8059 10 11.8 10C12.7941 10 13.6 10.8059 13.6 11.8Z" fill="black"/>
        <path d="M13.6 20.8C13.6 21.7941 12.7941 22.6 11.8 22.6C10.8059 22.6 10 21.7941 10 20.8C10 19.8059 10.8059 19 11.8 19C12.7941 19 13.6 19.8059 13.6 20.8Z" fill="black"/>
        <path d="M22.6 2.8C22.6 3.79411 21.7941 4.6 20.8 4.6C19.8059 4.6 19 3.79411 19 2.8C19 1.80589 19.8059 1 20.8 1C21.7941 1 22.6 1.80589 22.6 2.8Z" fill="black"/>
        <path d="M22.6 11.8C22.6 12.7941 21.7941 13.6 20.8 13.6C19.8059 13.6 19 12.7941 19 11.8C19 10.8059 19.8059 10 20.8 10C21.7941 10 22.6 10.8059 22.6 11.8Z" fill="black"/>
        <path d="M22.6 20.8C22.6 21.7941 21.7941 22.6 20.8 22.6C19.8059 22.6 19 21.7941 19 20.8C19 19.8059 19.8059 19 20.8 19C21.7941 19 22.6 19.8059 22.6 20.8Z" fill="black"/>
    </symbol>
    <symbol id="icon-arrow-left" viewBox="0 0 20 20" fill="none" xmlns="http://www.w3.org/2000/svg">
        <g clip-path="url(#clip0_6313_351)">
            <path d="M19.0673 10.9327L3.68962 10.9326L8.16598 15.4089L6.78746 16.7875L-0.0421656 9.95783L6.78746 3.12821L8.16598 4.50673L3.68964 8.98307L19.0673 8.98299L19.0673 10.9327Z" fill="black"/>
        </g>
        <defs>
            <clipPath id="clip0_6313_351">
                <rect width="20" height="20" fill="white" transform="matrix(-1 0 0 -1 20 20)"/>
            </clipPath>
        </defs>
    </symbol>
    <symbol id="icon-etalon" viewBox="0 0 231 40" fill="none" xmlns="http://www.w3.org/2000/svg">
        <g clip-path="url(#clip0_6412_199)">
        <mask id="mask0_6412_199" style="mask-type:luminance" maskUnits="userSpaceOnUse" x="0" y="0" width="231" height="40">
        <path d="M231 0H0V40H231V0Z" fill="white"/>
        </mask>
        <g mask="url(#mask0_6412_199)">
        <path d="M80.4289 0L65.1351 39.9538H73.2827L76.2869 32.1107H87.029L89.9876 24.3598H79.2454L84.6619 10.2422L96.0409 39.9538H104.189L88.8952 0H80.4289ZM65.1351 0.046136H37.5517V7.75087H47.5656V40H55.1668V7.75087H65.1351V0.046136ZM14.0648 0.046136C8.55724 0.046136 3.59585 2.3068 0.0455172 5.99769L5.41655 11.4417C7.60139 9.18109 10.651 7.75087 14.0648 7.75087C20.7103 7.75087 26.127 13.2411 26.127 19.9769C26.127 26.7129 20.7103 32.2031 14.0648 32.2031C10.6966 32.2031 7.60139 30.7729 5.41655 28.512L0 34.0022C3.55034 37.6931 8.55724 39.9538 14.0193 39.9538C24.898 39.9538 33.7282 31.0036 33.7282 20.0231C33.7282 9.04269 24.898 0.046136 14.0648 0.046136ZM25.0344 16.1476H9.10347L9.19451 23.8984H22.0758L25.0344 16.1476ZM203.963 0H196.271V39.9538H203.963V23.8984H220.213L223.17 16.1476H203.963V0ZM223.308 0V39.9538H231V0H223.308ZM168.96 0C158.082 0 149.296 8.9504 149.296 19.9308C149.296 30.9111 158.127 39.8616 168.96 39.8616C179.793 39.8616 188.623 30.9111 188.623 19.9308C188.669 8.90427 179.839 0 168.96 0ZM168.96 32.1569C162.315 32.1569 156.898 26.6667 156.898 19.9308C156.898 13.1949 162.315 7.70473 168.96 7.70473C175.605 7.70473 181.022 13.1949 181.022 19.9308C181.022 26.6667 175.605 32.1569 168.96 32.1569ZM123.261 0L107.967 39.9538H116.069L127.448 10.2422L138.827 39.9538H146.976L131.682 0H123.261Z" fill="#555555"/>
        </g>
        </g>
        <defs>
        <clipPath id="clip0_6412_199">
        <rect width="231" height="40" fill="white"/>
        </clipPath>
        </defs>        
    </symbol>
    <symbol id="icon-forma" viewBox="0 0 240 67" fill="none" xmlns="http://www.w3.org/2000/svg">
        <path d="M37.7358 15.8798H60.8086V7.83105H27.8167V58.2986H37.5202V36.7629H56.0647V28.9317H37.5202V15.8798H37.7358Z" fill="#555555"/>
        <path d="M77.1968 21.7532C66.4151 21.7532 59.9461 28.9317 59.9461 40.461C59.9461 51.9902 66.8464 59.1688 77.1968 59.1688C87.5472 59.1688 94.6631 51.7727 94.6631 40.461C94.6631 28.9317 87.7628 21.7532 77.1968 21.7532ZM77.1968 51.7727C72.0216 51.7727 69.2183 47.8571 69.2183 40.2434C69.2183 32.6298 72.0216 28.7142 77.1968 28.7142C82.5876 28.7142 85.3908 32.6298 85.3908 40.2434C85.3908 47.8571 82.372 51.7727 77.1968 51.7727Z" fill="#555555"/>
        <path d="M118.167 21.7532C113.423 21.7532 109.757 24.3636 107.601 29.1493V22.6233H98.9757V58.5162H108.032V43.5064C108.032 39.8084 108.248 35.8928 111.051 33.2824C112.776 31.5421 114.933 30.8895 117.951 30.8895C118.167 30.8895 118.383 30.8895 118.383 30.8895C118.383 30.8895 118.814 30.8895 119.03 30.8895H119.461V21.7532H119.03C118.814 21.7532 118.598 21.7532 118.167 21.7532Z" fill="#555555"/>
        <path d="M163.45 21.7532C158.706 21.7532 155.256 23.9285 152.668 28.2791C150.728 23.9285 147.493 21.7532 142.749 21.7532C138.437 21.7532 135.202 23.4934 133.046 27.409V22.6233H124.205V58.5162H133.261V37.8506C133.261 32.6298 135.633 29.3668 139.515 29.3668C143.827 29.3668 144.69 33.0649 144.69 36.3279V58.5162H153.747V37.8506C153.747 32.6298 155.903 29.5843 160 29.5843C163.666 29.5843 165.175 31.9772 165.175 36.7629V58.7337H174.232V35.0227C174.447 26.5389 170.35 21.7532 163.45 21.7532Z" fill="#555555"/>
        <path d="M211.752 57.646C211.105 55.2532 210.674 51.5551 210.674 46.9869V36.5454C210.674 26.3214 205.93 21.7532 195.364 21.7532C186.307 21.7532 180.27 26.5389 179.623 34.1525V34.5876H189.111V34.1525C189.542 30.4545 191.482 28.4967 195.364 28.4967C199.677 28.4967 201.402 30.672 201.402 35.4577V35.8928L194.501 36.7629C188.895 37.633 185.66 38.5032 183.073 40.0259C180.054 41.7662 178.76 44.8116 178.76 48.2921C178.76 54.6006 183.72 59.1688 191.051 59.1688C196.011 59.1688 200.108 56.9934 202.264 53.5129C202.48 55.0356 202.695 56.5584 202.695 57.8636V58.2986H211.968L211.752 57.646ZM193.639 52.2077C190.189 52.2077 188.032 50.4675 188.032 47.8571C188.032 45.2467 189.973 43.5064 194.286 42.8538L201.617 41.7662V43.5064C201.833 48.7272 198.598 52.2077 193.639 52.2077Z" fill="#555555"/>
    </symbol>
    <symbol id="icon-sminex" viewBox="0 0 210 49" fill="none" xmlns="http://www.w3.org/2000/svg">
        <g clip-path="url(#clip0_6412_251)">
        <path d="M8.73646 9.28972C8.73646 5.16822 11.6267 2.42056 16.6845 2.42056C19.6404 2.42056 22.3336 3.00935 25.0924 4.31776C27.063 5.23364 28.2454 3.92523 28.9022 2.35514C25.0924 0.785047 21.1512 0 17.0787 0C8.73646 0 0.0658303 2.74766 0.000143768 12.4953C-0.0655428 25.7103 22.3993 27.3458 22.9248 38.3364C23.1875 43.5701 19.4434 46.514 14.2541 46.514C10.6414 46.514 7.42273 45.729 4.20408 44.028C2.36486 43.1122 1.11682 44.1589 0.45995 45.729C4.00703 47.8224 9.9845 48.9346 13.9914 48.9346C23.9101 48.9346 32.1866 44.9439 31.9238 35.0654C31.5297 21.3925 8.73646 19.8224 8.73646 9.28972ZM163.363 49C167.895 49 173.084 47.4299 175.712 45.0093C176.697 44.0935 176.172 42.9159 175.712 42.5234C172.887 44.7477 169.931 45.8598 166.121 45.8598C162.509 45.8598 159.881 44.6168 158.37 42.1308C156.794 39.6449 156.006 35.7196 155.874 30.2243H176.96C177.025 30.2243 177.091 30.1589 177.157 30.0935C177.354 29.243 177.42 28.2617 177.42 27.215C177.42 25.2523 177.091 23.4206 176.5 21.8505C175.909 20.215 175.121 18.7757 174.004 17.5327C172.887 16.2897 171.442 15.3084 169.603 14.5888C167.764 13.8692 165.662 13.5421 163.231 13.5421C158.173 13.5421 154.232 15.1776 151.342 18.514C148.452 21.8505 147.072 26.2336 147.138 31.729C147.204 36.1121 148.255 40.4953 151.079 43.9626C153.969 47.6262 158.765 49 163.363 49ZM163.297 15.3738C169.274 15.3738 169.472 22.9626 169.472 27.5421L155.809 28.5888C155.94 23.6822 156.86 15.3738 163.297 15.3738ZM196.272 28.5888L208.161 14.1963H204.088C203.694 14.1963 203.366 14.2617 203.103 14.6542L195.155 26.9533L193.119 24.0093C187.273 15.5701 187.798 14.1963 184.448 14.1963H177.617L190.228 32.4486L177.157 48.2804H181.295C181.755 48.2804 182.149 48.1495 182.346 47.757L191.411 34.0841L194.564 38.5327C200.213 46.514 199.425 48.3458 203.694 48.2804H210.132C210 48.2804 196.272 28.5888 196.272 28.5888ZM86.5751 44.3551V24.4019C86.5751 17.5327 83.9476 13.4766 77.3789 13.4766C71.7956 13.4766 68.0514 16.3551 65.0299 19.5607C63.9132 15.7009 61.3514 13.4766 56.2935 13.4766C51.5641 13.4766 47.6886 15.7009 44.6013 19.1028V19.0374C44.6013 16.4206 44.1415 14.1963 41.5797 14.1963H36.1934L36.5219 18.1215V44.3551L36.1934 48.2804H44.9954L44.667 44.3551V20.9346C47.0974 18.8411 50.0533 17.9907 52.418 17.9907C57.0161 17.9907 57.5416 22.7664 57.5416 26.4299V44.3551L57.2132 48.2804H65.9495L65.621 44.3551V20.9346C67.723 19.1028 70.6789 17.9907 73.4377 17.9907C78.2329 17.9907 78.5613 23.2243 78.5613 26.4299V43.7009C78.5613 46.972 79.4809 48.3458 81.5829 48.3458H86.9692L86.5751 44.3551ZM133.607 43.7009C133.607 46.5794 134.264 48.2804 136.628 48.2804H142.015L141.686 44.4206V24.4019C141.686 17.5981 139.124 13.4766 132.49 13.4766C127.826 13.4766 123.36 15.7009 120.207 19.0374C120.207 16.4206 119.747 14.1963 117.185 14.1963H111.799L112.127 18.1215V44.3551L111.799 48.2804H120.535L120.207 44.3551V20.9346C122.703 19.0374 125.067 17.9907 128.417 17.9907C132.687 17.9907 133.541 21.9813 133.541 26.4299L133.607 43.7009Z" fill="black"/>
        <path d="M98.924 8.76636C101.355 8.76636 103.325 6.80394 103.325 4.38318C103.325 1.96242 101.355 0 98.924 0C96.4934 0 94.523 1.96242 94.523 4.38318C94.523 6.80394 96.4934 8.76636 98.924 8.76636Z" fill="black"/>
        <path d="M94.8514 48.2804H103.588L103.259 44.3552V18.8412C103.259 16.2243 102.799 14.2617 100.238 14.2617H94.8514L95.1798 18.1215V44.3552L94.8514 48.2804Z" fill="black"/>
        </g>
        <defs>
        <clipPath id="clip0_6412_251">
        <rect width="210" height="49" fill="white"/>
        </clipPath>
        </defs>
    </symbol>
    <symbol id="icon-veren" viewBox="0 0 184 65" fill="none" xmlns="http://www.w3.org/2000/svg">
    <g clip-path="url(#clip0_6412_222)">
        <path d="M12.567 0H0L2.47315 6.23473L15.0466 6.24119L12.567 0Z" fill="#555555"/>
        <path d="M72.8899 0V6.09274H55.0325V14.6962H69.3846V20.7373H55.0325V31.1608H73.5325V37.2535H47.9376V0H72.8899Z" fill="#555555"/>
        <path d="M143.43 0V6.09274H125.573V14.6962H139.918V20.7373H125.573V31.1608H144.073V37.2535H118.471V0H143.43Z" fill="#555555"/>
        <path d="M184 37.2535H175.347L158.048 9.19075V37.2535H151.109V0H160.411L176.964 26.8816V0H184V37.2535Z" fill="#555555"/>
        <path d="M36.3573 0L24.4654 29.5537L15.0467 6.24119L11.113 15.7417L19.8631 37.2535H21.3626H27.5617H29.0612L44.2182 0H36.3573Z" fill="#555555"/>
        <path d="M111.402 37.2535L104.586 21.4472C107.183 20.0079 110.675 16.9293 110.675 10.8495C110.675 4.86645 108.144 0 100.244 0H80.7313V37.2535H87.8262V23.0156H97.563L103.36 37.2535H111.402ZM87.8262 5.98302H98.5756C101.211 5.98302 102.931 7.85473 102.931 11.7918C102.931 15.4255 101.159 17.2391 98.4198 17.2391H87.8262V5.98302Z" fill="#555555"/>
        <path d="M26.8801 60.2819H24.5563V58.5974H28.9443V64.5417C27.7044 64.8477 26.431 64.9995 25.1534 64.9935C21.7715 64.9935 20.1552 63.7026 20.1552 59.3848C20.1552 55.0669 21.9728 53.9246 25.4456 53.9246C26.5285 53.9351 27.6066 54.0694 28.6587 54.3247L28.2433 56.0673C27.3763 55.8576 26.4872 55.7514 25.5949 55.7511C23.1801 55.7511 22.3103 56.1448 22.3103 59.3977C22.3103 62.6506 23.1801 63.1734 25.504 63.1734C25.967 63.171 26.4283 63.1191 26.8801 63.0185V60.2819Z" fill="#555555"/>
        <path d="M100.653 59.3784C100.653 63.7608 98.9716 64.9871 95.5962 64.9871C92.2207 64.9871 90.5135 63.7608 90.5135 59.3784C90.5135 54.9961 92.2142 53.9182 95.5962 53.9182C98.9781 53.9182 100.653 55.0735 100.653 59.3784ZM98.5172 59.3784C98.5172 56.1514 97.933 55.6996 95.5962 55.6996C93.2593 55.6996 92.6751 56.1707 92.6751 59.3784C92.6751 62.5862 93.2528 63.1477 95.5962 63.1477C97.9395 63.1477 98.5172 62.5733 98.5172 59.3784Z" fill="#555555"/>
        <path d="M135.751 61.5728C135.751 64.3611 134.057 65 131.272 65C128.487 65 126.793 64.3546 126.793 61.5728V54.2151H128.825V61.3147C128.825 62.7281 129.474 63.1993 131.272 63.1993C133.07 63.1993 133.732 62.8056 133.732 61.3147V54.2151H135.738L135.751 61.5728Z" fill="#555555"/>
        <path d="M163.3 64.787V54.2151H168.85C171.096 54.2151 171.816 55.7835 171.816 57.8488C171.816 59.6753 170.946 61.3211 168.895 61.3211H165.318V64.8193L163.3 64.787ZM168.285 59.6237C169.122 59.6237 169.583 59.017 169.583 57.8165C169.583 56.616 169.142 55.8803 168.317 55.8803H165.305V59.6043L168.285 59.6237Z" fill="#555555"/>
        <path d="M65.1004 64.787L63.153 60.2691C63.7 59.9851 64.1552 59.5535 64.4664 59.0237C64.7776 58.4939 64.9321 57.8876 64.9121 57.2744C64.9121 55.5705 64.1721 54.2151 61.9197 54.2151H56.3697V64.8193H58.4209V60.7338H61.1862L62.8349 64.787H65.1004ZM58.4209 55.8867H61.4783C62.2313 55.8867 62.7181 56.4224 62.7181 57.5325C62.7181 58.6427 62.2118 59.0815 61.4199 59.0815H58.4209V55.8867Z" fill="#555555"/>
        <path d="M26.8801 60.2819H24.5563V58.5974H28.9443V64.5417C27.7044 64.8477 26.431 64.9995 25.1534 64.9935C21.7715 64.9935 20.1552 63.7026 20.1552 59.3848C20.1552 55.0669 21.9728 53.9246 25.4456 53.9246C26.5285 53.9351 27.6066 54.0694 28.6587 54.3247L28.2433 56.0673C27.3763 55.8576 26.4872 55.7514 25.5949 55.7511C23.1801 55.7511 22.3103 56.1448 22.3103 59.3977C22.3103 62.6506 23.1801 63.1734 25.504 63.1734C25.967 63.171 26.4283 63.1191 26.8801 63.0185V60.2819Z" fill="#555555"/>
        <path d="M100.653 59.3784C100.653 63.7608 98.9716 64.9871 95.5962 64.9871C92.2207 64.9871 90.5135 63.7608 90.5135 59.3784C90.5135 54.9961 92.2142 53.9182 95.5962 53.9182C98.9781 53.9182 100.653 55.0735 100.653 59.3784ZM98.5172 59.3784C98.5172 56.1514 97.933 55.6996 95.5962 55.6996C93.2593 55.6996 92.6751 56.1707 92.6751 59.3784C92.6751 62.5862 93.2528 63.1477 95.5962 63.1477C97.9395 63.1477 98.5172 62.5733 98.5172 59.3784Z" fill="#555555"/>
        <path d="M135.751 61.5728C135.751 64.3611 134.057 65 131.272 65C128.487 65 126.793 64.3546 126.793 61.5728V54.2151H128.825V61.3147C128.825 62.7281 129.474 63.1993 131.272 63.1993C133.07 63.1993 133.732 62.8056 133.732 61.3147V54.2151H135.738L135.751 61.5728Z" fill="#555555"/>
        <path d="M163.3 64.787V54.2151H168.85C171.096 54.2151 171.816 55.7835 171.816 57.8488C171.816 59.6753 170.946 61.3211 168.895 61.3211H165.318V64.8193L163.3 64.787ZM168.285 59.6237C169.122 59.6237 169.583 59.017 169.583 57.8165C169.583 56.616 169.142 55.8803 168.317 55.8803H165.305V59.6043L168.285 59.6237Z" fill="#555555"/>
        <path d="M65.1004 64.787L63.153 60.2691C63.7 59.9851 64.1552 59.5535 64.4664 59.0237C64.7776 58.4939 64.9321 57.8876 64.9121 57.2744C64.9121 55.5705 64.1721 54.2151 61.9197 54.2151H56.3697V64.8193H58.4209V60.7338H61.1862L62.8349 64.787H65.1004ZM58.4209 55.8867H61.4783C62.2313 55.8867 62.7181 56.4224 62.7181 57.5325C62.7181 58.6427 62.2118 59.0815 61.4199 59.0815H58.4209V55.8867Z" fill="#555555"/>
        </g>
        <defs>
        <clipPath id="clip0_6412_222">
        <rect width="184" height="65" fill="white"/>
        </clipPath>
        </defs>
    </symbol>


</svg>
