<svg width="3" height="8" viewBox="0 0 3 8" fill="none" xmlns="http://www.w3.org/2000/svg">
<path d="M1.32857 1.60988C1.07143 1.60988 0.86786 1.54074 0.71786 1.40247C0.56786 1.2642 0.492857 1.08642 0.492857 0.869136C0.492857 0.61893 0.57857 0.411523 0.75 0.246914C0.92143 0.0823046 1.15 0 1.43571 0C1.72143 0 1.93929 0.072428 2.08929 0.217284C2.23929 0.355556 2.31429 0.530042 2.31429 0.740741C2.31429 1.00412 2.22857 1.21482 2.05714 1.37284C1.88571 1.53086 1.64643 1.60988 1.33929 1.60988H1.32857ZM0.76071 3.44691L0 3.25926V2.59753L1.96071 2.38025H1.98214L2.28214 2.57778V7.32839L3 7.40741V8H0.010714V7.40741L0.76071 7.31852V3.44691Z" fill="#259DD6"/>
</svg>
