<svg width="231" height="40" viewBox="0 0 231 40" fill="none" xmlns="http://www.w3.org/2000/svg">
<g clip-path="url(#clip0_6412_199)">
<mask id="mask0_6412_199" style="mask-type:luminance" maskUnits="userSpaceOnUse" x="0" y="0" width="231" height="40">
<path d="M231 0H0V40H231V0Z" fill="white"/>
</mask>
<g mask="url(#mask0_6412_199)">
<path d="M80.4289 0L65.1351 39.9538H73.2827L76.2869 32.1107H87.029L89.9876 24.3598H79.2454L84.6619 10.2422L96.0409 39.9538H104.189L88.8952 0H80.4289ZM65.1351 0.046136H37.5517V7.75087H47.5656V40H55.1668V7.75087H65.1351V0.046136ZM14.0648 0.046136C8.55724 0.046136 3.59585 2.3068 0.0455172 5.99769L5.41655 11.4417C7.60139 9.18109 10.651 7.75087 14.0648 7.75087C20.7103 7.75087 26.127 13.2411 26.127 19.9769C26.127 26.7129 20.7103 32.2031 14.0648 32.2031C10.6966 32.2031 7.60139 30.7729 5.41655 28.512L0 34.0022C3.55034 37.6931 8.55724 39.9538 14.0193 39.9538C24.898 39.9538 33.7282 31.0036 33.7282 20.0231C33.7282 9.04269 24.898 0.046136 14.0648 0.046136ZM25.0344 16.1476H9.10347L9.19451 23.8984H22.0758L25.0344 16.1476ZM203.963 0H196.271V39.9538H203.963V23.8984H220.213L223.17 16.1476H203.963V0ZM223.308 0V39.9538H231V0H223.308ZM168.96 0C158.082 0 149.296 8.9504 149.296 19.9308C149.296 30.9111 158.127 39.8616 168.96 39.8616C179.793 39.8616 188.623 30.9111 188.623 19.9308C188.669 8.90427 179.839 0 168.96 0ZM168.96 32.1569C162.315 32.1569 156.898 26.6667 156.898 19.9308C156.898 13.1949 162.315 7.70473 168.96 7.70473C175.605 7.70473 181.022 13.1949 181.022 19.9308C181.022 26.6667 175.605 32.1569 168.96 32.1569ZM123.261 0L107.967 39.9538H116.069L127.448 10.2422L138.827 39.9538H146.976L131.682 0H123.261Z" fill="#555555"/>
</g>
</g>
<defs>
<clipPath id="clip0_6412_199">
<rect width="231" height="40" fill="white"/>
</clipPath>
</defs>
</svg>
