<svg width="240" height="67" viewBox="0 0 240 67" fill="none" xmlns="http://www.w3.org/2000/svg">
<path d="M37.7358 15.8798H60.8086V7.83105H27.8167V58.2986H37.5202V36.7629H56.0647V28.9317H37.5202V15.8798H37.7358Z" fill="#555555"/>
<path d="M77.1968 21.7532C66.4151 21.7532 59.9461 28.9317 59.9461 40.461C59.9461 51.9902 66.8464 59.1688 77.1968 59.1688C87.5472 59.1688 94.6631 51.7727 94.6631 40.461C94.6631 28.9317 87.7628 21.7532 77.1968 21.7532ZM77.1968 51.7727C72.0216 51.7727 69.2183 47.8571 69.2183 40.2434C69.2183 32.6298 72.0216 28.7142 77.1968 28.7142C82.5876 28.7142 85.3908 32.6298 85.3908 40.2434C85.3908 47.8571 82.372 51.7727 77.1968 51.7727Z" fill="#555555"/>
<path d="M118.167 21.7532C113.423 21.7532 109.757 24.3636 107.601 29.1493V22.6233H98.9757V58.5162H108.032V43.5064C108.032 39.8084 108.248 35.8928 111.051 33.2824C112.776 31.5421 114.933 30.8895 117.951 30.8895C118.167 30.8895 118.383 30.8895 118.383 30.8895C118.383 30.8895 118.814 30.8895 119.03 30.8895H119.461V21.7532H119.03C118.814 21.7532 118.598 21.7532 118.167 21.7532Z" fill="#555555"/>
<path d="M163.45 21.7532C158.706 21.7532 155.256 23.9285 152.668 28.2791C150.728 23.9285 147.493 21.7532 142.749 21.7532C138.437 21.7532 135.202 23.4934 133.046 27.409V22.6233H124.205V58.5162H133.261V37.8506C133.261 32.6298 135.633 29.3668 139.515 29.3668C143.827 29.3668 144.69 33.0649 144.69 36.3279V58.5162H153.747V37.8506C153.747 32.6298 155.903 29.5843 160 29.5843C163.666 29.5843 165.175 31.9772 165.175 36.7629V58.7337H174.232V35.0227C174.447 26.5389 170.35 21.7532 163.45 21.7532Z" fill="#555555"/>
<path d="M211.752 57.646C211.105 55.2532 210.674 51.5551 210.674 46.9869V36.5454C210.674 26.3214 205.93 21.7532 195.364 21.7532C186.307 21.7532 180.27 26.5389 179.623 34.1525V34.5876H189.111V34.1525C189.542 30.4545 191.482 28.4967 195.364 28.4967C199.677 28.4967 201.402 30.672 201.402 35.4577V35.8928L194.501 36.7629C188.895 37.633 185.66 38.5032 183.073 40.0259C180.054 41.7662 178.76 44.8116 178.76 48.2921C178.76 54.6006 183.72 59.1688 191.051 59.1688C196.011 59.1688 200.108 56.9934 202.264 53.5129C202.48 55.0356 202.695 56.5584 202.695 57.8636V58.2986H211.968L211.752 57.646ZM193.639 52.2077C190.189 52.2077 188.032 50.4675 188.032 47.8571C188.032 45.2467 189.973 43.5064 194.286 42.8538L201.617 41.7662V43.5064C201.833 48.7272 198.598 52.2077 193.639 52.2077Z" fill="#555555"/>
</svg>
