<svg width="146" height="22" viewBox="0 0 146 22" fill="none" xmlns="http://www.w3.org/2000/svg">
<g clip-path="url(#clip0_6489_289)">
<path d="M16.8031 20.2727H13.0691L10.922 12.3636C10.6419 11.4546 10.5486 10.2727 10.5486 10.2727H10.4552C10.4552 10.2727 10.2685 11.4546 9.98849 12.3636L7.84143 20.2727H4.10742L0 6.36365H3.64067L5.60102 14.9091C5.88107 15.9091 5.97442 17.1818 5.97442 17.1818H6.06778C6.06778 17.1818 6.25448 15.9091 6.53453 14.9091L8.86829 6.36365H12.1356L14.4693 14.9091C14.7494 15.9091 14.9361 17.1818 14.9361 17.1818C14.9361 17.1818 15.0294 15.9091 15.3095 14.9091L17.3632 6.36365H21.0038L16.8031 20.2727Z" fill="black"/>
<path d="M33.5127 20.2727V11.1818C33.5127 9.63636 32.5792 8.90909 30.8989 8.90909C30.1521 8.90909 29.4053 9.09091 28.8452 9.45455V20.3636H25.2979V0H28.8452V6.72727C29.6853 6.36364 30.8055 6.09091 31.8324 6.09091C35.193 6.09091 37.06 7.72727 37.06 10.8182V20.2727H33.5127Z" fill="black"/>
<path d="M42.4744 20.2727H46.0217V6.36365H42.4744V20.2727Z" fill="black"/>
<path d="M56.3837 20.4545C53.6765 20.4545 52.3696 19 52.3696 16.0909V8.99998H50.5959V6.36361H52.3696V3.2727L55.9169 2.27271V6.36361H58.6241V8.99998H55.9169V15.9091C55.9169 17 56.6637 17.4545 57.5972 17.4545C57.9706 17.4545 58.344 17.3636 58.6241 17.2727V20.1818C58.1573 20.2727 57.2238 20.4545 56.3837 20.4545Z" fill="black"/>
<path d="M68.986 8.63636C67.119 8.63636 65.8121 10 65.7188 12.5455L71.6932 11.7273C71.6932 9.63636 70.573 8.63636 68.986 8.63636ZM75.0538 13.5455L65.9055 14.7273C66.1855 16.7273 67.7725 17.8182 69.8262 17.8182C71.2264 17.8182 72.8134 17.4545 73.7469 16.9091L74.7738 19.5455C73.5602 20.1818 71.5998 20.5455 69.5461 20.5455C64.8786 20.5455 62.3582 17.5455 62.3582 13.2727C62.3582 9 64.7853 6 68.986 6C72.9067 6 75.0538 8.54545 75.0538 12.3636C75.1472 12.7273 75.1472 13.1818 75.0538 13.5455Z" fill="black"/>
<path d="M96.0576 20.2728V11C96.0576 9.6364 95.1241 8.81821 93.7238 8.81821C92.7903 8.81821 92.1369 9.09094 91.5768 9.54549V20.2728H87.9361V10.8182C87.9361 9.54549 87.0026 8.81821 85.4156 8.81821C84.5755 8.81821 83.922 8.90912 83.4553 9.18185V20.2728H79.908V7.09094C81.4016 6.54549 83.2686 6.09094 85.2289 6.09094C87.5627 6.09094 88.9629 6.81822 89.8031 7.54549C90.7366 6.90912 92.4169 6.09094 94.564 6.09094C97.7379 6.09094 99.6049 7.90912 99.6049 10.7273V20.3637H96.0576V20.2728Z" fill="black"/>
<path d="M112.58 13.5455C109.967 13.6364 107.633 13.9091 107.633 16C107.633 17.2728 108.66 18.0909 110.527 18.0909C111.274 18.0909 112.207 18 112.58 17.8182V13.5455ZM110.62 20.6364C106.326 20.6364 104.179 19 104.179 16.1819C104.179 12.3637 108.193 11.6364 112.487 11.3637V10.6364C112.487 9.18185 111.46 8.6364 109.78 8.6364C108.473 8.6364 106.793 9.09094 105.766 9.45458L104.832 7.09094C106.046 6.6364 108.006 6.09094 110.06 6.09094C113.701 6.09094 115.754 7.45458 115.754 11.0909V19.6364C114.914 20.0909 112.767 20.6364 110.62 20.6364Z" fill="black"/>
<path d="M128.263 9.09094C127.797 9.00003 127.237 8.90912 126.676 8.90912C126.023 8.90912 125.37 9.00003 124.903 9.18185V22L121.355 21.2728V7.09094C122.849 6.54549 124.903 6.09094 127.143 6.09094C127.89 6.09094 128.543 6.18185 129.01 6.18185L128.263 9.09094Z" fill="black"/>
<path d="M141.986 20.2727L136.852 13.2727H136.758V20.2727H133.211V0H136.758V12.4545H136.852L141.519 6.36364H145.72L140.586 12.9091L146 20.2727H141.986Z" fill="black"/>
</g>
<defs>
<clipPath id="clip0_6489_289">
<rect width="146" height="22" fill="white"/>
</clipPath>
</defs>
</svg>
