<svg width="210" height="49" viewBox="0 0 210 49" fill="none" xmlns="http://www.w3.org/2000/svg">
<g clip-path="url(#clip0_6412_251)">
<path d="M8.73646 9.28972C8.73646 5.16822 11.6267 2.42056 16.6845 2.42056C19.6404 2.42056 22.3336 3.00935 25.0924 4.31776C27.063 5.23364 28.2454 3.92523 28.9022 2.35514C25.0924 0.785047 21.1512 0 17.0787 0C8.73646 0 0.0658303 2.74766 0.000143768 12.4953C-0.0655428 25.7103 22.3993 27.3458 22.9248 38.3364C23.1875 43.5701 19.4434 46.514 14.2541 46.514C10.6414 46.514 7.42273 45.729 4.20408 44.028C2.36486 43.1122 1.11682 44.1589 0.45995 45.729C4.00703 47.8224 9.9845 48.9346 13.9914 48.9346C23.9101 48.9346 32.1866 44.9439 31.9238 35.0654C31.5297 21.3925 8.73646 19.8224 8.73646 9.28972ZM163.363 49C167.895 49 173.084 47.4299 175.712 45.0093C176.697 44.0935 176.172 42.9159 175.712 42.5234C172.887 44.7477 169.931 45.8598 166.121 45.8598C162.509 45.8598 159.881 44.6168 158.37 42.1308C156.794 39.6449 156.006 35.7196 155.874 30.2243H176.96C177.025 30.2243 177.091 30.1589 177.157 30.0935C177.354 29.243 177.42 28.2617 177.42 27.215C177.42 25.2523 177.091 23.4206 176.5 21.8505C175.909 20.215 175.121 18.7757 174.004 17.5327C172.887 16.2897 171.442 15.3084 169.603 14.5888C167.764 13.8692 165.662 13.5421 163.231 13.5421C158.173 13.5421 154.232 15.1776 151.342 18.514C148.452 21.8505 147.072 26.2336 147.138 31.729C147.204 36.1121 148.255 40.4953 151.079 43.9626C153.969 47.6262 158.765 49 163.363 49ZM163.297 15.3738C169.274 15.3738 169.472 22.9626 169.472 27.5421L155.809 28.5888C155.94 23.6822 156.86 15.3738 163.297 15.3738ZM196.272 28.5888L208.161 14.1963H204.088C203.694 14.1963 203.366 14.2617 203.103 14.6542L195.155 26.9533L193.119 24.0093C187.273 15.5701 187.798 14.1963 184.448 14.1963H177.617L190.228 32.4486L177.157 48.2804H181.295C181.755 48.2804 182.149 48.1495 182.346 47.757L191.411 34.0841L194.564 38.5327C200.213 46.514 199.425 48.3458 203.694 48.2804H210.132C210 48.2804 196.272 28.5888 196.272 28.5888ZM86.5751 44.3551V24.4019C86.5751 17.5327 83.9476 13.4766 77.3789 13.4766C71.7956 13.4766 68.0514 16.3551 65.0299 19.5607C63.9132 15.7009 61.3514 13.4766 56.2935 13.4766C51.5641 13.4766 47.6886 15.7009 44.6013 19.1028V19.0374C44.6013 16.4206 44.1415 14.1963 41.5797 14.1963H36.1934L36.5219 18.1215V44.3551L36.1934 48.2804H44.9954L44.667 44.3551V20.9346C47.0974 18.8411 50.0533 17.9907 52.418 17.9907C57.0161 17.9907 57.5416 22.7664 57.5416 26.4299V44.3551L57.2132 48.2804H65.9495L65.621 44.3551V20.9346C67.723 19.1028 70.6789 17.9907 73.4377 17.9907C78.2329 17.9907 78.5613 23.2243 78.5613 26.4299V43.7009C78.5613 46.972 79.4809 48.3458 81.5829 48.3458H86.9692L86.5751 44.3551ZM133.607 43.7009C133.607 46.5794 134.264 48.2804 136.628 48.2804H142.015L141.686 44.4206V24.4019C141.686 17.5981 139.124 13.4766 132.49 13.4766C127.826 13.4766 123.36 15.7009 120.207 19.0374C120.207 16.4206 119.747 14.1963 117.185 14.1963H111.799L112.127 18.1215V44.3551L111.799 48.2804H120.535L120.207 44.3551V20.9346C122.703 19.0374 125.067 17.9907 128.417 17.9907C132.687 17.9907 133.541 21.9813 133.541 26.4299L133.607 43.7009Z" fill="black"/>
<path d="M98.924 8.76636C101.355 8.76636 103.325 6.80394 103.325 4.38318C103.325 1.96242 101.355 0 98.924 0C96.4934 0 94.523 1.96242 94.523 4.38318C94.523 6.80394 96.4934 8.76636 98.924 8.76636Z" fill="black"/>
<path d="M94.8514 48.2804H103.588L103.259 44.3552V18.8412C103.259 16.2243 102.799 14.2617 100.238 14.2617H94.8514L95.1798 18.1215V44.3552L94.8514 48.2804Z" fill="black"/>
</g>
<defs>
<clipPath id="clip0_6412_251">
<rect width="210" height="49" fill="white"/>
</clipPath>
</defs>
</svg>
