<svg width="184" height="65" viewBox="0 0 184 65" fill="none" xmlns="http://www.w3.org/2000/svg">
<g clip-path="url(#clip0_6412_222)">
<path d="M12.567 0H0L2.47315 6.23473L15.0466 6.24119L12.567 0Z" fill="#555555"/>
<path d="M72.8899 0V6.09274H55.0325V14.6962H69.3846V20.7373H55.0325V31.1608H73.5325V37.2535H47.9376V0H72.8899Z" fill="#555555"/>
<path d="M143.43 0V6.09274H125.573V14.6962H139.918V20.7373H125.573V31.1608H144.073V37.2535H118.471V0H143.43Z" fill="#555555"/>
<path d="M184 37.2535H175.347L158.048 9.19075V37.2535H151.109V0H160.411L176.964 26.8816V0H184V37.2535Z" fill="#555555"/>
<path d="M36.3573 0L24.4654 29.5537L15.0467 6.24119L11.113 15.7417L19.8631 37.2535H21.3626H27.5617H29.0612L44.2182 0H36.3573Z" fill="#555555"/>
<path d="M111.402 37.2535L104.586 21.4472C107.183 20.0079 110.675 16.9293 110.675 10.8495C110.675 4.86645 108.144 0 100.244 0H80.7313V37.2535H87.8262V23.0156H97.563L103.36 37.2535H111.402ZM87.8262 5.98302H98.5756C101.211 5.98302 102.931 7.85473 102.931 11.7918C102.931 15.4255 101.159 17.2391 98.4198 17.2391H87.8262V5.98302Z" fill="#555555"/>
<path d="M26.8801 60.2819H24.5563V58.5974H28.9443V64.5417C27.7044 64.8477 26.431 64.9995 25.1534 64.9935C21.7715 64.9935 20.1552 63.7026 20.1552 59.3848C20.1552 55.0669 21.9728 53.9246 25.4456 53.9246C26.5285 53.9351 27.6066 54.0694 28.6587 54.3247L28.2433 56.0673C27.3763 55.8576 26.4872 55.7514 25.5949 55.7511C23.1801 55.7511 22.3103 56.1448 22.3103 59.3977C22.3103 62.6506 23.1801 63.1734 25.504 63.1734C25.967 63.171 26.4283 63.1191 26.8801 63.0185V60.2819Z" fill="#555555"/>
<path d="M100.653 59.3784C100.653 63.7608 98.9716 64.9871 95.5962 64.9871C92.2207 64.9871 90.5135 63.7608 90.5135 59.3784C90.5135 54.9961 92.2142 53.9182 95.5962 53.9182C98.9781 53.9182 100.653 55.0735 100.653 59.3784ZM98.5172 59.3784C98.5172 56.1514 97.933 55.6996 95.5962 55.6996C93.2593 55.6996 92.6751 56.1707 92.6751 59.3784C92.6751 62.5862 93.2528 63.1477 95.5962 63.1477C97.9395 63.1477 98.5172 62.5733 98.5172 59.3784Z" fill="#555555"/>
<path d="M135.751 61.5728C135.751 64.3611 134.057 65 131.272 65C128.487 65 126.793 64.3546 126.793 61.5728V54.2151H128.825V61.3147C128.825 62.7281 129.474 63.1993 131.272 63.1993C133.07 63.1993 133.732 62.8056 133.732 61.3147V54.2151H135.738L135.751 61.5728Z" fill="#555555"/>
<path d="M163.3 64.787V54.2151H168.85C171.096 54.2151 171.816 55.7835 171.816 57.8488C171.816 59.6753 170.946 61.3211 168.895 61.3211H165.318V64.8193L163.3 64.787ZM168.285 59.6237C169.122 59.6237 169.583 59.017 169.583 57.8165C169.583 56.616 169.142 55.8803 168.317 55.8803H165.305V59.6043L168.285 59.6237Z" fill="#555555"/>
<path d="M65.1004 64.787L63.153 60.2691C63.7 59.9851 64.1552 59.5535 64.4664 59.0237C64.7776 58.4939 64.9321 57.8876 64.9121 57.2744C64.9121 55.5705 64.1721 54.2151 61.9197 54.2151H56.3697V64.8193H58.4209V60.7338H61.1862L62.8349 64.787H65.1004ZM58.4209 55.8867H61.4783C62.2313 55.8867 62.7181 56.4224 62.7181 57.5325C62.7181 58.6427 62.2118 59.0815 61.4199 59.0815H58.4209V55.8867Z" fill="#555555"/>
<path d="M26.8801 60.2819H24.5563V58.5974H28.9443V64.5417C27.7044 64.8477 26.431 64.9995 25.1534 64.9935C21.7715 64.9935 20.1552 63.7026 20.1552 59.3848C20.1552 55.0669 21.9728 53.9246 25.4456 53.9246C26.5285 53.9351 27.6066 54.0694 28.6587 54.3247L28.2433 56.0673C27.3763 55.8576 26.4872 55.7514 25.5949 55.7511C23.1801 55.7511 22.3103 56.1448 22.3103 59.3977C22.3103 62.6506 23.1801 63.1734 25.504 63.1734C25.967 63.171 26.4283 63.1191 26.8801 63.0185V60.2819Z" fill="#555555"/>
<path d="M100.653 59.3784C100.653 63.7608 98.9716 64.9871 95.5962 64.9871C92.2207 64.9871 90.5135 63.7608 90.5135 59.3784C90.5135 54.9961 92.2142 53.9182 95.5962 53.9182C98.9781 53.9182 100.653 55.0735 100.653 59.3784ZM98.5172 59.3784C98.5172 56.1514 97.933 55.6996 95.5962 55.6996C93.2593 55.6996 92.6751 56.1707 92.6751 59.3784C92.6751 62.5862 93.2528 63.1477 95.5962 63.1477C97.9395 63.1477 98.5172 62.5733 98.5172 59.3784Z" fill="#555555"/>
<path d="M135.751 61.5728C135.751 64.3611 134.057 65 131.272 65C128.487 65 126.793 64.3546 126.793 61.5728V54.2151H128.825V61.3147C128.825 62.7281 129.474 63.1993 131.272 63.1993C133.07 63.1993 133.732 62.8056 133.732 61.3147V54.2151H135.738L135.751 61.5728Z" fill="#555555"/>
<path d="M163.3 64.787V54.2151H168.85C171.096 54.2151 171.816 55.7835 171.816 57.8488C171.816 59.6753 170.946 61.3211 168.895 61.3211H165.318V64.8193L163.3 64.787ZM168.285 59.6237C169.122 59.6237 169.583 59.017 169.583 57.8165C169.583 56.616 169.142 55.8803 168.317 55.8803H165.305V59.6043L168.285 59.6237Z" fill="#555555"/>
<path d="M65.1004 64.787L63.153 60.2691C63.7 59.9851 64.1552 59.5535 64.4664 59.0237C64.7776 58.4939 64.9321 57.8876 64.9121 57.2744C64.9121 55.5705 64.1721 54.2151 61.9197 54.2151H56.3697V64.8193H58.4209V60.7338H61.1862L62.8349 64.787H65.1004ZM58.4209 55.8867H61.4783C62.2313 55.8867 62.7181 56.4224 62.7181 57.5325C62.7181 58.6427 62.2118 59.0815 61.4199 59.0815H58.4209V55.8867Z" fill="#555555"/>
</g>
<defs>
<clipPath id="clip0_6412_222">
<rect width="184" height="65" fill="white"/>
</clipPath>
</defs>
</svg>
