<svg width="16" height="16" viewBox="0 0 16 16" fill="none" xmlns="http://www.w3.org/2000/svg">
<path d="M7.40301 1.18299C7.46105 1.12494 7.52996 1.07889 7.6058 1.04747C7.68163 1.01605 7.76292 0.999878 7.84501 0.999878C7.9271 0.999878 8.00839 1.01605 8.08423 1.04747C8.16007 1.07889 8.22897 1.12494 8.28701 1.18299L10.977 3.87299C11.0351 3.93103 11.0811 3.99994 11.1125 4.07578C11.144 4.15162 11.1601 4.2329 11.1601 4.31499C11.1601 4.39708 11.144 4.47837 11.1125 4.55421C11.0811 4.63005 11.0351 4.69896 10.977 4.75699L8.28701 7.44699C8.2289 7.50504 8.15993 7.55107 8.08403 7.58246C8.00813 7.61385 7.92679 7.62998 7.84466 7.62993C7.76252 7.62988 7.6812 7.61366 7.60534 7.58219C7.52948 7.55071 7.46056 7.5046 7.40251 7.44649C7.34447 7.38838 7.29844 7.31941 7.26705 7.24351C7.23566 7.16761 7.21953 7.08627 7.21957 7.00414C7.21962 6.92201 7.23584 6.84069 7.26732 6.76482C7.29879 6.68896 7.3449 6.62004 7.40301 6.56199L9.02601 4.93999H8.00001C7.12898 4.93999 6.27751 5.19828 5.55328 5.6822C4.82905 6.16612 4.26457 6.85393 3.93125 7.65866C3.59792 8.46338 3.5107 9.34888 3.68063 10.2032C3.85056 11.0575 4.27 11.8422 4.88591 12.4581C5.50182 13.074 6.28654 13.4934 7.14083 13.6634C7.99513 13.8333 8.88062 13.7461 9.68535 13.4128C10.4901 13.0794 11.1779 12.515 11.6618 11.7907C12.1457 11.0665 12.404 10.215 12.404 9.34399C12.404 9.17823 12.4699 9.01926 12.5871 8.90205C12.7043 8.78484 12.8633 8.71899 13.029 8.71899C13.1948 8.71899 13.3537 8.78484 13.471 8.90205C13.5882 9.01926 13.654 9.17823 13.654 9.34399C13.654 10.4622 13.3224 11.5554 12.7011 12.4852C12.0799 13.415 11.1968 14.1397 10.1637 14.5676C9.13057 14.9955 7.99374 15.1075 6.89697 14.8894C5.8002 14.6712 4.79276 14.1327 4.00203 13.342C3.2113 12.5513 2.67281 11.5438 2.45465 10.447C2.23649 9.35027 2.34846 8.21344 2.7764 7.1803C3.20433 6.14717 3.92902 5.26413 4.85882 4.64287C5.78861 4.0216 6.88176 3.68999 8.00001 3.68999H9.02601L7.40301 2.06699C7.34496 2.00896 7.2989 1.94005 7.26749 1.86421C7.23607 1.78837 7.21989 1.70708 7.21989 1.62499C7.21989 1.5429 7.23607 1.46162 7.26749 1.38578C7.2989 1.30994 7.34496 1.24103 7.40301 1.18299Z" fill="#8F939F"/>
</svg>