<?xml version="1.0" encoding="utf-8"?>
<!-- Generator: Adobe Illustrator 27.5.0, SVG Export Plug-In . SVG Version: 6.00 Build 0)  -->
<svg version="1.1" xmlns="http://www.w3.org/2000/svg" xmlns:xlink="http://www.w3.org/1999/xlink" x="0px" y="0px"
	 viewBox="0 0 2200 2200" style="enable-background:new 0 0 2200 2200;" xml:space="preserve">
<g id="background">
	<rect style="fill:#FFFFFF;" width="2200" height="2200"/>
</g>
<g id="Objects">
	<g>
		<path style="fill:#FFBD48;" d="M1823.341,1382.109L1288.27,493.742c-15.567-25.841-42.444-42.775-72.477-45.655l-393.345-37.702
			c-20.328-1.945-40.72,2.679-58.204,13.209l-72.789,43.839c-17.484,10.531-31.115,26.4-38.894,45.27L501.964,878.034
			c-11.494,27.896-9.091,59.571,6.467,85.402l535.071,888.376c27.125,45.04,85.622,59.552,130.663,32.436l616.74-371.477
			C1835.936,1485.655,1850.466,1427.149,1823.341,1382.109z M884.999,706.422c-36.152,21.777-83.109,10.118-104.877-26.024
			c-21.768-36.151-10.118-83.1,26.033-104.877c36.151-21.768,83.1-10.118,104.868,26.033
			C932.801,637.697,921.142,684.645,884.999,706.422z"/>
		<g>
			<path style="fill:#E54545;" d="M1285.451,678.655L949.516,429.751c-17.354-12.86-38.367-19.8-59.962-19.8H799.65
				c-21.595,0-42.608,6.94-59.962,19.8L403.753,678.655c-25.643,19.004-40.754,49.024-40.754,80.936v1097.272
				c0,55.633,45.093,100.726,100.716,100.726h761.774c55.624,0,100.726-45.093,100.726-100.726V759.591
				C1326.215,727.678,1311.094,697.659,1285.451,678.655z M844.607,732.211c-44.656,0-80.849-36.193-80.849-80.839
				s36.193-80.839,80.849-80.839c44.646,0,80.839,36.193,80.839,80.839S889.253,732.211,844.607,732.211z"/>
			<path style="fill:#383333;" d="M844.602,603.4L844.602,603.4c-11.043,0-19.995-8.952-19.995-19.995V262.406
				c0-11.043,8.952-19.995,19.995-19.995h0c11.043,0,19.995,8.952,19.995,19.995v320.999
				C864.597,594.448,855.645,603.4,844.602,603.4z"/>
			<path style="fill:#FFFFFF;" d="M800.71,1215.481c0-94.667-45.807-148.109-115.281-148.109
				c-65.657,0-119.862,55.731-119.862,154.98c0.764,100.012,54.206,149.635,116.045,149.635
				C745.741,1371.988,800.71,1320.074,800.71,1215.481z M619.008,1220.062c0-62.602,22.141-112.227,64.131-112.227
				c46.569,0,64.129,50.387,64.129,110.7c0,65.656-19.849,112.99-64.129,112.99C641.149,1331.526,617.483,1283.429,619.008,1220.062
				z"/>
			<path style="fill:#FFFFFF;" d="M963.324,1076.772l-270.509,475.871c-7.042,12.389,1.905,27.767,16.156,27.767l0,0
				c6.684,0,12.853-3.589,16.156-9.4l270.511-475.871c7.042-12.388-1.905-27.767-16.156-27.767h-0.002
				C972.796,1067.373,966.627,1070.962,963.324,1076.772z"/>
			<path style="fill:#FFFFFF;" d="M1009.13,1272.74c-65.655,0-119.86,55.732-119.86,155.743
				c0.764,99.249,54.206,148.873,116.043,148.873c63.367,0,118.335-51.914,118.335-156.507
				C1123.647,1326.182,1078.604,1272.74,1009.13,1272.74z M1006.841,1536.893c-41.227,0-65.657-48.097-64.893-111.463
				c0-62.603,22.903-112.227,64.893-112.227c46.571,0,64.129,50.387,64.129,110.7
				C1070.97,1489.559,1051.12,1536.893,1006.841,1536.893z"/>
		</g>
	</g>
</g>
</svg>
