<?xml version="1.0" encoding="utf-8"?>
<!-- Generator: Adobe Illustrator 27.5.0, SVG Export Plug-In . SVG Version: 6.00 Build 0)  -->
<svg version="1.1" xmlns="http://www.w3.org/2000/svg" xmlns:xlink="http://www.w3.org/1999/xlink" x="0px" y="0px"
	 viewBox="0 0 3710 3710" style="enable-background:new 0 0 3710 3710;" xml:space="preserve">
<g id="Background">
	<g>
		<g>
			<rect style="fill:#FFFFFF;" width="3710" height="3710"/>
		</g>
	</g>
</g>
<g id="Illustration">
	<g>
		<path style="fill:#F4F7FA;" d="M1895.224,459.046C1156.648,437.71,516.886,961.974,420.228,1649.873
			C314.548,2401.997,896.2,3078.727,1611.899,3187.116C2502.108,3321.934,3365.56,2542,3288.031,1695.888
			C3229.62,1058.417,2646.001,480.734,1895.224,459.046z"/>
		<g>
			<g>
				<defs>
					<path id="SVGID_1_" d="M2336.573,2835.927c-52.87-90.165-1.566-240.317,61.237-328.222
						c73.323-102.632,132.895-79.226,183.709-163.482c94.61-156.873-73.095-302.343,9.769-468.108
						c67.741-135.513,205.525-89.716,273.713-243.198c49.204-110.75,1.112-187.829,75.708-270.114
						c6.377-7.034,76.238-81.909,161.086-68.348c85.637,13.689,136.455,109.464,153.079,175.591
						c30.73,122.234-50.79,161.398-67.535,319.667c-22.797,215.478,114.812,270.433,65.23,425.625
						c-40.942,128.153-144.22,120.239-186.793,263.233c-39.533,132.784,35.156,187.859,0,274.643
						C2984.899,2952.86,2444.413,3019.837,2336.573,2835.927z"/>
				</defs>
				
					<linearGradient id="SVGID_00000078747364486881001450000008659472317657635968_" gradientUnits="userSpaceOnUse" x1="3100.4172" y1="1703.6652" x2="2114.3025" y2="3919.0461">
					<stop  offset="0.0036" style="stop-color:#E38DDD"/>
					<stop  offset="1" style="stop-color:#9571F6"/>
				</linearGradient>
				
					<use xlink:href="#SVGID_1_"  style="overflow:visible;fill:url(#SVGID_00000078747364486881001450000008659472317657635968_);"/>
				<clipPath id="SVGID_00000038395556691515619190000012951320941204678071_">
					<use xlink:href="#SVGID_1_"  style="overflow:visible;"/>
				</clipPath>
				<g style="clip-path:url(#SVGID_00000038395556691515619190000012951320941204678071_);">
					<path style="opacity:0.7;fill:#FFFFFF;" d="M2408.173,2977.976c-0.911,0-1.695-0.689-1.794-1.617
						c-0.106-0.993,0.615-1.883,1.607-1.989c91.74-9.711,177.413-38.186,254.646-84.632
						c73.152-43.99,148.793-89.479,182.353-173.214c25.364-63.294,11.395-109.948-6.292-169.014
						c-17.239-57.57-38.695-129.219-26.847-238.72c6.766-62.53,15.184-140.345,69.38-213.988
						c31.579-42.912,62.216-61.286,89.25-77.497c28.253-16.943,50.57-30.326,63.586-66.125
						c21.254-58.453,7.292-108.737-8.874-166.959c-9.993-35.992-20.329-73.211-24.245-117.411
						c-11.031-124.412,47.699-258.178,174.552-397.582c0.674-0.738,1.812-0.792,2.556-0.121c0.738,0.673,0.791,1.816,0.12,2.554
						c-126.147,138.626-184.563,271.466-173.627,394.829c3.888,43.871,14.178,80.927,24.128,116.763
						c16.332,58.822,30.435,109.621,8.786,169.163c-13.454,37.005-37.399,51.363-65.125,67.99
						c-26.738,16.036-57.046,34.211-88.198,76.539c-53.617,72.858-61.975,150.136-68.695,212.231
						c-11.766,108.778,9.573,180.039,26.717,237.298c17.889,59.741,32.021,106.929,6.183,171.396
						c-34.012,84.863-110.183,130.669-183.843,174.967c-77.689,46.72-163.863,75.362-256.129,85.13
						C2408.304,2977.972,2408.237,2977.976,2408.173,2977.976z"/>
					<path style="opacity:0.7;fill:#FFFFFF;" d="M2859.664,2133.959c-0.692,0-1.356-0.402-1.653-1.078
						c-74.048-167.639-85.687-297.425-82.407-376.783c3.556-86.13,25.001-133.266,25.22-133.732
						c0.417-0.906,1.504-1.298,2.397-0.879c0.908,0.42,1.3,1.494,0.883,2.4c-0.215,0.462-21.402,47.114-24.898,132.61
						c-3.227,78.931,8.401,208.048,82.11,374.924c0.406,0.913-0.007,1.98-0.922,2.384
						C2860.158,2133.909,2859.907,2133.959,2859.664,2133.959z"/>
					<path style="opacity:0.7;fill:#FFFFFF;" d="M2810.838,2399.9c-0.802,0-1.532-0.535-1.748-1.345
						c-0.254-0.965,0.318-1.955,1.285-2.21c212.731-56.458,317.444-179.438,367.83-272.664
						c54.578-100.987,58.935-189.675,58.97-190.558c0.042-0.971,0.844-1.731,1.808-1.731c0.025,0,0.049,0.001,0.078,0.002
						c0.996,0.042,1.773,0.885,1.73,1.883c-0.039,0.892-4.435,90.413-59.405,192.124c-50.725,93.853-156.105,217.65-370.087,274.438
						C2811.146,2399.88,2810.99,2399.9,2810.838,2399.9z"/>
					<path style="opacity:0.7;fill:#FFFFFF;" d="M2744.855,2845.945c-0.42,0-0.837-0.144-1.179-0.438
						c-159.213-137.125-210.623-278.594-225.715-373.125c-16.367-102.514,5.286-173.585,5.505-174.291
						c0.3-0.951,1.296-1.485,2.267-1.187c0.95,0.297,1.483,1.312,1.187,2.265c-0.219,0.699-21.643,71.115-5.357,172.843
						c15.029,93.882,66.171,234.413,224.472,370.753c0.756,0.652,0.84,1.793,0.191,2.551
						C2745.869,2845.732,2745.364,2845.945,2744.855,2845.945z"/>
					<path style="opacity:0.7;fill:#FFFFFF;" d="M3005.052,1647.129c-0.703,0-1.374-0.415-1.667-1.104
						c-0.388-0.92,0.042-1.98,0.964-2.369c153.909-65.116,219.409-176.083,247.252-257.707
						c30.198-88.528,23.885-162.628,23.818-163.366c-0.092-0.994,0.643-1.873,1.635-1.964c0.992-0.095,1.875,0.639,1.967,1.635
						c0.067,0.745,6.458,75.489-23.948,164.72c-28.069,82.373-94.105,194.349-249.318,260.013
						C3005.525,1647.083,3005.289,1647.129,3005.052,1647.129z"/>
				</g>
			</g>
		</g>
		<g>
			
				<linearGradient id="SVGID_00000089551680760416841780000007828417136206536581_" gradientUnits="userSpaceOnUse" x1="3205.6868" y1="168.134" x2="2822.0662" y2="1168.2872">
				<stop  offset="0" style="stop-color:#AA80F9"/>
				<stop  offset="0.9964" style="stop-color:#6165D7"/>
			</linearGradient>
			<path style="fill:url(#SVGID_00000089551680760416841780000007828417136206536581_);" d="M2424.433,2504.697
				c-108.802-46.306-165.165-181.3-168.765-288.398c-5.556-165.302,117.008-191.995,131.738-369.639
				c15.664-188.906-117.196-227.89-94.739-407.02c20.569-164.066,134.803-153.536,184.982-346.882
				c50.459-194.423-45.301-274.486,35.361-432.292c15.378-30.085,78.604-153.779,189.399-161.913
				c92.698-6.806,176.458,70.379,211.61,144.075c39.75,83.336,0.668,127.254,4.502,274.643
				c5.238,201.353,80.366,203.509,66.726,340.271c-18.23,182.775-154.095,220.879-137.667,367.207
				c11.048,98.409,79.864,98.605,120.014,213.894c57.373,164.742-13.028,365.669-125.613,492.363
				C2827.184,2347.659,2611.588,2584.35,2424.433,2504.697z"/>
			<g>
				<defs>
					<path id="SVGID_00000183952842931408698810000002478689920753444002_" d="M2424.433,2504.697
						c-108.802-46.306-165.165-181.3-168.765-288.398c-5.556-165.302,117.008-191.995,131.738-369.639
						c15.664-188.906-117.196-227.89-94.739-407.02c20.569-164.066,134.803-153.536,184.982-346.882
						c50.459-194.423-45.301-274.486,35.361-432.292c15.378-30.085,78.604-153.779,189.399-161.913
						c92.698-6.806,176.458,70.379,211.61,144.075c39.75,83.336,0.668,127.254,4.502,274.643
						c5.238,201.353,80.366,203.509,66.726,340.271c-18.23,182.775-154.095,220.879-137.667,367.207
						c11.048,98.409,79.864,98.605,120.014,213.894c57.373,164.742-13.028,365.669-125.613,492.363
						C2827.184,2347.659,2611.588,2584.35,2424.433,2504.697z"/>
				</defs>
				
					<linearGradient id="SVGID_00000129182027673218213640000006659865581953124487_" gradientUnits="userSpaceOnUse" x1="3205.6868" y1="168.134" x2="2822.0662" y2="1168.2872">
					<stop  offset="0" style="stop-color:#AA80F9"/>
					<stop  offset="0.9964" style="stop-color:#6165D7"/>
				</linearGradient>
				
					<use xlink:href="#SVGID_00000183952842931408698810000002478689920753444002_"  style="overflow:visible;fill:url(#SVGID_00000129182027673218213640000006659865581953124487_);"/>
				<clipPath id="SVGID_00000046303171500054602860000005696632391886738321_">
					<use xlink:href="#SVGID_00000183952842931408698810000002478689920753444002_"  style="overflow:visible;"/>
				</clipPath>
				<g style="clip-path:url(#SVGID_00000046303171500054602860000005696632391886738321_);">
					<path style="opacity:0.7;fill:#FFFFFF;" d="M2488.779,2562.716c-0.445,0-0.89-0.162-1.236-0.49
						c-0.731-0.683-0.766-1.827-0.081-2.555c123.276-131.356,183.882-263.816,180.125-393.7
						c-1.78-61.496-17.444-98.167-35.583-140.628c-18.224-42.656-38.878-91.002-52.752-176.695
						c-27.349-168.94-13.235-321.965,41.947-454.823c30.308-72.963,61.488-111.116,86.545-141.772
						c28.5-34.869,51.011-62.411,60.026-123.737c10.516-71.5-9.251-119.139-32.14-174.3c-19.33-46.578-41.237-99.37-48.091-176.124
						c-10.089-112.92,7.98-231.355,53.702-352.017c0.357-0.933,1.402-1.407,2.331-1.05c0.936,0.353,1.406,1.397,1.052,2.331
						c-45.527,120.146-63.522,238.043-53.483,350.414c6.805,76.201,28.599,128.721,47.83,175.06
						c23.094,55.657,43.041,103.724,32.381,176.212c-9.163,62.313-31.954,90.197-60.807,125.499
						c-24.905,30.473-55.905,68.397-86.005,140.87c-54.92,132.229-68.957,284.592-41.721,452.859
						c13.807,85.255,34.369,133.386,52.508,175.852c18.284,42.799,34.076,79.763,35.877,141.945
						c3.782,130.873-57.148,264.199-181.106,396.277C2489.743,2562.524,2489.259,2562.716,2488.779,2562.716z"/>
					<path style="opacity:0.7;fill:#FFFFFF;" d="M2765.972,1030.01c-0.261,0-0.526-0.056-0.777-0.175
						c-129.12-61.346-207.54-181.845-250.589-272.129c-46.604-97.743-62.943-182.137-63.102-182.978
						c-0.187-0.981,0.459-1.927,1.441-2.113c0.968-0.186,1.925,0.457,2.112,1.439c0.159,0.837,16.431,84.847,62.855,182.181
						c42.794,89.724,120.702,209.457,248.837,270.334c0.901,0.429,1.285,1.507,0.855,2.409
						C2767.296,1029.628,2766.646,1030.01,2765.972,1030.01z"/>
					<path style="opacity:0.7;fill:#FFFFFF;" d="M2611.508,1425.612c-0.968,0-1.769-0.765-1.808-1.74
						c-0.035-0.998,0.741-1.837,1.741-1.875c173.913-6.547,267.545-113.262,315.47-201.633c52-95.887,62.936-191.406,63.042-192.359
						c0.109-0.995,1.013-1.704,1.995-1.6c0.992,0.109,1.709,1.001,1.6,1.994c-0.106,0.96-11.123,97.186-63.458,193.69
						c-48.374,89.197-142.896,196.911-318.514,203.523C2611.554,1425.612,2611.529,1425.612,2611.508,1425.612z"/>
					<path style="opacity:0.7;fill:#FFFFFF;" d="M2565.624,1623.325c-0.24,0-0.484-0.049-0.717-0.15
						c-148.87-64.446-204.097-177.153-224.211-260.354c-21.777-90.084-8.182-165.978-8.04-166.734
						c0.18-0.982,1.137-1.63,2.104-1.449c0.982,0.182,1.631,1.125,1.448,2.106c-0.138,0.75-13.599,76.001,8.037,165.36
						c19.937,82.355,74.652,193.923,222.096,257.753c0.918,0.396,1.338,1.461,0.943,2.377
						C2566.987,1622.917,2566.323,1623.325,2565.624,1623.325z"/>
					<path style="opacity:0.7;fill:#FFFFFF;" d="M2664.112,2116.707c-0.851,0-1.607-0.603-1.773-1.47
						c-0.187-0.982,0.459-1.928,1.437-2.115c157.688-29.987,240.765-137.348,282.694-222.133
						c45.506-92.016,53.751-178.072,53.829-178.93c0.088-0.997,1.066-1.714,1.963-1.638c0.996,0.091,1.727,0.97,1.638,1.964
						c-0.078,0.864-8.365,87.491-54.136,180.1c-42.289,85.564-126.119,193.916-285.311,224.189
						C2664.338,2116.697,2664.225,2116.707,2664.112,2116.707z"/>
					<path style="opacity:0.7;fill:#FFFFFF;" d="M2606.741,2404.734c-0.088,0-0.173-0.006-0.261-0.019
						c-142.083-20.526-221.252-128.773-262.651-215.967c-44.772-94.302-56.191-184.969-56.301-185.874
						c-0.12-0.99,0.583-1.892,1.575-2.013c0.946-0.113,1.893,0.583,2.013,1.576c0.11,0.901,11.476,91.066,56.022,184.847
						c41.018,86.358,119.399,193.56,259.858,213.852c0.989,0.143,1.674,1.059,1.533,2.048
						C2608.397,2404.085,2607.624,2404.734,2606.741,2404.734z"/>
				</g>
			</g>
		</g>
		<g>
			
				<linearGradient id="SVGID_00000124860639870423659660000005937358162757855149_" gradientUnits="userSpaceOnUse" x1="5729.3066" y1="416.8209" x2="5345.686" y2="1416.9741" gradientTransform="matrix(-1 0 0 1 6386.2617 0)">
				<stop  offset="0" style="stop-color:#AA80F9"/>
				<stop  offset="0.9964" style="stop-color:#6165D7"/>
			</linearGradient>
			<path style="fill:url(#SVGID_00000124860639870423659660000005937358162757855149_);" d="M1438.209,2753.384
				c108.802-46.306,165.165-181.3,168.765-288.398c5.556-165.303-117.008-191.995-131.738-369.639
				c-15.664-188.906,117.196-227.89,94.738-407.02c-20.568-164.066-134.803-153.536-184.982-346.882
				c-50.459-194.423,45.301-274.486-35.361-432.292c-15.378-30.085-78.604-153.779-189.399-161.913
				c-92.697-6.806-176.458,70.379-211.61,144.075c-39.75,83.336-0.668,127.254-4.502,274.643
				c-5.238,201.353-80.367,203.509-66.726,340.271c18.23,182.775,154.095,220.878,137.667,367.207
				c-11.048,98.409-79.864,98.606-120.014,213.894c-57.373,164.742,13.028,365.669,125.613,492.364
				C1035.458,2596.346,1251.054,2833.037,1438.209,2753.384z"/>
			<g>
				<defs>
					<path id="SVGID_00000139268937404466907480000016081970986564318388_" d="M1438.209,2753.384
						c108.802-46.306,165.165-181.3,168.765-288.398c5.556-165.303-117.008-191.995-131.738-369.639
						c-15.664-188.906,117.196-227.89,94.738-407.02c-20.568-164.066-134.803-153.536-184.982-346.882
						c-50.459-194.423,45.301-274.486-35.361-432.292c-15.378-30.085-78.604-153.779-189.399-161.913
						c-92.697-6.806-176.458,70.379-211.61,144.075c-39.75,83.336-0.668,127.254-4.502,274.643
						c-5.238,201.353-80.367,203.509-66.726,340.271c18.23,182.775,154.095,220.878,137.667,367.207
						c-11.048,98.409-79.864,98.606-120.014,213.894c-57.373,164.742,13.028,365.669,125.613,492.364
						C1035.458,2596.346,1251.054,2833.037,1438.209,2753.384z"/>
				</defs>
				
					<linearGradient id="SVGID_00000176007477046142509280000005185602752270661250_" gradientUnits="userSpaceOnUse" x1="1742.6915" y1="493.9361" x2="937.6812" y2="2592.7126">
					<stop  offset="0.0036" style="stop-color:#E38DDD"/>
					<stop  offset="1" style="stop-color:#9571F6"/>
				</linearGradient>
				
					<use xlink:href="#SVGID_00000139268937404466907480000016081970986564318388_"  style="overflow:visible;fill:url(#SVGID_00000176007477046142509280000005185602752270661250_);"/>
				<clipPath id="SVGID_00000023965807609669055980000017996147920019885992_">
					<use xlink:href="#SVGID_00000139268937404466907480000016081970986564318388_"  style="overflow:visible;"/>
				</clipPath>
				<g style="clip-path:url(#SVGID_00000023965807609669055980000017996147920019885992_);">
					<path style="opacity:0.7;fill:#FFFFFF;" d="M1373.861,2811.403c-0.48,0-0.964-0.191-1.317-0.571
						c-123.954-132.08-184.885-265.407-181.103-396.277c1.797-62.182,17.589-99.146,35.873-141.946
						c18.143-42.466,38.705-90.596,52.508-175.851c27.243-168.256,13.207-320.62-41.721-452.859
						c-30.1-72.476-61.096-110.401-86.005-140.874c-28.85-35.301-51.64-63.184-60.807-125.496
						c-10.66-72.489,9.287-120.557,32.384-176.215c19.227-46.338,41.021-98.857,47.83-175.058
						c10.035-112.383-7.959-230.279-53.487-350.415c-0.353-0.934,0.117-1.977,1.052-2.331c0.925-0.355,1.974,0.118,2.33,1.05
						c45.722,120.651,63.79,239.086,53.705,352.017c-6.858,76.753-28.765,129.545-48.091,176.122
						c-22.892,55.162-42.66,102.802-32.144,174.302c9.019,61.323,31.53,88.864,60.026,123.734
						c25.057,30.656,56.241,68.809,86.545,141.775c55.188,132.87,69.302,285.894,41.947,454.823
						c-13.87,85.692-34.524,134.038-52.749,176.694c-18.14,42.461-33.807,79.133-35.583,140.629
						c-3.757,129.881,56.845,262.341,180.121,393.7c0.685,0.727,0.65,1.872-0.081,2.555
						C1374.751,2811.241,1374.306,2811.403,1373.861,2811.403z"/>
					<path style="opacity:0.7;fill:#FFFFFF;" d="M1096.669,1278.697c-0.675,0-1.324-0.381-1.631-1.033
						c-0.431-0.902-0.046-1.98,0.854-2.409c128.167-60.891,206.086-180.664,248.88-270.419
						c46.406-97.326,62.653-181.259,62.812-182.095c0.187-0.983,1.148-1.626,2.112-1.439c0.982,0.186,1.628,1.132,1.441,2.113
						c-0.159,0.841-16.494,85.234-63.102,182.978c-43.045,90.284-121.465,210.783-250.589,272.129
						C1097.195,1278.641,1096.93,1278.697,1096.669,1278.697z"/>
					<path style="opacity:0.7;fill:#FFFFFF;" d="M1251.136,1674.298c-0.021,0-0.046,0-0.067-0.001
						c-175.619-6.611-270.141-114.326-318.514-203.522c-52.335-96.505-63.352-192.73-63.458-193.69
						c-0.109-0.992,0.607-1.886,1.6-1.994c0.982-0.106,1.882,0.606,1.995,1.6c0.106,0.954,11.07,96.571,63.098,192.459
						c47.925,88.326,141.547,194.988,315.414,201.533c0.999,0.038,1.776,0.877,1.741,1.875
						C1252.905,1673.533,1252.103,1674.298,1251.136,1674.298z"/>
					<path style="opacity:0.7;fill:#FFFFFF;" d="M1297.016,1872.011c-0.699,0-1.363-0.408-1.66-1.09
						c-0.395-0.916,0.025-1.981,0.943-2.377c147.5-63.855,202.208-175.484,222.131-257.885
						c21.597-89.344,8.139-164.479,8.002-165.226c-0.184-0.983,0.466-1.925,1.448-2.107c0.957-0.181,1.925,0.467,2.105,1.449
						c0.141,0.757,13.736,76.65-8.041,166.734c-20.113,83.2-75.341,195.907-224.211,260.353
						C1297.5,1871.963,1297.256,1872.011,1297.016,1872.011z"/>
					<path style="opacity:0.7;fill:#FFFFFF;" d="M1198.528,2365.394c-0.113,0-0.226-0.01-0.342-0.032
						c-159.192-30.274-243.018-138.625-285.307-224.189c-45.771-92.608-54.059-179.235-54.136-180.1
						c-0.088-0.994,0.643-1.873,1.638-1.964c0.886-0.074,1.872,0.641,1.963,1.638c0.078,0.858,8.323,86.914,53.826,178.93
						c41.929,84.785,125.007,192.146,282.694,222.133c0.978,0.186,1.624,1.133,1.437,2.114
						C1200.135,2364.791,1199.38,2365.394,1198.528,2365.394z"/>
					<path style="opacity:0.7;fill:#FFFFFF;" d="M1255.899,2653.42c-0.883,0-1.656-0.649-1.787-1.549
						c-0.141-0.989,0.544-1.905,1.532-2.048c140.463-20.292,218.844-127.493,259.862-213.851
						c44.546-93.781,55.912-183.947,56.022-184.847c0.12-0.991,1.07-1.691,2.013-1.576c0.992,0.121,1.695,1.022,1.575,2.013
						c-0.109,0.905-11.529,91.572-56.301,185.874c-41.399,87.194-120.571,195.441-262.655,215.967
						C1256.072,2653.414,1255.988,2653.42,1255.899,2653.42z"/>
				</g>
			</g>
		</g>
		<g>
			
				<linearGradient id="SVGID_00000092437278538153442780000013339410846299033507_" gradientUnits="userSpaceOnUse" x1="1873.3551" y1="5504.3228" x2="2443.9424" y2="-9552.6338">
				<stop  offset="0.0036" style="stop-color:#F36F56"/>
				<stop  offset="1" style="stop-color:#FFC444"/>
			</linearGradient>
			<path style="fill:url(#SVGID_00000092437278538153442780000013339410846299033507_);" d="M2701.141,1143.643l-548.377-623.975
				c-22.774-24.396-69.262-18.819-102.292-20.48c-33.173-1.668-65.127,9.974-88.647,32.349l-640.663,608.138
				c-45.224,43.015-72.087,101.345-72.087,162.131v1707.036c0,108.341,94.288,186.003,207.409,171.876l1128.308-140.699
				c96.438-12.044,173.104-102.384,173.104-200.67V1289.255C2757.894,1234.985,2737.717,1182.817,2701.141,1143.643z
				 M2045.68,1221.089c-83.55,0.212-151.943-66.863-151.943-149.819c0-82.955,68.392-149.057,151.943-147.657
				c82.654,1.385,149.005,68.446,149.005,149.797C2194.686,1154.763,2128.334,1220.88,2045.68,1221.089z"/>
			
				<linearGradient id="SVGID_00000155830826444794312510000012261395322055129526_" gradientUnits="userSpaceOnUse" x1="1653.877" y1="12843.8691" x2="2222.0906" y2="-2150.4485">
				<stop  offset="0.0036" style="stop-color:#F36F56"/>
				<stop  offset="1" style="stop-color:#FFC444"/>
			</linearGradient>
			<path style="fill:url(#SVGID_00000155830826444794312510000012261395322055129526_);" d="M2752.877,1143.74l-559.211-601.419
				c-22.596-24.281-53.651-38.967-86.432-40.609c-32.949-1.641-64.615,9.932-87.969,32.234L1704.406,834.32l-319.061,305.549
				c-44.9,42.838-69.648,100.994-69.648,161.548v1700.655c0,107.937,92.976,185.03,205.205,170.974l821.617-102.845l294.683-36.779
				c95.777-11.993,171.639-102.299,171.639-200.221V1288.835C2808.841,1234.761,2789.194,1182.791,2752.877,1143.74z
				 M2102.521,924.583c82.058,1.346,147.916,68.171,147.916,149.219c0,81.048-65.858,146.946-147.916,147.157
				c-82.898,0.21-150.817-66.614-150.817-149.261C1951.703,989.051,2019.623,923.195,2102.521,924.583z"/>
			<g>
				<g style="opacity:0.15;">
					
						<linearGradient id="SVGID_00000021095590212794824790000014945850262353035917_" gradientUnits="userSpaceOnUse" x1="1548.5509" y1="2021.0437" x2="2646.9814" y2="2021.0437" gradientTransform="matrix(0.9999 0.0151 -0.0151 0.9999 8.0381 -12.9012)">
						<stop  offset="0" style="stop-color:#FF9085"/>
						<stop  offset="1" style="stop-color:#FB6FBB"/>
					</linearGradient>
					<path style="fill:url(#SVGID_00000021095590212794824790000014945850262353035917_);" d="M2042.06,1841.25
						c-2.888,190.832-122.244,290.004-255.127,289.494c-144.783-0.556-260.839-111.562-258.081-293.829
						c2.623-173.304,111.797-296.769,274.014-284.651C1960.262,1564.022,2044.417,1685.5,2042.06,1841.25z M1698.35,1837.589
						c-1.507,99.551,31.068,171.91,94.708,173.088c61.25,1.135,91.783-61.266,93.363-165.707
						c1.429-94.426-22.791-168.911-89.675-172.923C1731.669,1668.143,1699.791,1742.429,1698.35,1837.589z M1832.703,2451.105
						l461.12-834.881c8.819-15.967,26.133-25.332,44.323-23.973h0c33.82,2.526,53.734,39.144,37.473,68.906l-456.018,834.656
						c-7.828,14.328-22.576,23.522-38.887,24.244l-5.101,0.226C1839.203,2521.895,1815.082,2483.01,1832.703,2451.105z
						 M2621.701,2215.826c-2.675,176.744-105.126,273.452-218.808,278.444c-122.274,5.369-220.914-92.122-219.673-260.093
						c2.417-159.746,95.481-278.485,233.897-274.768C2551.819,1963.027,2623.884,2071.57,2621.701,2215.826z M2328.831,2227.426
						c-2.644,91.92,25.076,157.31,79.423,155.721c52.369-1.531,78.563-60.492,80.024-157.083
						c1.322-87.329-18.12-155.061-75.29-155.756C2356.186,2069.616,2330.16,2139.585,2328.831,2227.426z"/>
				</g>
				<g>
					<path style="fill:#FFFFFF;" d="M2064.33,1832.363c-2.888,190.833-122.244,290.005-255.127,289.495
						c-144.783-0.556-260.839-111.562-258.081-293.829c2.623-173.304,111.797-296.769,274.014-284.651
						C1982.531,1555.136,2066.686,1676.613,2064.33,1832.363z M1720.62,1828.702c-1.507,99.552,31.068,171.91,94.708,173.089
						c61.25,1.135,91.782-61.267,93.363-165.707c1.429-94.426-22.791-168.912-89.675-172.923
						C1753.939,1659.257,1722.06,1733.543,1720.62,1828.702z M1854.973,2442.219l461.12-834.882
						c8.819-15.967,26.133-25.332,44.323-23.973h0c33.82,2.527,53.734,39.145,37.473,68.907l-456.018,834.655
						c-7.828,14.328-22.576,23.522-38.887,24.244l-5.101,0.226C1861.473,2513.009,1837.352,2474.123,1854.973,2442.219z
						 M2643.971,2206.941c-2.675,176.744-105.126,273.452-218.808,278.444c-122.274,5.369-220.914-92.122-219.674-260.093
						c2.417-159.746,95.481-278.484,233.897-274.768C2574.089,1954.14,2646.154,2062.684,2643.971,2206.941z M2351.1,2218.54
						c-2.644,91.919,25.076,157.309,79.423,155.72c52.369-1.531,78.562-60.493,80.024-157.083
						c1.322-87.33-18.121-155.061-75.29-155.756C2378.456,2060.73,2352.429,2130.699,2351.1,2218.54z"/>
				</g>
			</g>
			<path style="opacity:0.35;fill:#FFFFFF;" d="M2341.919,3070.2l-821.017,102.845c-112.229,14.055-205.205-63.037-205.205-170.974
				V1301.417c0-60.554,24.722-118.71,69.622-161.548l319.635-305.549c-60.471,194.329-43.813,336.226-10.064,436.336
				c106.803,316.868,418.344,333.659,498.929,654.188c65.057,258.797-105.908,376.623-83.057,662.479
				C2121.616,2723.706,2176.246,2891.02,2341.919,3070.2z"/>
		</g>
		<g>
			
				<linearGradient id="SVGID_00000147918538721522993620000010834312618051026359_" gradientUnits="userSpaceOnUse" x1="880.9641" y1="3940.2119" x2="1303.8191" y2="2281.7449">
				<stop  offset="0" style="stop-color:#AA80F9"/>
				<stop  offset="0.9964" style="stop-color:#6165D7"/>
			</linearGradient>
			<path style="fill:url(#SVGID_00000147918538721522993620000010834312618051026359_);" d="M1309.115,2115.461
				c6.623-5.066,13.249-10.131,19.873-15.197c5.796,1.645,100.979,30.254,119.822,113.978c2.593,11.517,12.144,53.959-11.105,81.245
				c-38.973,45.739-152.072,27.724-205.16-36.239c-41.716-50.262-46.898-129.526-22.796-144.372
				c29.169-17.967,116.122,49.239,122.745,54.359c13.292,10.272,25.361,21.206,27.472,19.288
				C1363.556,2185.264,1335.006,2147.933,1309.115,2115.461z"/>
			<g>
				
					<linearGradient id="SVGID_00000174585549576169581450000004826438132325124766_" gradientUnits="userSpaceOnUse" x1="3308.9443" y1="955.3574" x2="3327.4016" y2="1287.5912" gradientTransform="matrix(-0.8446 0.5354 -0.5354 -0.8446 3926.7546 1838.9137)">
					<stop  offset="0" style="stop-color:#AB316D"/>
					<stop  offset="1" style="stop-color:#792D3D"/>
				</linearGradient>
				<path style="fill:url(#SVGID_00000174585549576169581450000004826438132325124766_);" d="M576.185,2708.112
					c0,0,5.069-13.169-2.873-20.057c-7.941-6.886-51.871-26.809-73.918-26.394c-22.045,0.415-4.281,17.404,8.304,27.02
					c12.586,9.615,41.943,29.759,49.5,31.465C564.754,2721.85,576.185,2708.112,576.185,2708.112z"/>
				
					<linearGradient id="SVGID_00000123425598529842114700000005178448279767914659_" gradientUnits="userSpaceOnUse" x1="3303.8582" y1="1131.2197" x2="3294.0525" y2="682.6293" gradientTransform="matrix(-0.8446 0.5354 -0.5354 -0.8446 3926.7546 1838.9137)">
					<stop  offset="0" style="stop-color:#FFC444"/>
					<stop  offset="0.9964" style="stop-color:#F36F56"/>
				</linearGradient>
				<path style="fill:url(#SVGID_00000123425598529842114700000005178448279767914659_);" d="M615.071,2731.391
					c-12.798-9.963-23.967-17.745-32.404-23.358c-18.667-12.418-26.988-16.242-35.322-18.849
					c-7.264-2.267-23.733-6.489-25.275-3.073c-1.568,3.47,13.693,11.624,51.174,40.07c5.441,4.128,22.722,17.318,22.722,17.318l0,0
					L615.071,2731.391z"/>
			</g>
			
				<linearGradient id="SVGID_00000067914367160671186750000004239082931771724207_" gradientUnits="userSpaceOnUse" x1="1225.9052" y1="2684.3977" x2="1244.3619" y2="3016.6223" gradientTransform="matrix(0.8454 -0.5342 0.5342 0.8454 -1341.6395 1610.5681)">
				<stop  offset="0" style="stop-color:#AB316D"/>
				<stop  offset="1" style="stop-color:#792D3D"/>
			</linearGradient>
			<path style="fill:url(#SVGID_00000067914367160671186750000004239082931771724207_);" d="M1172.946,3320.66
				c0,0-5.089,13.161,2.843,20.059c7.932,6.898,51.833,26.886,73.88,26.503c22.045-0.382,4.306-17.397-8.265-27.031
				c-12.571-9.633-41.899-29.82-49.455-31.538C1184.397,3306.937,1172.946,3320.66,1172.946,3320.66z"/>
			
				<linearGradient id="SVGID_00000124881097565134454530000001931900676828526520_" gradientUnits="userSpaceOnUse" x1="2521.1689" y1="3109.7881" x2="2513.9331" y2="2778.7542" gradientTransform="matrix(0.9509 0.3096 -0.3096 0.9509 -250.0294 -385.9418)">
				<stop  offset="0" style="stop-color:#FFC444"/>
				<stop  offset="0.9964" style="stop-color:#F36F56"/>
			</linearGradient>
			<path style="fill:url(#SVGID_00000124881097565134454530000001931900676828526520_);" d="M1176.116,3262.418
				c-0.932,16.769,0.812,30.384,2.656,39.857c2.63,13.518,4.225,21.178,10.639,27.968c11.33,11.992,31.168,14.354,34.043,9.532
				c3.262-5.474-17.729-16.152-24.693-41.809c-3.05-11.237-2.339-21.405-1.139-28.546L1176.116,3262.418z"/>
			
				<linearGradient id="SVGID_00000093867885648321838790000002086461906465260449_" gradientUnits="userSpaceOnUse" x1="1306.0933" y1="3274.5269" x2="1156.3041" y2="2748.9033">
				<stop  offset="0" style="stop-color:#444B8C"/>
				<stop  offset="0.9964" style="stop-color:#26264F"/>
			</linearGradient>
			<path style="fill:url(#SVGID_00000093867885648321838790000002086461906465260449_);" d="M1251.597,2578.526
				c29.711,31.277,23.22,75.966,13.914,156.074c-7.806,67.2-18.437,166.578-28.439,292.385
				c-9.078,87.757-18.156,175.511-27.234,263.267c-15.13,0-30.261,0-45.391,0c-18.555-39.402-40.655-99.746-41.759-174.3
				c-0.916-61.757,13.516-69.863,16.302-139.805c1.532-38.464-1.876-60.025-30.827-226.953
				c-23.032-132.791-27.563-157.712-9.078-177.929C1131.694,2535.596,1213.819,2538.759,1251.597,2578.526z"/>
			
				<linearGradient id="SVGID_00000167363495236568488440000004185000046081708675_" gradientUnits="userSpaceOnUse" x1="1278.4816" y1="3282.396" x2="1128.6923" y2="2756.7725">
				<stop  offset="0" style="stop-color:#444B8C"/>
				<stop  offset="0.9964" style="stop-color:#26264F"/>
			</linearGradient>
			<path style="opacity:0.4;fill:url(#SVGID_00000167363495236568488440000004185000046081708675_);" d="M1160.815,3189.986
				c7.81-24.485,28.556-49.501,29.958-98.044c1.654-57.275-25.809-71.567-21.788-125.277c3.864-51.616,30.496-55.366,38.129-106.214
				c8.865-59.063-23.986-74.507-35.405-144.342c-10.416-63.708,4.666-125.8,20.368-167.301c-35.257-6.431-73.22,0.83-92.993,22.459
				c-18.485,20.217-13.953,45.138,9.078,177.927c28.951,166.927,32.359,188.491,30.827,226.955
				c-2.787,69.942-17.218,78.048-16.302,139.805c1.104,74.553,23.204,134.895,41.759,174.3c5.008,0,10.014,0,15.022,0
				C1155.209,3246.14,1153.161,3213.983,1160.815,3189.986z"/>
			
				<linearGradient id="SVGID_00000021111621891096519380000013767762552778606213_" gradientUnits="userSpaceOnUse" x1="1025.73" y1="2896.3267" x2="820.908" y2="2521.7942">
				<stop  offset="0" style="stop-color:#444B8C"/>
				<stop  offset="0.9964" style="stop-color:#26264F"/>
			</linearGradient>
			<path style="fill:url(#SVGID_00000021111621891096519380000013767762552778606213_);" d="M568.35,2738.887
				c63.636,87.674,185.308,232.53,290.514,207.968c55.63-12.986,75.812-66.141,239.313-290.662
				c39.319-53.993,72.798-98.496,96.563-129.734c-63.547-15.733-127.094-31.47-190.641-47.204
				c-42.896,70.769-71.101,130.69-88.566,171.145c-41.752,96.717-56.808,162.558-94.811,166.561
				c-18.579,1.957-30.62-12.13-56.285-32.681c-33.603-26.904-85.644-60.95-163.406-87.15
				C590.137,2711.049,579.243,2724.967,568.35,2738.887z"/>
			
				<linearGradient id="SVGID_00000152966266320738129500000006864468711925882260_" gradientUnits="userSpaceOnUse" x1="-20.4528" y1="2423.0186" x2="1015.5022" y2="1781.1973">
				<stop  offset="0" style="stop-color:#444B8C"/>
				<stop  offset="0.9964" style="stop-color:#26264F"/>
			</linearGradient>
			<path style="fill:url(#SVGID_00000152966266320738129500000006864468711925882260_);" d="M1208.156,1999.877
				c-14.317-23.042-36.397-32.107-61.068-41.84c-31.987-12.619-46.414-10.045-70.182-16.073
				c-58.801-14.913-59.938-53.344-112.716-79.793c-67.459-33.808-100.4,11.537-156.372-18.301
				c-62.837-33.498-40.619-100.928-96.125-145.636c-77.045-62.056-257.18-42.755-313.867,64.27
				c-32.743,61.812-26.579,157.186,19.632,210.728c26.936,31.209,65.591,47.807,63.66,75.634
				c-1.375,19.804-24.801,22.502-38.532,50.643c-17.705,36.276-1.299,77.922,1.351,84.646
				c24.591,62.431,136.751,100.853,235.553,87.538c178.168-24.012,256.971-208.731,370.445-173.664
				c20.869,6.451,51.043,24.443,93.145,17.847c12.675-1.986,57.577-9.021,73.496-46.223
				C1230.59,2036.903,1210.639,2003.87,1208.156,1999.877z"/>
			
				<linearGradient id="SVGID_00000072997766267471633290000014424225385281063858_" gradientUnits="userSpaceOnUse" x1="678.5446" y1="3888.6016" x2="1101.3999" y2="2230.1338">
				<stop  offset="0" style="stop-color:#AA80F9"/>
				<stop  offset="0.9964" style="stop-color:#6165D7"/>
			</linearGradient>
			<path style="fill:url(#SVGID_00000072997766267471633290000014424225385281063858_);" d="M1006.603,2095.307
				c48.73-0.185,109.054,0.348,170.706,6.856c132.552,13.992,127.338,79.943,103.336,140.068
				c-24.492,61.357-23.641,115.536-23.148,134.81c0.793,31.053,6.435,55.947,17.724,105.738
				c19.607,86.495,34.21,106.36,20.405,128.478c-20.133,32.25-76.553,30.659-86.447,30.183
				c-50.112-2.412-60.744-31.822-102.996-36.473c-49.09-5.407-60.438,31.461-128.694,56.267
				c-80.564,29.28-184.282,21.534-232.457-32.405c-18.602-20.828-30.539-49.602-22.54-58.66
				c10.889-12.332,48.768,23.152,89.093,9.078c26.713-9.325,24.301-29.856,56.29-49.889c38.498-24.109,61.145-6.368,87.249-21.928
				c40.718-24.278,31.96-95.082,35.255-211.644C991.743,2247.528,995.531,2178.847,1006.603,2095.307z"/>
			
				<linearGradient id="SVGID_00000160890847486765234860000001746780554176336038_" gradientUnits="userSpaceOnUse" x1="442.1436" y1="3828.3284" x2="864.9987" y2="2169.8611">
				<stop  offset="0" style="stop-color:#AA80F9"/>
				<stop  offset="0.9964" style="stop-color:#6165D7"/>
			</linearGradient>
			<path style="fill:url(#SVGID_00000160890847486765234860000001746780554176336038_);" d="M1006.602,2095.307
				c-70.698,3.448-95.973,77.039-169.78,91.558c-44.719,8.798-111.421-3.274-207.199-96.305
				c-13.576,6.279-27.152,12.561-40.729,18.843c13.952,83.531,52.715,130.404,71.743,150.143
				c108.707,112.77,314.884,109.314,426.524,12.635c35.034-30.338,54.785-64.687,65.516-87.259
				C1117.391,2141.038,1066.032,2092.412,1006.602,2095.307z"/>
			
				<linearGradient id="SVGID_00000041261251583078094030000009320802740894151092_" gradientUnits="userSpaceOnUse" x1="1093.6125" y1="2259.4009" x2="1022.9127" y2="2003.6787" gradientTransform="matrix(-0.993 -0.1185 -0.1185 0.993 2447.3235 124.8413)">
				<stop  offset="0" style="stop-color:#FFC444"/>
				<stop  offset="0.9964" style="stop-color:#F36F56"/>
			</linearGradient>
			<path style="fill:url(#SVGID_00000041261251583078094030000009320802740894151092_);" d="M1161.38,2040.885
				c-4.414-3.171-10.617-1.104-12.289,4.068c-4.629,14.318-14.195,38.678-27.234,44.766c-18.775,8.759-47.044,4.913-50.617,8.39
				c-3.558,3.459,84.3,49.058,142.837,28.33c0.411-0.146,0.81-0.325,1.194-0.532l3.334-1.795c6.608-3.558,5.114-13.432-2.249-14.888
				c-11.294-2.232-40.875-10.723-48.318-23.624c-0.855-1.481-1.097-13.122-0.881-14.818l2.4-18.863
				c0.371-2.913-0.884-5.795-3.269-7.508L1161.38,2040.885z"/>
			
				<linearGradient id="SVGID_00000158734299353851199240000002885917836816289438_" gradientUnits="userSpaceOnUse" x1="1090.0112" y1="2013.0018" x2="859.9944" y2="2204.425" gradientTransform="matrix(-0.993 -0.1185 -0.1185 0.993 2447.3235 124.8413)">
				<stop  offset="0" style="stop-color:#FFC444"/>
				<stop  offset="0.9964" style="stop-color:#F36F56"/>
			</linearGradient>
			<path style="fill:url(#SVGID_00000158734299353851199240000002885917836816289438_);" d="M1147.551,2050.753
				c0,0,9.529,17.004,28.18,12.618c16.703-3.925,12.084-46.403-0.049-52.633c-4.046-2.077-11.905-2.31-17.491,0.311
				c-3.927,1.846-15.137,12.806-11.163,27.065c-3.902-1.654-7.59-1.015-8.719,0.881c-1.434,2.406,1.577,6.272,2.258,7.148
				C1142.932,2049.181,1146.085,2050.327,1147.551,2050.753z"/>
			
				<linearGradient id="SVGID_00000090259906807156053590000004287388951918106299_" gradientUnits="userSpaceOnUse" x1="615.5954" y1="1965.946" x2="596.8913" y2="2308.4631">
				<stop  offset="0" style="stop-color:#FFC444"/>
				<stop  offset="0.9964" style="stop-color:#F36F56"/>
			</linearGradient>
			<path style="fill:url(#SVGID_00000090259906807156053590000004287388951918106299_);" d="M618.202,2095.845l-6.668-13.143
				c0,0,34.054-55.703,6.143-64.646c-27.912-8.945-20.044,6.985-16.879,14.585c3.165,7.599-1.933,32.377-6.781,39.947
				c-4.849,7.57,3.584,32.788,3.584,32.788L618.202,2095.845z"/>
			
				<linearGradient id="SVGID_00000177486806308654179400000012817330271255819139_" gradientUnits="userSpaceOnUse" x1="667.0519" y1="2426.6296" x2="1046.3323" y2="2426.6296">
				<stop  offset="0" style="stop-color:#AA80F9"/>
				<stop  offset="0.9964" style="stop-color:#6165D7"/>
			</linearGradient>
			<path style="opacity:0.3;fill:url(#SVGID_00000177486806308654179400000012817330271255819139_);" d="M859.422,2624.418
				c17.608-11.985,5.489-35.485,25.419-54.469c18.239-17.372,38.2-7.038,70.809-16.341c39.199-11.183,69.567-43.011,83.518-70.81
				c9.946-19.818,9.148-32.803,0-134.355c-8.712-96.711-11.177-120.331-23.603-123.461c-22.612-5.697-42.861,65.354-87.15,65.362
				c-25.014,0.005-28.404-22.66-59.915-34.497c-53.484-20.094-91.713,27.168-148.882,25.417
				c-14.613-0.447-32.338-4.255-52.567-15.632c82.388,79.498,215.105,96.867,322.697,60.85
				c-1.458,98.293,2.368,158.889-34.626,180.946c-26.103,15.561-48.75-2.181-87.248,21.928
				c-31.99,20.032-29.577,40.563-56.29,49.889c-40.324,14.074-78.204-21.41-89.092-9.078c-7.254,8.216,1.955,32.591,17.595,52.604
				c9.188-3.808,19.326-6.569,30.37-7.43C812.657,2612.052,838.646,2638.557,859.422,2624.418z"/>
			
				<linearGradient id="SVGID_00000152255893789943938060000017628829191691709615_" gradientUnits="userSpaceOnUse" x1="4932.1992" y1="2288.4778" x2="4875.019" y2="2413.9836" gradientTransform="matrix(0.9423 0.335 -0.335 0.9423 -2423.8223 -1921.8558)">
				<stop  offset="0" style="stop-color:#AB316D"/>
				<stop  offset="1" style="stop-color:#792D3D"/>
			</linearGradient>
			<path style="fill:url(#SVGID_00000152255893789943938060000017628829191691709615_);" d="M1361.466,1888.436l-4.979-12.937
				l12.915-12.778c2.881-2.851,7.273-3.5,10.859-1.61c18.989,10.008,76.286,45.591,93.371,117.937
				c0.897,3.798-0.678,7.757-3.94,9.898c-5.926,3.89-12.908,7.21-12.908,7.21L1361.466,1888.436z"/>
			
				<linearGradient id="SVGID_00000053534189864468681150000004021884297628200626_" gradientUnits="userSpaceOnUse" x1="4865.1958" y1="2473.1467" x2="4804.8325" y2="2605.6394" gradientTransform="matrix(0.9423 0.335 -0.335 0.9423 -2423.8223 -1921.8558)">
				<stop  offset="0" style="stop-color:#AB316D"/>
				<stop  offset="1" style="stop-color:#792D3D"/>
			</linearGradient>
			<path style="fill:url(#SVGID_00000053534189864468681150000004021884297628200626_);" d="M1297.239,2045.065l7.686,42.339
				c0,0,0.413,12.249,2.396,16.988c-4.825,6.353-16.908,9.392-16.908,9.392l-24.081-47.801l29.489-21.056L1297.239,2045.065z"/>
			
				<linearGradient id="SVGID_00000119799124478936116600000001478454983331555751_" gradientUnits="userSpaceOnUse" x1="1106.5328" y1="2322.8953" x2="1141.0203" y2="2352.2563" gradientTransform="matrix(0.962 0.2729 -0.2729 0.962 858.1024 -466.6242)">
				<stop  offset="0" style="stop-color:#FFC444"/>
				<stop  offset="0.9964" style="stop-color:#F36F56"/>
			</linearGradient>
			<path style="fill:url(#SVGID_00000119799124478936116600000001478454983331555751_);" d="M1324.417,2103.759l-6.875-17.206
				c0,0-6.287-13.592-24.02-15.91c-17.734-2.318-17.536,7.253-17.536,7.253l11.566,3.421c0,0,7.485,2.163,12.617,13.004
				c7.18,11.042,14.886,16.597,14.886,16.597L1324.417,2103.759z"/>
			
				<linearGradient id="SVGID_00000010268625135479461590000017009529556111230864_" gradientUnits="userSpaceOnUse" x1="-1470.3771" y1="280.1006" x2="-1707.1017" y2="627.2965" gradientTransform="matrix(0.8576 -0.5143 0.5143 0.8576 2467.0713 887.9007)">
				<stop  offset="0" style="stop-color:#444B8C"/>
				<stop  offset="0.9964" style="stop-color:#26264F"/>
			</linearGradient>
			<path style="fill:url(#SVGID_00000010268625135479461590000017009529556111230864_);" d="M1227.093,2053.601
				c0,0,107.591-103.067,129.395-178.103c76.501,21.108,100.298,120.657,100.298,120.657s-154.083,50.235-204.567,89.508
				C1234.156,2081.678,1227.093,2053.601,1227.093,2053.601z"/>
			
				<linearGradient id="SVGID_00000088855785508795123220000002062076362224371135_" gradientUnits="userSpaceOnUse" x1="-1408.2303" y1="346.2774" x2="-1339.9291" y2="346.2774" gradientTransform="matrix(0.8576 -0.5143 0.5143 0.8576 2467.0713 887.9007)">
				<stop  offset="0" style="stop-color:#AB316D"/>
				<stop  offset="1" style="stop-color:#792D3D"/>
			</linearGradient>
			<path style="fill:url(#SVGID_00000088855785508795123220000002062076362224371135_);" d="M1517.303,1991.269
				c-4.308-1.531-7.677-5.288-8.478-10.119c-22.119-133.146-115.102-154.347-116.009-154.542
				c-7.02-1.479-11.505-8.387-10.019-15.408c1.489-7.02,8.386-11.505,15.407-10.019c4.549,0.957,111.268,25.257,136.258,175.708
				c1.178,7.079-3.61,13.775-10.688,14.949C1521.522,1992.216,1519.309,1991.982,1517.303,1991.269z"/>
		</g>
		<g>
			
				<linearGradient id="SVGID_00000013897841905497906270000005535949654272208033_" gradientUnits="userSpaceOnUse" x1="2548.167" y1="2463.1985" x2="2615.3723" y2="2488.1604">
				<stop  offset="0" style="stop-color:#AB316D"/>
				<stop  offset="1" style="stop-color:#792D3D"/>
			</linearGradient>
			<path style="fill:url(#SVGID_00000013897841905497906270000005535949654272208033_);" d="M2907.197,2650.22
				c-3.914,0-7.258-2.976-7.637-6.951c-6.725-70.567-29.733-137.615-64.785-188.795c-31.052-45.341-68.019-72.397-98.906-72.397
				c-0.036,0-0.067,0-0.103,0c-112.501,0.219-136.034,258.511-136.258,261.121c-0.364,4.227-4.067,7.356-8.311,6.994
				c-4.226-0.364-7.357-4.084-6.994-8.309c0.964-11.227,25.051-274.92,151.533-275.168c0.045,0,0.091,0,0.135,0
				c36.495,0,77.154,28.813,111.578,79.078c36.497,53.292,60.435,122.905,67.403,196.016c0.402,4.223-2.695,7.973-6.917,8.376
				C2907.687,2650.209,2907.441,2650.22,2907.197,2650.22z"/>
			
				<linearGradient id="SVGID_00000094603664429746249580000014010784750299942074_" gradientUnits="userSpaceOnUse" x1="2359.9258" y1="2694.168" x2="2547.1306" y2="3008.0964">
				<stop  offset="0" style="stop-color:#FF9085"/>
				<stop  offset="1" style="stop-color:#FB6FBB"/>
			</linearGradient>
			<path style="fill:url(#SVGID_00000094603664429746249580000014010784750299942074_);" d="M2438.515,3181.807l148.095,74.978
				l89.73-275.354L2528.49,2612.28l-41.924,10.28l-63.612,530.167C2421.514,3164.728,2427.732,3176.347,2438.515,3181.807z"/>
			
				<linearGradient id="SVGID_00000014632367500008497730000000167584394095623811_" gradientUnits="userSpaceOnUse" x1="2388.8699" y1="2676.9075" x2="2576.075" y2="2990.8359">
				<stop  offset="0" style="stop-color:#FF9085"/>
				<stop  offset="1" style="stop-color:#FB6FBB"/>
			</linearGradient>
			<path style="opacity:0.52;fill:url(#SVGID_00000014632367500008497730000000167584394095623811_);" d="M2676.341,2981.431
				L2528.49,2612.28l-24.729,6.063c-3.429,49.287-1.922,89.852,0.407,119.386c9.912,125.684,42.828,160.659,26.882,248.339
				c-13.259,72.905-42.214,82.8-39.683,131.85c2.757,53.421,40.016,98.155,84.315,133.334l10.928,5.532L2676.341,2981.431z"/>
			
				<linearGradient id="SVGID_00000017482891808663613110000005018896437522296471_" gradientUnits="userSpaceOnUse" x1="2685.8164" y1="2820.6323" x2="3212.8699" y2="3226.7234">
				<stop  offset="0" style="stop-color:#FF9085"/>
				<stop  offset="1" style="stop-color:#FB6FBB"/>
			</linearGradient>
			<polygon style="fill:url(#SVGID_00000017482891808663613110000005018896437522296471_);" points="2528.49,2612.28 
				3080.678,2612.28 3263.426,3202.249 2586.61,3256.785 			"/>
			
				<linearGradient id="SVGID_00000040568603508275368090000016863371608731823503_" gradientUnits="userSpaceOnUse" x1="2789.3813" y1="2347.3767" x2="2843.1455" y2="2690.1233">
				<stop  offset="0" style="stop-color:#AB316D"/>
				<stop  offset="1" style="stop-color:#792D3D"/>
			</linearGradient>
			<path style="fill:url(#SVGID_00000040568603508275368090000016863371608731823503_);" d="M2699.549,2662.846
				c-3.486,0-6.641-2.389-7.471-5.929c-1.57-6.69-37.849-164.774,13.306-242.356c14.662-22.236,35.146-35.812,60.882-40.351
				c132.238-23.301,213.655,260.72,217.056,272.822c1.146,4.084-1.233,8.324-5.316,9.471c-4.088,1.152-8.325-1.234-9.472-5.316
				c-0.797-2.828-80.94-282.8-199.6-261.849c-21.716,3.829-38.308,14.845-50.726,33.677
				c-47.551,72.118-11.544,228.82-11.174,230.395c0.969,4.129-1.594,8.262-5.724,9.231
				C2700.72,2662.78,2700.129,2662.846,2699.549,2662.846z"/>
			<g style="opacity:0.3;">
				
					<linearGradient id="SVGID_00000118398274106023103540000008549076190851402387_" gradientUnits="userSpaceOnUse" x1="2692.6292" y1="2811.7888" x2="3219.6829" y2="3217.8801">
					<stop  offset="0" style="stop-color:#FF9085"/>
					<stop  offset="1" style="stop-color:#FB6FBB"/>
				</linearGradient>
				<path style="fill:url(#SVGID_00000118398274106023103540000008549076190851402387_);" d="M3080.677,2612.28h-273.936
					c-13.51,13.742-23.098,29.58-24.015,47.347c-4.305,83.472,187.589,110.894,206.096,225.297
					c13.35,82.528-68.796,177.751-142.091,220.177c-77.222,44.698-129.546,22.062-181.773,71.686
					c-22.948,21.803-36.922,49.068-45.231,77.33l643.699-51.866L3080.677,2612.28z"/>
			</g>
			
				<linearGradient id="SVGID_00000136408137911242976220000005749300582385673097_" gradientUnits="userSpaceOnUse" x1="2670.644" y1="2653.248" x2="2679.2969" y2="2656.4619">
				<stop  offset="0" style="stop-color:#AB316D"/>
				<stop  offset="1" style="stop-color:#792D3D"/>
			</linearGradient>
			
				<circle style="fill:url(#SVGID_00000136408137911242976220000005749300582385673097_);" cx="2699.603" cy="2664.004" r="21.465"/>
			
				<linearGradient id="SVGID_00000142146291961127785860000005229093030998691002_" gradientUnits="userSpaceOnUse" x1="2950.5737" y1="2651.2571" x2="2959.2266" y2="2654.4709">
				<stop  offset="0" style="stop-color:#AB316D"/>
				<stop  offset="1" style="stop-color:#792D3D"/>
			</linearGradient>
			
				<circle style="fill:url(#SVGID_00000142146291961127785860000005229093030998691002_);" cx="2979.533" cy="2662.013" r="21.465"/>
		</g>
	</g>
</g>
</svg>
