<?xml version="1.0" encoding="utf-8"?>
<!-- Generator: Adobe Illustrator 27.5.0, SVG Export Plug-In . SVG Version: 6.00 Build 0)  -->
<svg version="1.1" id="Capa_2" xmlns="http://www.w3.org/2000/svg" xmlns:xlink="http://www.w3.org/1999/xlink" x="0px" y="0px"
	 viewBox="0 0 2122 2122" style="enable-background:new 0 0 2122 2122;" xml:space="preserve">
<g>
	<path style="fill:#F29FC4;" d="M1832.47,587.188c-4.456-9.039-15.396-16.049-24.793-18.607
		c-12.401-3.375-26.286-3.962-38.605,0.123c-10.582,3.509-22.032,8.967-28.17,18.783c-11.671,18.666-24.836,36.297-39.392,52.797
		c-16.743,17.765-35.153,33.816-55.206,47.742c-13.843,8.792-28.31,16.487-43.385,22.94c-11.587,4.288-23.419,7.796-35.484,10.453
		c-3.607,0.563-7.221,1.05-10.845,1.446c17.509-17.848,30.19-40.926,37.668-64.678c15.917-50.549,13.406-107.165,2.736-158.516
		c-13.043-62.77-39.805-122.694-90.441-164.028c-39.44-32.196-94.177-46.205-144.405-40.184
		c-100.618,12.064-181.913,88.312-234.003,170.857c-21.343,33.821-38.954,69.547-54.032,106.373
		c-4.274-28.22-10.363-56.188-18.811-83.749c-31.332-102.232-94.964-204.86-194.847-251.563
		c-44.935-21.011-94.841-24.112-141.95-8.807c-43.087,13.998-81.56,43.505-110.487,77.944
		c-34.039,40.525-56.031,89.999-64.55,142.062c-8.845,54.053,1.824,113.306,28.062,161.312
		c15.672,28.674,34.897,53.615,60.01,74.656c7.504,6.287,15.625,11.958,24.134,17.049c-1.835,1.435-3.691,2.845-5.579,4.216
		c-6.408,3.938-13.032,7.454-19.889,10.537c-6.329,2.24-12.758,4.118-19.294,5.648c-7.289,1.093-14.614,1.779-21.978,2.065
		c-9.908-0.326-19.756-1.303-29.537-2.899c-13.682-3.056-27.057-7.206-40.1-12.337c-19.286-8.639-37.534-19.297-54.673-31.658
		c-24.718-19.252-46.63-41.764-65.683-66.629c-5.495-7.62-10.786-15.377-15.769-23.346c-12.707-20.323-41.527-25.736-63.397-18.484
		c-10.461,3.469-22.261,8.932-28.17,18.783c-4.767,7.947-7.871,18.614-2.47,27.253c39.617,63.359,95.372,119.182,164.312,149.91
		c26.79,11.941,54.956,21.262,83.925,25.89l-0.856,0.084c-2.446,0.239-4.841,0.485-7.173,0.741c-1.828,0.2-3.672,0.398-5.431,0.607
		v0.003c-41.146,4.913-63.667,12.562-75.82,24.464v-0.003l-0.08,0.089c-1.028,1.013-1.963,2.064-2.847,3.139l-0.713,0.904
		c-0.703,0.908-1.361,1.838-1.974,2.791l-0.498,0.762c-0.733,1.201-1.404,2.435-2.008,3.708l-0.296,0.679
		c-0.488,1.077-0.934,2.179-1.34,3.307l-0.384,1.1c-0.399,1.197-0.761,2.419-1.081,3.674l-0.146,0.534
		c-0.354,1.449-0.652,2.943-0.914,4.472l-0.171,1.1c-0.191,1.223-0.357,2.471-0.498,3.745l-0.136,1.248
		c-0.318,3.26-0.496,6.683-0.572,10.281c-0.01,0.473-0.016,0.956-0.022,1.436c-0.02,1.469-0.028,2.962-0.021,4.489l0.003,1.186
		c0.016,1.913,0.046,3.865,0.091,5.869l0.026,1.042c0.043,1.793,0.093,3.615,0.15,5.482c0.017,0.578,0.035,1.175,0.053,1.76
		c0.061,1.974,0.124,3.968,0.188,6.024c0.067,2.152,0.131,4.36,0.191,6.603c0.015,0.578,0.028,1.165,0.042,1.75
		c0.044,1.773,0.081,3.58,0.113,5.41c0.012,0.723,0.025,1.439,0.035,2.171c0.034,2.438,0.059,4.911,0.059,7.451v0.002
		c0,2.786-0.027,5.486-0.063,8.144c-0.369,27.123-2.209,47.628,2.308,63.106l0.002,0.072l0.24,0.716
		c0.242,0.781,0.495,1.554,0.772,2.308l0.432,1.112c0.285,0.719,0.585,1.428,0.906,2.124l0.536,1.109
		c0.335,0.67,0.689,1.331,1.062,1.979l0.632,1.063c0.395,0.638,0.814,1.264,1.249,1.88l0.722,1c0.463,0.613,0.957,1.21,1.465,1.801
		l0.8,0.92c0.546,0.596,1.13,1.174,1.725,1.747l0.859,0.826c0.652,0.592,1.352,1.165,2.062,1.734l0.853,0.691
		c0.821,0.624,1.697,1.227,2.595,1.821l0.571,0.401l-0.001-0.01c10.75,6.915,27.031,11.859,51.443,15.388
		c-7.566,65.468-6.407,154.222-5.677,274.404c0.036,5.915,0.071,11.899,0.104,17.962c0.016,2.853,0.029,5.768,0.042,8.654
		c0.024,4.75,0.047,9.499,0.067,14.342c0.02,4.79,0.033,9.692,0.048,14.575c0.01,3.246,0.023,6.439,0.03,9.728
		c0.02,8.358,0.031,16.836,0.031,25.473c0,8.081-0.011,15.99-0.026,23.819c-0.004,2.112-0.009,4.206-0.014,6.301
		c-0.015,6.716-0.035,13.347-0.059,19.879c-0.003,0.87-0.006,1.756-0.009,2.622c-0.026,6.877-0.056,13.622-0.088,20.299
		c-0.026,5.461-0.053,10.863-0.081,16.192l-0.006,1.236c-0.081,15.404-0.164,30.203-0.233,44.526
		c-0.005,1.158-0.013,2.362-0.018,3.513h0.001c-0.678,145.053,0.433,235.178,23.893,290.996v0.084l0.346,0.762
		c1.052,2.463,2.135,4.878,3.277,7.209l0.028,0.057c1.265,2.576,2.586,5.071,3.966,7.489l0.011,0.02
		c2.768,4.851,5.78,9.391,9.043,13.635l0.002,0.002c14.477,18.828,34.021,31.895,60.343,40.879l0.013,0.004
		c4.756,1.623,9.711,3.128,14.922,4.497l0.104,0.029v0c13.195,3.459,27.883,6.135,44.214,8.19l0.002,0
		c4.854,0.61,9.832,1.175,14.984,1.681l0-0.021c16.498,1.622,34.516,2.734,54.234,3.463v0l0.025,0.001
		c4.69,0.173,9.513,0.318,14.398,0.451c0.757,0.021,1.47,0.051,2.232,0.07v-0.013c21.245,0.548,44.307,0.749,69.347,0.741v0.004
		c0.469,0,0.961-0.002,1.432-0.003c4.985-0.003,10.034-0.013,15.175-0.03h0.029c14.709-0.05,30.026-0.148,46.059-0.278l0.371-0.003
		c5.208-0.042,10.528-0.087,15.881-0.134l0.381-0.003c20.59-0.18,42.251-0.378,65.033-0.552c7.102-0.054,14.324-0.105,21.636-0.152
		c1.507-0.01,3.047-0.018,4.563-0.027c6.126-0.038,12.304-0.073,18.583-0.102c3.571-0.017,7.235-0.028,10.856-0.042
		c1.891-0.007,3.789-0.014,5.695-0.02c4.659-0.016,9.352-0.027,14.094-0.037c6.646-0.013,13.284-0.028,20.096-0.028h0.004
		c8.23,0,16.291,0.014,24.279,0.033v0c5.053,0.011,9.995,0.031,14.953,0.049v-0.001c3.28,0.013,6.581,0.024,9.819,0.038
		c4.396,0.021,8.756,0.042,13.077,0.066c2.884,0.016,5.748,0.033,8.599,0.05c5.45,0.034,10.89,0.069,16.223,0.107v0
		c39.511,0.284,75.768,0.673,108.892,0.897l0.183,0.001v0c16.091,0.109,31.388,0.169,46.069,0.166v0l0.171,0
		c5.579,0,11.081-0.011,16.463-0.036v-0.001c17.136-0.073,33.322-0.266,48.514-0.643l0.371-0.011
		c5.543-0.14,10.956-0.303,16.254-0.493l0.028-0.001c22.175-0.794,42.158-2.079,60.26-4.015v0.014
		c0.48-0.051,0.918-0.117,1.396-0.17c4.665-0.51,9.238-1.053,13.652-1.656l0.005,0c16.379-2.237,30.944-5.203,44.049-8.961
		l0.002,0.08c2.475-0.708,4.892-1.45,7.262-2.219l0.869-0.288c2.291-0.755,4.542-1.532,6.728-2.349h0.001
		c23.468-8.771,41.136-21.207,54.522-38.482v0.179c0.753-0.97,1.446-2.011,2.173-3.013c0.608-0.838,1.23-1.661,1.818-2.521
		c1.753-2.559,3.447-5.188,5.038-7.949l0.01-0.017c1.377-2.39,2.694-4.857,3.956-7.404l0.044-0.092
		c1.097-2.222,2.136-4.527,3.149-6.871l0.447-0.975v-0.079c23.285-54.97,24.386-143.637,23.627-286.337
		c-0.034-6.524-0.073-13.199-0.114-19.95c-0.031-5.216-0.063-10.492-0.095-15.847c-0.02-3.235-0.04-6.514-0.059-9.8
		c-0.037-6.171-0.072-12.426-0.107-18.779c-0.008-1.488-0.016-2.948-0.024-4.446c-0.036-6.834-0.068-13.799-0.098-20.844
		c-0.01-2.278-0.018-4.595-0.027-6.896c-0.02-5.387-0.037-10.833-0.052-16.343c-0.007-2.574-0.014-5.142-0.019-7.744
		c-0.015-7.416-0.025-14.916-0.026-22.556l-0.001-1.1c0-2.909,0.007-5.71,0.009-8.588c0.004-5.789,0.006-11.6,0.018-17.264
		c0.008-4.152,0.022-8.178,0.034-12.264c0.012-4.291,0.021-8.634,0.036-12.853c0.017-4.897,0.038-9.668,0.058-14.469
		c0.014-3.239,0.026-6.53,0.041-9.726c0.032-7.159,0.066-14.214,0.101-21.162c0.582-117.136,1.172-204.01-6.771-268.426
		c12.602-1.742,23.071-3.845,31.753-6.38v0.001l0.036-0.011l1.25-0.392c1.221-0.371,2.434-0.743,3.583-1.133
		c0.701-0.237,1.352-0.488,2.026-0.732c0.807-0.292,1.626-0.581,2.396-0.884c0.743-0.291,1.442-0.596,2.152-0.896
		c0.64-0.271,1.289-0.54,1.903-0.819c0.717-0.326,1.398-0.664,2.08-1l1.14-0.548l0-0.026c31.874-16.508,23.981-45.78,23.981-97.498
		c0-51.902,7.234-82.341-25.898-100.196l0-0.034l-1.147-0.577c-0.622-0.321-1.247-0.641-1.897-0.953
		c-0.695-0.334-1.421-0.659-2.148-0.984c-0.67-0.299-1.332-0.6-2.029-0.892c-0.785-0.328-1.611-0.644-2.433-0.963
		c-0.7-0.271-1.383-0.548-2.111-0.812c-0.948-0.345-1.95-0.675-2.944-1.008c-0.661-0.222-1.292-0.45-1.974-0.666l-0.081-0.027v0.003
		c-12.016-3.801-27.344-6.811-46.774-9.202v-0.009l-0.802-0.093c-1.523-0.185-3.1-0.362-4.673-0.54
		c-1.347-0.152-2.698-0.304-4.083-0.451c-0.609-0.065-1.178-0.134-1.794-0.198c58.006-8.26,113.806-33.802,160.511-69.443
		c38.182-29.136,70.852-66.5,96.273-107.155C1835.189,606.142,1836.957,596.291,1832.47,587.188z M1466.208,785.234
		c-7.291-0.191-14.841-0.363-22.647-0.519v-0.003c-1.547-0.031-3.17-0.057-4.737-0.087c-3.202-0.061-6.392-0.123-9.683-0.179
		l-0.559-0.01v0.001c-15.496-0.26-31.96-0.466-49.454-0.629v0l-0.377-0.003c-3.175-0.029-6.452-0.054-9.697-0.081
		c-2.202-0.018-4.348-0.038-6.581-0.055v0.003c-21.057-0.158-43.476-0.263-67.451-0.331c22.253-2.753,44.665-4.192,67.096-4.102
		c15.265,0.061,30.444,1.615,45.688,1.826c12.471,0.172,25.106-0.77,37.596-2.711
		C1452.153,780.999,1459.073,783.328,1466.208,785.234z M1301.253,686.837c-47.936,2.901-95.789,12.093-141.63,26.475
		c10.153-17.759,21.628-34.732,35.037-50.18c8.464-8.752,17.598-16.761,27.49-23.86c4.835-2.942,9.797-5.64,14.918-8.044
		c3.502-1.226,7.053-2.296,10.648-3.214c1.748-0.21,3.508-0.356,5.264-0.482c1.474,0.11,2.949,0.243,4.417,0.417
		c2.972,0.792,5.91,1.71,8.8,2.76c5.717,2.857,11.193,6.126,16.462,9.742c17.022,13.453,31.851,29.301,46.348,45.458
		C1319.749,685.976,1310.492,686.278,1301.253,686.837z M1161.069,584.222c28.446-53.496,65.042-102.903,111.961-141.603
		c31.011-24.191,66.106-43.103,104.623-51.877c22.806-4.096,46.026-4.235,68.831-0.082c13.036,3.135,25.595,7.693,37.533,13.777
		c5.574,3.359,10.971,6.985,16.056,11.059c0.953,0.889,2.029,1.727,2.886,2.578c2.766,2.749,5.391,5.636,7.93,8.595
		c0.447,0.603,0.901,1.201,1.336,1.815c2.158,3.047,4.174,6.191,6.125,9.375c0.413,0.787,0.829,1.572,1.226,2.367
		c1.891,3.789,3.66,7.639,5.313,11.538l0.48,1.176c1.325,3.784,2.572,7.595,3.715,11.438c1.226,4.117,2.352,8.263,3.385,12.433
		c0.327,1.32,0.632,2.644,0.941,3.968c3.142,16.247,5.187,32.741,6.088,49.262l0.039,0.806c0.028,1.541,0.063,3.081,0.065,4.623
		c0.009,4.786-0.101,9.574-0.341,14.355c-0.431,8.621-1.433,17.186-2.802,25.702c-2.927,13.48-7.239,26.536-13.304,38.937
		c-8.048,13.849-18.281,25.997-30.421,36.452c-14.956,11.4-31.628,20.313-49.268,26.686c-14.933-15.134-28.721-31.481-43.158-47.022
		c-26.082-28.077-55.591-53.5-92.521-65.795c-46.571-15.505-100.747-6.004-142.015,19.505c-2.452,1.516-4.77,3.182-7.154,4.774
		C1159.428,587.445,1160.246,585.833,1161.069,584.222z M640.906,607.451c-0.859-0.822-1.728-1.633-2.597-2.443
		c-2.039-1.712-5.091-4.791-1.892-1.813c-3.126-3.065-6.134-6.258-8.99-9.576l-0.04-0.048c-0.435-0.578-0.878-1.149-1.3-1.737
		c-2.297-3.199-4.457-6.493-6.526-9.843c-0.453-0.868-0.921-1.729-1.357-2.607c-1.665-3.359-3.187-6.785-4.643-10.24
		c-0.289-0.838-0.586-1.673-0.86-2.517c-1.403-4.324-2.651-8.699-3.742-13.113l-0.035-0.146l-0.232-1.231
		c-0.778-4.48-1.397-8.988-1.858-13.511c-0.197-1.937-0.365-3.877-0.503-5.819l-0.058-0.944c0.046-3.498-0.025-7.001,0.121-10.5
		c0.354-8.526,1.299-16.999,2.647-25.417c4.524-21.537,11.965-42.247,21.765-61.945c16.532-30.393,38.262-57.582,64.858-79.753
		c24.275-18.739,51.839-32.959,81.816-39.798c19.404-3.341,38.986-3.296,58.372,0.225c15.198,3.704,29.764,9.318,43.666,16.47
		c11.961,7.011,22.875,15.123,33.699,23.674c1.049,0.9,5.74,4.777,7.358,6.337c2.937,2.832,5.811,5.728,8.628,8.68
		c5.467,5.727,10.629,11.706,15.689,17.788c0.587,0.769,1.179,1.536,1.758,2.312c2.444,3.274,4.827,6.594,7.151,9.954
		c4.932,7.131,9.585,14.454,13.983,21.926c0.256,0.467,0.515,0.932,0.767,1.402c1.939,3.614,3.819,7.259,5.642,10.932
		c3.96,7.977,7.653,16.086,11.083,24.304c1.323,3.168,2.551,6.372,3.855,9.547c-1.843-4.489-2.85-6.949-3.305-8.065
		c0.764,1.885,2.785,6.91,3.583,9.168c2.978,8.434,5.709,16.956,8.201,25.547c2.301,7.932,4.4,15.923,6.304,23.96
		c0.959,4.047,3.964,19.582,0.595,2.118c0.91,4.719,1.89,9.421,2.741,14.152c3.377,18.791,5.785,37.753,7.433,56.771
		c0.84,9.694,1.48,19.405,1.945,29.125c0.105,2.183,0.19,4.366,0.284,6.549c0.042,1.815,0.062,3.631,0.101,5.446
		c-5.674-6.7-11.627-13.135-17.951-19.157c-30.604-29.149-68.394-49.341-110.485-55.054c-44.083-5.983-86.241,8.699-121.734,33.984
		c-18.84,13.42-35.021,30.222-50.565,47.531c-19.969-4.817-39.442-11.438-57.687-20.945c-6.976-4.177-13.699-8.748-20.008-13.898
		C639.255,605.873,639.998,606.582,640.906,607.451z M943.675,688.321c-4.948-2.702-9.995-5.267-15.175-7.641
		c-34.303-15.72-72.029-22.152-109.477-26.651c6.971-6.596,14.288-12.803,22.068-18.44c3.563-2.151,7.218-4.127,10.969-5.925
		c1.98-0.661,3.981-1.266,5.995-1.807c1.214-0.137,2.437-0.231,3.656-0.323c2.478,0.173,4.953,0.437,7.415,0.777
		c3.616,0.959,7.184,2.065,10.704,3.336c7.926,3.747,15.478,8.151,22.692,13.127c14.342,11.383,26.885,24.611,38.034,39.123
		C941.6,685.368,942.655,686.833,943.675,688.321z M709.265,759.028c11.987-7.787,23.046-16.272,33.558-25.547
		c36.47,7.378,73.917,10.003,110.798,14.797c12.208,1.587,24.359,3.542,36.428,5.962c20.644,4.76,40.652,11.445,59.49,21.192
		c4.176,2.457,8.284,5.022,12.256,7.803c-4.362-0.001-8.716-0.003-13.008-0.004c-2.698,0-5.476-0.002-8.147-0.002
		c-26.207-0.006-51.042-0.005-74.619,0.015v-0.001c-0.894,0.001-1.756,0.002-2.646,0.003c-3.903,0.003-7.772,0.007-11.605,0.012
		c-0.797,0.001-1.62,0.001-2.415,0.003v0.001c-13.784,0.017-27.057,0.044-39.949,0.08v-0.004c-1.579,0.005-3.099,0.01-4.663,0.015
		c-4.046,0.012-8.095,0.024-12.059,0.038v0.001c-16.294,0.059-31.832,0.14-46.688,0.245v-0.003c-1.073,0.008-2.094,0.017-3.16,0.025
		c-4.549,0.033-9.073,0.068-13.494,0.107v0.001c-20.886,0.183-40.304,0.427-58.355,0.749v-0.002
		c-1.659,0.029-3.236,0.064-4.874,0.095c-3.389,0.064-6.798,0.127-10.087,0.197l-0.199,0.004v0
		c-2.102,0.045-4.115,0.095-6.178,0.143C670.631,779.407,690.8,771.022,709.265,759.028z"/>
	<path style="fill:#ED6C35;" d="M1832.47,587.188c-4.456-9.039-15.395-16.049-24.793-18.607
		c-12.401-3.375-26.286-3.962-38.605,0.123c-10.582,3.509-22.031,8.967-28.17,18.783c-11.671,18.666-24.836,36.297-39.392,52.797
		c-16.743,17.765-35.153,33.816-55.206,47.742c-13.842,8.792-28.31,16.487-43.385,22.94c-11.587,4.288-23.418,7.795-35.484,10.452
		c-3.607,0.564-7.221,1.05-10.844,1.446c17.509-17.848,30.189-40.927,37.668-64.678c15.917-50.549,13.406-107.165,2.736-158.516
		c-13.043-62.77-39.806-122.694-90.441-164.029c-39.44-32.196-94.177-46.205-144.405-40.183
		c-100.618,12.064-181.913,88.312-234.003,170.857c-21.343,33.821-38.954,69.547-54.032,106.373
		c-4.274-28.22-10.363-56.188-18.81-83.749c-31.333-102.232-94.965-204.86-194.847-251.563
		c-44.935-21.012-94.841-24.112-141.95-8.807c-43.087,13.998-81.561,43.505-110.487,77.944
		c-34.039,40.525-56.031,89.999-64.551,142.062c-8.845,54.053,1.824,113.306,28.063,161.312
		c15.672,28.674,34.897,53.615,60.01,74.656c7.504,6.287,15.625,11.958,24.134,17.049c-1.835,1.435-3.691,2.845-5.579,4.216
		c-6.408,3.938-13.032,7.454-19.889,10.536c-6.329,2.24-12.758,4.118-19.294,5.648c-7.289,1.093-14.614,1.779-21.977,2.065
		c-9.909-0.326-19.756-1.304-29.538-2.899c-13.682-3.056-27.057-7.206-40.099-12.337c-19.287-8.639-37.533-19.297-54.673-31.659
		c-24.719-19.252-46.631-41.764-65.683-66.629c-5.495-7.62-10.786-15.377-15.769-23.346c-12.707-20.323-41.527-25.736-63.397-18.484
		c-10.462,3.469-22.261,8.932-28.171,18.783c-4.767,7.947-7.871,18.614-2.47,27.253c39.617,63.36,95.372,119.183,164.312,149.911
		c26.791,11.941,54.956,21.262,83.925,25.89c1.072-0.103,2.1-0.212,3.194-0.313v0.004c14.462-1.332,30.907-2.411,49.515-3.287
		v-0.007c0.871-0.041,1.812-0.076,2.692-0.116c3.273-0.149,6.599-0.293,10.007-0.43c0.768-0.031,1.48-0.066,2.256-0.097v0.009
		c13.744-0.537,28.591-0.984,44.614-1.352c20.981-5.545,41.149-13.929,59.614-25.924c11.987-7.787,23.046-16.273,33.558-25.547
		c36.471,7.378,73.917,10.003,110.798,14.797c12.209,1.587,24.359,3.542,36.428,5.962c20.644,4.76,40.653,11.445,59.49,21.192
		c4.176,2.457,8.284,5.022,12.256,7.802c28.37,0.008,58.251,0.021,89.738,0.021c58.885,0,112.116-0.04,160.433-0.025v0
		c0.581,0,1.141,0,1.72,0c4.187,0.002,8.362,0.003,12.474,0.005c0.836,0.001,1.696,0.001,2.53,0.002v0
		c16.413,0.01,32.236,0.029,47.468,0.059c3.053,0.006,6.14,0.011,9.15,0.018v0.002c3.242,0.008,6.527,0.015,9.716,0.023
		c22.253-2.753,44.665-4.192,67.096-4.102c15.265,0.061,30.444,1.615,45.689,1.826c12.471,0.172,25.106-0.77,37.596-2.711
		c6.75,2.647,13.669,4.975,20.805,6.881c9.839,0.257,19.231,0.545,28.169,0.871v-0.003c0.741,0.027,1.426,0.059,2.162,0.086
		c4.002,0.15,7.937,0.305,11.763,0.47l1.224,0.049v0.006c22.324,0.977,41.653,2.228,58.387,3.819v-0.015
		c0.882,0.084,1.706,0.175,2.574,0.261c0.898,0.089,1.846,0.171,2.729,0.262c58.006-8.26,113.806-33.802,160.511-69.443
		c38.181-29.137,70.852-66.5,96.272-107.155C1835.189,606.142,1836.957,596.291,1832.47,587.188z M640.906,607.451
		c-0.859-0.822-1.728-1.633-2.597-2.443c-2.039-1.712-5.091-4.791-1.892-1.813c-3.126-3.065-6.134-6.258-8.989-9.576l-0.041-0.048
		c-0.435-0.578-0.878-1.149-1.3-1.737c-2.297-3.199-4.457-6.493-6.526-9.843c-0.453-0.869-0.921-1.729-1.357-2.607
		c-1.665-3.359-3.187-6.786-4.643-10.24c-0.289-0.838-0.586-1.673-0.859-2.517c-1.403-4.324-2.651-8.699-3.742-13.113l-0.035-0.146
		l-0.233-1.231c-0.777-4.48-1.397-8.988-1.858-13.511c-0.197-1.937-0.365-3.877-0.503-5.819l-0.058-0.944
		c0.046-3.498-0.025-7.001,0.121-10.5c0.354-8.526,1.299-16.999,2.647-25.417c4.524-21.537,11.965-42.247,21.765-61.945
		c16.532-30.393,38.262-57.582,64.858-79.754c24.275-18.738,51.839-32.959,81.817-39.797c19.404-3.341,38.985-3.297,58.371,0.225
		c15.198,3.704,29.765,9.318,43.666,16.47c11.962,7.011,22.875,15.124,33.699,23.675c1.05,0.9,5.74,4.777,7.358,6.337
		c2.937,2.832,5.811,5.728,8.628,8.68c5.467,5.727,10.628,11.706,15.689,17.788c0.588,0.769,1.179,1.536,1.759,2.312
		c2.444,3.274,4.827,6.594,7.151,9.954c4.932,7.131,9.585,14.454,13.983,21.926c0.256,0.467,0.514,0.932,0.766,1.402
		c1.939,3.614,3.819,7.259,5.643,10.932c3.96,7.977,7.652,16.087,11.083,24.304c1.323,3.168,2.551,6.373,3.855,9.547
		c-1.844-4.489-2.85-6.949-3.305-8.065c0.763,1.885,2.785,6.91,3.583,9.168c2.978,8.434,5.709,16.956,8.201,25.547
		c2.301,7.932,4.4,15.923,6.304,23.959c0.959,4.047,3.964,19.582,0.596,2.119c0.909,4.719,1.89,9.421,2.74,14.152
		c3.377,18.791,5.786,37.753,7.434,56.771c0.84,9.694,1.479,19.405,1.945,29.125c0.104,2.183,0.19,4.366,0.284,6.549
		c0.041,1.815,0.062,3.632,0.1,5.447c-5.674-6.7-11.627-13.135-17.95-19.157c-30.604-29.149-68.394-49.341-110.485-55.054
		c-44.083-5.983-86.241,8.699-121.734,33.984c-18.84,13.42-35.021,30.222-50.564,47.531c-19.97-4.817-39.442-11.438-57.687-20.945
		c-6.977-4.177-13.7-8.749-20.008-13.898C639.255,605.873,639.998,606.582,640.906,607.451z M928.5,680.68
		c-34.303-15.72-72.029-22.152-109.477-26.651c6.971-6.596,14.288-12.804,22.068-18.44c3.564-2.151,7.218-4.126,10.969-5.925
		c1.98-0.661,3.981-1.266,5.996-1.807c1.214-0.137,2.437-0.231,3.655-0.323c2.479,0.173,4.953,0.437,7.415,0.777
		c3.616,0.958,7.183,2.065,10.703,3.336c7.926,3.747,15.478,8.151,22.692,13.126c14.342,11.383,26.885,24.612,38.034,39.123
		c1.044,1.473,2.099,2.938,3.119,4.426C938.728,685.619,933.68,683.054,928.5,680.68z M1301.253,686.837
		c-47.936,2.901-95.789,12.093-141.629,26.475c10.152-17.759,21.628-34.732,35.036-50.18c8.464-8.752,17.598-16.761,27.49-23.86
		c4.835-2.942,9.797-5.64,14.918-8.043c3.502-1.226,7.053-2.296,10.648-3.214c1.748-0.21,3.508-0.357,5.265-0.482
		c1.474,0.11,2.949,0.243,4.417,0.417c2.973,0.792,5.91,1.709,8.8,2.76c5.717,2.857,11.193,6.126,16.462,9.742
		c17.022,13.453,31.851,29.301,46.348,45.458C1319.749,685.976,1310.492,686.278,1301.253,686.837z M1443.465,677.601
		c-14.932-15.134-28.721-31.481-43.158-47.023c-26.082-28.077-55.591-53.499-92.521-65.795
		c-46.57-15.506-100.747-6.004-142.015,19.505c-2.452,1.516-4.77,3.182-7.154,4.774c0.81-1.617,1.628-3.229,2.452-4.84
		c28.447-53.496,65.042-102.903,111.961-141.603c31.011-24.191,66.106-43.103,104.623-51.877
		c22.806-4.096,46.025-4.235,68.831-0.082c13.036,3.134,25.594,7.693,37.533,13.777c5.574,3.359,10.971,6.985,16.055,11.059
		c0.953,0.89,2.029,1.727,2.887,2.579c2.766,2.749,5.391,5.636,7.93,8.595c0.447,0.603,0.901,1.201,1.336,1.815
		c2.158,3.047,4.174,6.191,6.125,9.375c0.413,0.787,0.829,1.572,1.226,2.367c1.891,3.789,3.661,7.639,5.313,11.537l0.48,1.176
		c1.325,3.784,2.572,7.595,3.715,11.438c1.225,4.117,2.351,8.263,3.384,12.433c0.327,1.32,0.632,2.644,0.941,3.968
		c3.142,16.247,5.187,32.741,6.088,49.261l0.039,0.807c0.028,1.541,0.063,3.081,0.066,4.623c0.008,4.786-0.101,9.573-0.341,14.355
		c-0.432,8.621-1.434,17.186-2.803,25.702c-2.927,13.48-7.239,26.536-13.304,38.937c-8.049,13.85-18.281,25.998-30.422,36.453
		C1477.777,662.315,1461.106,671.228,1443.465,677.601z"/>
	<path style="fill:#F7BFD9;" d="M1674.003,908.643c0-51.902,7.234-82.341-25.898-100.196v-0.034l-1.147-0.577
		c-0.622-0.321-1.247-0.641-1.897-0.953c-0.695-0.334-1.421-0.659-2.148-0.984c-0.669-0.299-1.332-0.6-2.029-0.892
		c-0.785-0.328-1.611-0.644-2.433-0.963c-0.7-0.271-1.383-0.548-2.111-0.812c-0.947-0.345-1.95-0.675-2.944-1.008
		c-0.661-0.222-1.292-0.45-1.974-0.667l-0.081-0.027v0.004c-12.015-3.801-27.344-6.811-46.774-9.202v-0.01l-0.803-0.092
		c-1.523-0.185-3.1-0.362-4.672-0.54c-1.348-0.152-2.699-0.304-4.083-0.451c-1.48-0.157-2.999-0.309-4.523-0.46
		c-0.868-0.086-1.692-0.178-2.574-0.261v0.015c-16.734-1.591-36.063-2.842-58.387-3.819v-0.006l-1.224-0.049
		c-3.826-0.165-7.76-0.32-11.763-0.47c-0.736-0.027-1.42-0.059-2.162-0.086v0.003c-8.938-0.325-18.33-0.614-28.169-0.871
		c-7.291-0.191-14.841-0.363-22.648-0.52v-0.003c-1.547-0.031-3.17-0.057-4.737-0.087c-3.202-0.06-6.392-0.123-9.683-0.178
		l-0.559-0.01v0.001c-15.496-0.26-31.96-0.466-49.454-0.629v0l-0.376-0.003c-3.176-0.029-6.452-0.054-9.698-0.081
		c-2.202-0.018-4.348-0.038-6.581-0.055v0.003c-21.056-0.158-43.476-0.264-67.451-0.331c-3.189-0.009-6.474-0.016-9.716-0.023
		v-0.002c-3.01-0.007-6.097-0.012-9.15-0.018c-2.508-0.005-4.975-0.011-7.517-0.015v0.003c-12.935-0.022-26.187-0.038-39.951-0.047
		v0c-0.833-0.001-1.694-0.001-2.53-0.002c-4.123-0.002-8.274-0.004-12.474-0.005c-0.579,0-1.139,0-1.72,0v0
		c-14.82-0.005-30.162-0.004-45.929-0.001v0h-0.757c-5.49,0.001-11.046,0.003-16.654,0.004c-3.835,0.001-7.72,0.003-11.61,0.004
		c-11.63,0.003-23.551,0.008-35.69,0.01c-3.544,0.001-7.111,0.002-10.7,0.003c-5.127,0.001-10.28,0.003-15.499,0.003
		c-2.309,0-4.679,0-7.002,0c-5.496,0.001-10.995,0.002-16.593,0.002c-15.722,0-31.045-0.003-45.978-0.007h-0.147
		c-5.686-0.001-11.264-0.003-16.838-0.005c-13.573-0.004-26.857-0.008-39.783-0.012c-2.698,0-5.476-0.002-8.147-0.002
		c-26.207-0.006-51.042-0.005-74.619,0.015v-0.001c-0.894,0.001-1.756,0.002-2.646,0.003c-3.903,0.004-7.772,0.007-11.605,0.012
		c-0.797,0.001-1.62,0.001-2.415,0.003v0.001c-13.784,0.017-27.057,0.044-39.949,0.08v-0.004c-1.579,0.005-3.099,0.01-4.663,0.015
		c-4.045,0.012-8.095,0.024-12.059,0.038v0.001c-16.294,0.059-31.832,0.14-46.687,0.244v-0.003c-1.074,0.008-2.094,0.017-3.16,0.025
		c-4.549,0.033-9.073,0.068-13.494,0.107v0.001c-20.886,0.183-40.305,0.427-58.356,0.749v-0.002
		c-1.659,0.029-3.236,0.064-4.873,0.095c-3.39,0.064-6.798,0.127-10.087,0.197l-0.199,0.004v0c-2.102,0.045-4.116,0.095-6.179,0.143
		c-16.023,0.368-30.87,0.814-44.614,1.352v-0.009c-0.775,0.03-1.488,0.066-2.256,0.097c-3.407,0.138-6.736,0.281-10.007,0.43
		c-0.88,0.04-1.821,0.075-2.692,0.116v0.007c-18.608,0.876-35.052,1.955-49.515,3.287v-0.004c-1.094,0.101-2.122,0.21-3.194,0.313
		l-0.856,0.084c-2.446,0.239-4.841,0.486-7.173,0.741c-1.828,0.2-3.672,0.398-5.431,0.608v0.003
		c-41.146,4.913-63.667,12.562-75.82,24.464v-0.003l-0.081,0.089c-1.028,1.013-1.963,2.064-2.847,3.139l-0.713,0.904
		c-0.703,0.908-1.361,1.838-1.973,2.791l-0.499,0.762c-0.733,1.201-1.404,2.435-2.008,3.708l-0.296,0.679
		c-0.488,1.077-0.934,2.179-1.34,3.307l-0.384,1.101c-0.399,1.196-0.761,2.419-1.081,3.674l-0.146,0.533
		c-0.354,1.45-0.653,2.944-0.915,4.472l-0.17,1.101c-0.191,1.223-0.357,2.471-0.498,3.745l-0.136,1.248
		c-0.318,3.26-0.495,6.683-0.571,10.281c-0.01,0.473-0.017,0.956-0.023,1.436c-0.02,1.468-0.028,2.962-0.021,4.488l0.003,1.186
		c0.016,1.913,0.046,3.865,0.091,5.869l0.026,1.041c0.043,1.794,0.093,3.615,0.15,5.482c0.017,0.578,0.035,1.175,0.053,1.76
		c0.061,1.975,0.124,3.968,0.188,6.025c0.067,2.152,0.131,4.36,0.191,6.602c0.016,0.578,0.028,1.165,0.042,1.75
		c0.044,1.773,0.081,3.58,0.113,5.41c0.012,0.723,0.025,1.439,0.035,2.171c0.033,2.438,0.058,4.911,0.058,7.451v0.002
		c0,2.786-0.027,5.486-0.063,8.144c-0.369,27.122-2.21,47.628,2.308,63.106l0.002,0.072l0.24,0.716
		c0.242,0.781,0.495,1.554,0.772,2.308l0.432,1.111c0.285,0.719,0.586,1.429,0.907,2.124l0.536,1.108
		c0.335,0.671,0.69,1.331,1.062,1.98l0.632,1.063c0.395,0.638,0.813,1.263,1.248,1.88l0.722,1c0.463,0.613,0.958,1.21,1.465,1.801
		l0.8,0.92c0.546,0.596,1.13,1.174,1.725,1.747l0.859,0.826c0.652,0.592,1.352,1.165,2.062,1.734l0.853,0.691
		c0.821,0.624,1.697,1.227,2.595,1.821l0.571,0.401l-0.001-0.01c10.75,6.916,27.031,11.86,51.444,15.389
		c5.435,0.786,11.26,1.504,17.534,2.155v0.008h0.001l0.691,0.067c1.521,0.156,3.101,0.303,4.672,0.452
		c1.303,0.123,2.6,0.248,3.938,0.366c1.561,0.138,3.167,0.269,4.778,0.401c0.868,0.071,1.692,0.147,2.575,0.216h0.001v-0.012
		c15.797,1.233,33.933,2.167,54.721,2.868l0.022,0.001v0.009c0.895,0.03,1.862,0.054,2.767,0.083c3.071,0.1,6.201,0.194,9.387,0.283
		c0.97,0.027,1.877,0.06,2.858,0.086l0-0.007l0.02,0.001c13.463,0.364,27.956,0.649,43.541,0.868l0.014,0v0.005
		c0.989,0.014,2.034,0.025,3.03,0.038c2.664,0.036,5.37,0.069,8.096,0.101c1.33,0.016,2.602,0.035,3.947,0.05v-0.005h0.001
		c18.638,0.207,38.682,0.338,60.378,0.412v0.001h0.001l0.635,0.002c2.365,0.008,4.813,0.012,7.218,0.019
		c2.932,0.008,5.817,0.017,8.802,0.024v-0.001h0c15.53,0.033,31.807,0.044,48.914,0.038h0.022v0
		c5.473-0.001,11.027-0.005,16.667-0.01v0h0.001c14.977-0.012,30.548-0.035,46.731-0.061h0.015l0.555-0.001
		c2.294-0.004,4.643-0.008,6.959-0.012c3.067-0.005,6.103-0.01,9.216-0.016v0c18.396-0.033,37.527-0.069,57.484-0.102
		c1.07-0.001,2.106-0.003,3.181-0.005c2.025-0.003,4.065-0.007,6.107-0.01c0.799-0.001,1.588-0.002,2.389-0.003
		c4.139-0.006,8.32-0.013,12.526-0.019c2.239-0.003,4.47-0.006,6.727-0.01c2.268-0.003,4.565-0.006,6.853-0.009
		c7.914-0.01,15.929-0.021,24.078-0.029c0.772-0.001,1.557-0.001,2.331-0.002c5.891-0.006,11.85-0.011,17.865-0.016
		c4.96-0.004,9.962-0.006,15.008-0.009c8.642-0.003,17.376-0.006,26.273-0.006h0h0h0.007c10.169,0,20.141,0.004,29.978,0.008
		c0.783,0,1.582,0,2.363,0.001c2.357,0.001,4.615,0.004,6.953,0.005c7.329,0.005,14.647,0.01,21.792,0.017
		c5.358,0.005,10.552,0.013,15.809,0.019c4.599,0.006,9.275,0.011,13.797,0.017c0.677,0.001,1.353,0.002,2.028,0.003l0.92,0.001
		c5.795,0.008,11.444,0.017,17.113,0.026c2.295,0.004,4.653,0.007,6.928,0.011c0.858,0.001,1.674,0.003,2.528,0.004
		c13.052,0.022,25.696,0.044,38.077,0.067c4.809,0.009,9.638,0.017,14.348,0.026c0.774,0.001,1.57,0.003,2.342,0.004h0
		c16.147,0.029,31.734,0.055,46.733,0.075v0h0.016c4.751,0.006,9.414,0.012,14.053,0.017c0.884,0.001,1.799,0.002,2.679,0.003
		c24.192,0.024,46.882,0.025,68.111-0.016v0h0c5.654-0.01,11.202-0.024,16.654-0.041v-0.001h0
		c19.491-0.061,37.723-0.165,54.743-0.328l0.026,0v0l0.092-0.001c2.643-0.025,5.178-0.057,7.761-0.085
		c2.38-0.026,4.815-0.049,7.151-0.078v-0.001l0.014,0c15.558-0.192,30.034-0.445,43.536-0.769h0.007v0.004l0.907-0.024
		c4.238-0.103,8.363-0.215,12.408-0.333c0.573-0.016,1.189-0.03,1.759-0.047v-0.001c23.163-0.694,43.137-1.651,60.373-2.953v0.005h0
		c1.255-0.095,2.44-0.199,3.666-0.297c1.6-0.128,3.23-0.252,4.782-0.387c2.813-0.245,5.55-0.498,8.204-0.765v-0.002h0
		c6.059-0.608,11.718-1.275,17-2.004c12.602-1.741,23.071-3.844,31.754-6.38v0.001l0.036-0.011l1.25-0.392
		c1.221-0.371,2.434-0.743,3.583-1.133c0.7-0.237,1.351-0.488,2.025-0.732c0.807-0.292,1.627-0.581,2.396-0.883
		c0.743-0.291,1.442-0.596,2.152-0.896c0.64-0.271,1.29-0.54,1.903-0.82c0.717-0.326,1.398-0.663,2.08-1l1.14-0.548l0-0.026
		C1681.896,989.632,1674.003,960.361,1674.003,908.643z M1015.875,783.25c2.786,0,5.553,0.002,8.366,0.002
		C1021.421,783.252,1018.669,783.251,1015.875,783.25z"/>
	<path style="fill:#CC4A1A;" d="M1307.787,564.783c-46.571-15.505-100.747-6.004-142.015,19.505
		c-2.452,1.516-4.77,3.182-7.154,4.774c-7.333,14.633-14.166,29.512-20.485,44.614c-13.773,32.918-25.324,66.66-35.585,100.812
		c16.293-7.037,32.885-13.378,49.768-18.906c2.421-0.793,4.874-1.506,7.307-2.269c10.153-17.759,21.628-34.732,35.037-50.18
		c8.464-8.752,17.598-16.761,27.49-23.86c4.835-2.942,9.797-5.64,14.918-8.044c3.502-1.226,7.053-2.296,10.648-3.214
		c1.748-0.21,3.508-0.356,5.264-0.482c1.474,0.11,2.949,0.243,4.417,0.417c2.972,0.792,5.91,1.71,8.8,2.76
		c5.717,2.857,11.193,6.126,16.462,9.742c17.022,13.453,31.851,29.301,46.348,45.458c7.986-0.057,15.974,0.057,23.953,0.398
		c23.054,0.984,45.338,1.912,68.122-2.091c7.591-1.761,15.064-3.972,22.383-6.616c-14.933-15.134-28.721-31.481-43.158-47.022
		C1374.225,602.501,1344.717,577.079,1307.787,564.783z"/>
	<path style="fill:#CC4A1A;" d="M1807.677,568.582c-12.401-3.375-26.286-3.962-38.605,0.123
		c-10.582,3.509-22.032,8.967-28.17,18.783c-11.671,18.666-24.836,36.297-39.392,52.797c-16.743,17.765-35.153,33.816-55.206,47.742
		c-13.843,8.792-28.31,16.487-43.385,22.94c-11.587,4.288-23.419,7.796-35.484,10.453c-3.607,0.563-7.221,1.05-10.845,1.446
		l-0.706,0.761c-18.56,18.622-41.427,33.372-65.905,42.908c-14.232,5.545-29.293,9.443-44.575,11.818
		c6.749,2.647,13.669,4.975,20.804,6.881c9.839,0.257,19.231,0.545,28.169,0.871v-0.003c0.742,0.027,1.426,0.059,2.162,0.086
		c4.002,0.15,7.937,0.305,11.762,0.47l1.224,0.049v0.006c22.325,0.977,41.653,2.228,58.388,3.819v-0.015
		c0.882,0.084,1.706,0.176,2.573,0.261c0.898,0.089,1.847,0.171,2.73,0.262c58.006-8.26,113.806-33.802,160.511-69.443
		c38.182-29.136,70.852-66.5,96.273-107.155c5.189-8.3,6.957-18.151,2.47-27.253C1828.014,578.149,1817.074,571.14,1807.677,568.582
		z"/>
	<path style="fill:#CC4A1A;" d="M888.578,558.565c-44.083-5.983-86.241,8.699-121.734,33.984
		c-18.84,13.42-35.021,30.222-50.565,47.531c1.444,0.348,2.895,0.665,4.343,0.995c23.977,4.79,48.276,7.444,72.57,10.059
		c8.565,0.922,17.191,1.857,25.831,2.895c6.971-6.596,14.288-12.803,22.068-18.44c3.563-2.151,7.218-4.127,10.969-5.925
		c1.98-0.661,3.981-1.266,5.995-1.807c1.214-0.137,2.437-0.231,3.656-0.323c2.478,0.173,4.953,0.437,7.415,0.777
		c3.616,0.959,7.184,2.065,10.704,3.336c7.926,3.747,15.478,8.151,22.692,13.127c14.342,11.383,26.885,24.611,38.034,39.123
		c1.044,1.472,2.099,2.938,3.119,4.425c27.555,15.048,51.376,35.15,70.129,59.841c2.217-34.722,3.746-69.493,3.415-104.291
		c-0.036-3.7-0.126-7.398-0.205-11.097c-5.674-6.7-11.627-13.135-17.951-19.157C968.459,584.469,930.669,564.277,888.578,558.565z"
		/>
	<path style="fill:#CC4A1A;" d="M540.566,790.232c14.463-1.332,30.907-2.411,49.515-3.287l0-0.007
		c0.872-0.041,1.813-0.076,2.692-0.116c3.273-0.149,6.599-0.293,10.008-0.43c0.768-0.031,1.48-0.066,2.255-0.097l0,0.009
		c13.744-0.538,28.591-0.984,44.614-1.352c20.981-5.545,41.149-13.929,59.614-25.924c11.987-7.787,23.046-16.272,33.558-25.547
		c-14.729-2.98-29.303-6.713-43.61-11.712c-14.935-5.219-29.751-11.927-43.538-20.176c-1.835,1.435-3.691,2.845-5.579,4.216
		c-6.408,3.938-13.032,7.454-19.889,10.537c-6.329,2.24-12.758,4.118-19.294,5.648c-7.289,1.093-14.614,1.779-21.978,2.065
		c-9.908-0.326-19.756-1.303-29.537-2.899c-13.682-3.056-27.057-7.206-40.1-12.337c-19.286-8.639-37.534-19.297-54.673-31.658
		c-24.718-19.252-46.63-41.764-65.683-66.629c-5.495-7.62-10.786-15.377-15.769-23.346c-12.707-20.323-41.527-25.736-63.397-18.484
		c-10.461,3.469-22.261,8.932-28.17,18.783c-4.767,7.947-7.871,18.614-2.47,27.253c39.617,63.359,95.372,119.182,164.312,149.91
		c26.79,11.941,54.956,21.262,83.925,25.89c1.072-0.104,2.1-0.213,3.193-0.314V790.232z"/>
	<path style="fill:#FCE5F1;" d="M541.003,1524.727c-5.751-0.296-11.293-0.611-16.655-0.943
		c0.057,96.465,0.114,192.931,0.171,289.397c1.152,2.738,2.36,5.394,3.623,7.97l0.028,0.057c1.265,2.576,2.586,5.071,3.966,7.489
		l0.011,0.02c2.771,4.853,5.78,9.391,9.043,13.635l0.002,0.002c-0.051-87.775-0.103-175.551-0.156-263.326
		C541.024,1560.928,541.013,1542.828,541.003,1524.727z"/>
	<path style="fill:#FCE5F1;" d="M538.129,1022.023c-1.611-0.131-3.218-0.263-4.778-0.401c-1.338-0.118-2.635-0.242-3.938-0.365
		c-1.572-0.149-3.152-0.296-4.672-0.452l-0.691-0.067c0.044,74.488,0.088,148.975,0.132,223.462
		c0.008,15.057,0.018,30.113,0.026,45.17c5.362-0.256,10.905-0.496,16.654-0.718c-0.052-88.805-0.105-177.609-0.158-266.414
		C539.822,1022.17,538.997,1022.094,538.129,1022.023z"/>
	<path style="fill:#FCE5F1;" d="M616.547,1527.421c-5.141-0.123-10.174-0.252-15.1-0.389c0.59,118.733,0.66,237.468,0.088,356.201
		l0.013,0.004c4.756,1.623,9.711,3.128,14.922,4.497l0.104,0.029v0c0.388-79.824,0.588-159.648,0.443-239.474
		C616.944,1607.999,616.754,1567.71,616.547,1527.421z"/>
	<path style="fill:#FCE5F1;" d="M610.479,1025.551l-0.019,0v0.007c-0.98-0.026-1.887-0.059-2.857-0.086
		c-3.184-0.09-6.319-0.184-9.387-0.283c-0.905-0.029-1.872-0.053-2.767-0.083v-0.009l-0.022-0.001
		c1.668,87.31,3.034,174.626,4.061,261.947c4.888-0.092,9.886-0.178,14.987-0.257c-0.944-79.686-2.077-159.37-3.551-239.048
		C610.786,1040.341,610.621,1032.947,610.479,1025.551z"/>
	<path style="fill:#FCE5F1;" d="M821.395,1529.519c-5.628-0.016-11.225-0.031-16.713-0.05
		c2.885,112.769,6.205,225.525,10.065,338.264c0.395,11.534,0.855,23.065,1.26,34.598c5.433-0.001,10.986-0.014,16.607-0.033h0.029
		c-3.54-100.757-6.696-201.527-9.456-302.308C822.545,1576.5,821.996,1553.009,821.395,1529.519z"/>
	<path style="fill:#FCE5F1;" d="M811.744,1027.093L811.744,1027.093c-5.64,0.005-11.193,0.009-16.667,0.01v0h-0.021
		c0.976,77.71,2.16,155.417,3.614,233.119c0.159,8.523,0.363,17.045,0.527,25.568c5.481,0,11.045,0.002,16.668,0.005
		c-1.669-86.229-3.02-172.463-4.12-258.701H811.744z"/>
	<path style="fill:#FCE5F1;" d="M746.512,1650.769c-0.024-40.527-0.048-81.055-0.072-121.583c-5.65-0.037-11.175-0.078-16.655-0.121
		c0.073,124.003,0.147,248.007,0.221,372.011v0l0.025,0.001c5.42,0.2,10.955,0.375,16.63,0.521
		C746.611,1817.989,746.561,1734.379,746.512,1650.769z"/>
	<path style="fill:#FCE5F1;" d="M746.142,1027.065L746.142,1027.065l-0.001,0.001c-2.984-0.006-5.87-0.016-8.801-0.024
		c-2.399-0.006-4.856-0.011-7.218-0.019l-0.635-0.002c0.051,86.283,0.102,172.566,0.153,258.849
		c5.477-0.015,11.008-0.029,16.655-0.039c-0.046-77.352-0.092-154.704-0.138-232.056
		C746.153,1044.872,746.147,1035.968,746.142,1027.065z"/>
	<path style="fill:#FCE5F1;" d="M670.926,1585.824c-0.213-19.131-0.337-38.264-0.519-57.396c-5.107-0.072-10.154-0.148-15.087-0.229
		c1.024,106.351,2.485,212.697,4.451,319.035c0.3,16.24,0.694,32.479,1.016,48.719l0.002,0c4.854,0.61,9.832,1.175,14.984,1.681
		C673.712,1793.705,672.083,1689.767,670.926,1585.824z"/>
	<path style="fill:#FCE5F1;" d="M669.108,1026.609L669.108,1026.609l0,0.005c-1.346-0.015-2.618-0.034-3.947-0.049
		c-2.727-0.032-5.433-0.066-8.096-0.102c-0.997-0.013-2.042-0.024-3.03-0.038v-0.005h-0.014
		c-0.337,73.419-0.475,146.84-0.343,220.261c0.024,13.205,0.116,26.41,0.154,39.615c4.908-0.046,9.927-0.087,15.008-0.126
		C668.596,1199.65,668.727,1113.129,669.108,1026.609z"/>
	<path style="fill:#FCE5F1;" d="M889.137,1529.636c-5.616-0.005-11.206-0.01-16.701-0.017
		c2.655,124.123,4.791,248.257,6.266,372.401l0.371-0.003c5.208-0.042,10.528-0.087,15.881-0.134l0.381-0.003
		c-1.057-89.048-2.362-178.093-4.028-267.132C890.652,1599.709,889.886,1564.673,889.137,1529.636z"/>
	<path style="fill:#FCE5F1;" d="M875.221,1027.003L875.221,1027.003L875.221,1027.003c-3.114,0.006-6.148,0.011-9.216,0.016
		c-2.322,0.004-4.662,0.008-6.959,0.012l-0.555,0.001c2.955,86.26,5.651,172.53,8.034,258.807
		c5.484,0.006,11.034,0.014,16.641,0.021c-2.381-86.215-4.986-172.425-7.936-258.623L875.221,1027.003z"/>
	<path style="fill:#FCE5F1;" d="M1231.026,1026.993L1231.026,1026.993c-0.772-0.001-1.568-0.003-2.342-0.004
		c-4.71-0.009-9.539-0.017-14.348-0.026c0.977,77.757,2.162,155.511,3.617,233.26c0.161,8.612,0.366,17.223,0.533,25.834
		c5.608-0.006,11.155-0.012,16.667-0.019C1233.48,1199.694,1232.128,1113.346,1231.026,1026.993L1231.026,1026.993z"/>
	<path style="fill:#FCE5F1;" d="M1240.682,1529.659c-5.527-0.002-11.088-0.003-16.712-0.005
		c2.884,112.706,6.202,225.4,10.059,338.078c0.392,11.436,0.849,22.869,1.25,34.305c5.548,0.044,11.073,0.087,16.459,0.124
		l0.183,0.001v0c-3.537-100.712-6.692-201.436-9.45-302.172C1241.829,1576.547,1241.282,1553.102,1240.682,1529.659z"/>
	<path style="fill:#FCE5F1;" d="M1294.507,1027.088c-0.881-0.001-1.795-0.002-2.679-0.003c-4.639-0.005-9.302-0.011-14.053-0.017
		c2.956,86.292,5.652,172.593,8.035,258.902c5.6-0.007,11.146-0.016,16.64-0.024c-2.382-86.244-4.987-172.482-7.938-258.708
		L1294.507,1027.088z"/>
	<path style="fill:#FCE5F1;" d="M1310.591,1634.747c-0.656-35.029-1.42-70.056-2.169-105.082c-5.514,0.001-11.08,0.001-16.701,0.001
		c2.656,124.211,4.794,248.431,6.27,372.662v0l0.171,0c5.579,0,11.081-0.011,16.463-0.036
		C1313.565,1813.107,1312.258,1723.924,1310.591,1634.747z"/>
	<path style="fill:#FCE5F1;" d="M1379.273,1027.031L1379.273,1027.031c-5.452,0.018-11,0.032-16.654,0.042
		c0.043,72.375,0.085,144.751,0.129,217.128c0.008,13.885,0.016,27.771,0.024,41.657c5.615-0.008,11.162-0.015,16.654-0.021
		C1379.375,1199.568,1379.324,1113.299,1379.273,1027.031L1379.273,1027.031z"/>
	<path style="fill:#FCE5F1;" d="M1379.571,1529.623c-5.493,0.007-11.039,0.013-16.654,0.017
		c0.061,103.851,0.123,207.702,0.185,311.553c0.012,20.152,0.025,40.302,0.036,60.455l0.371-0.011
		c5.543-0.14,10.956-0.303,16.254-0.493l0.028-0.001c-0.063-107.372-0.127-214.743-0.191-322.115
		C1379.59,1562.561,1379.58,1546.092,1379.571,1529.623z"/>
	<path style="fill:#FCE5F1;" d="M1455.12,1529.45c-4.974,0.018-10,0.034-15.092,0.05c0.607,122.546,0.661,245.096,0.022,367.642
		c5.175-0.551,10.183-1.162,15.048-1.826l0.005,0c0.418-82.342,0.627-164.685,0.478-247.028
		C1455.51,1608.676,1455.322,1569.063,1455.12,1529.45z"/>
	<path style="fill:#FCE5F1;" d="M1449.06,1026.536h-0.014v0.001c-2.335,0.029-4.771,0.052-7.15,0.078
		c-2.586,0.029-5.118,0.06-7.761,0.085l-0.092,0.001v0l-0.025,0c1.646,86.358,2.999,172.72,4.018,259.087
		c5.058-0.001,10.051-0.001,14.993,0c-0.942-79.354-2.071-158.707-3.538-238.053
		C1449.358,1040.669,1449.196,1033.603,1449.06,1026.536z"/>
	<path style="fill:#FCE5F1;" d="M1584.861,1286.243c-0.046-77.489-0.091-154.978-0.137-232.467
		c-0.006-10.937-0.013-21.873-0.019-32.81h-0.001v0.002c-2.654,0.266-5.39,0.521-8.203,0.765c-1.551,0.135-3.183,0.259-4.782,0.388
		c-1.227,0.098-2.412,0.202-3.666,0.297c0.052,87.9,0.104,175.799,0.156,263.699
		C1573.86,1286.154,1579.415,1286.196,1584.861,1286.243z"/>
	<path style="fill:#FCE5F1;" d="M1585.077,1650.769c-0.024-40.788-0.048-81.577-0.073-122.365
		c-5.448,0.079-10.999,0.153-16.654,0.223c0.062,104.883,0.125,209.766,0.187,314.65c3.259-4.197,6.264-8.684,9.03-13.483
		l0.01-0.017c1.377-2.39,2.694-4.857,3.956-7.404l0.044-0.092c1.254-2.537,2.453-5.15,3.596-7.847
		C1585.141,1759.878,1585.11,1705.324,1585.077,1650.769z"/>
	<path style="fill:#FCE5F1;" d="M1507.678,1025.365L1507.678,1025.365v0.001c-0.569,0.017-1.185,0.03-1.759,0.047
		c-4.045,0.118-8.169,0.23-12.408,0.333l-0.907,0.024v-0.004l-0.007,0c-0.342,73.637-0.487,147.275-0.354,220.914
		c0.023,13.047,0.114,26.093,0.152,39.139c5.075,0.008,10.067,0.018,15.009,0.03
		C1507.16,1199.022,1507.293,1112.192,1507.678,1025.365z"/>
	<path style="fill:#FCE5F1;" d="M1508.979,1529.177c-4.966,0.033-9.984,0.065-15.085,0.095
		c1.023,105.993,2.482,211.982,4.443,317.962c0.241,13.068,0.561,26.134,0.817,39.202c2.475-0.708,4.892-1.45,7.262-2.219
		l0.869-0.288c2.291-0.755,4.542-1.532,6.728-2.349h0.001c-1.909-98.579-3.426-197.165-4.523-295.756
		C1509.281,1566.942,1509.16,1548.06,1508.979,1529.177z"/>
	<path style="fill:#FAD6E7;" d="M448.093,816.438l-0.08,0.089c-1.028,1.013-1.963,2.064-2.847,3.139l-0.713,0.904
		c-0.703,0.908-1.361,1.838-1.974,2.791l-0.498,0.762c-0.733,1.201-1.404,2.435-2.008,3.708l-0.296,0.679
		c-0.488,1.077-0.934,2.179-1.34,3.307l-0.384,1.1c-0.399,1.197-0.761,2.419-1.081,3.674l-0.146,0.534
		c-0.354,1.449-0.652,2.943-0.914,4.472l-0.171,1.1c-0.191,1.223-0.357,2.471-0.498,3.745l-0.136,1.248
		c-0.318,3.26-0.496,6.683-0.572,10.281c-0.01,0.473-0.016,0.956-0.022,1.436c-0.02,1.469-0.028,2.962-0.021,4.489l0.003,1.186
		c0.016,1.913,0.046,3.865,0.091,5.869l0.026,1.042c0.043,1.793,0.093,3.615,0.15,5.482c0.017,0.578,0.035,1.175,0.053,1.76
		c0.061,1.974,0.124,3.968,0.188,6.024c0.067,2.152,0.131,4.36,0.191,6.603c0.015,0.578,0.028,1.165,0.042,1.75
		c0.044,1.773,0.081,3.58,0.113,5.41c0.012,0.723,0.025,1.439,0.035,2.171c0.034,2.438,0.059,4.911,0.059,7.451v0.002
		c0,2.786-0.027,5.486-0.063,8.144l-0.007,0.805c0.77,20.767,1.579,41.533,2.315,62.301l0.002,0.072l0.24,0.716
		c0.242,0.781,0.495,1.554,0.772,2.308l0.432,1.112c0.285,0.719,0.585,1.428,0.906,2.124l0.536,1.109
		c0.335,0.67,0.689,1.331,1.062,1.979l0.632,1.063c0.395,0.638,0.814,1.264,1.249,1.88l0.722,1c0.463,0.613,0.957,1.21,1.465,1.801
		l0.8,0.92c0.546,0.596,1.13,1.174,1.725,1.747l0.859,0.826c0.652,0.592,1.352,1.165,2.062,1.734l0.853,0.691
		c0.821,0.624,1.697,1.227,2.595,1.821l0.571,0.401l-0.001-0.01c-2.17-62.255-4.51-124.503-6.978-186.746V816.438z"/>
	<path style="fill:#FAD6E7;" d="M524.048,1020.73v0.008h0.002l0.691,0.067c1.521,0.156,3.101,0.303,4.672,0.452
		c1.303,0.123,2.6,0.247,3.938,0.365c1.56,0.138,3.167,0.269,4.778,0.401c0.868,0.071,1.692,0.147,2.575,0.216v-0.012
		c-0.008-13.397-0.016-26.795-0.024-40.192c-0.038-63.934-0.076-127.869-0.114-191.803v-0.004c-1.094,0.101-2.121,0.21-3.193,0.314
		l-0.856,0.084c-2.446,0.239-4.841,0.485-7.173,0.741c-1.828,0.2-3.672,0.398-5.431,0.607v0.003
		C523.958,868.228,524.004,944.479,524.048,1020.73z"/>
	<path style="fill:#FAD6E7;" d="M595.448,1025.096v0.009c0.895,0.03,1.862,0.054,2.767,0.083c3.071,0.1,6.201,0.194,9.387,0.283
		c0.97,0.027,1.877,0.06,2.857,0.086v-0.007c-1.525-79.756-3.369-159.504-5.423-239.247l0-0.009
		c-0.775,0.03-1.487,0.066-2.255,0.097c-3.407,0.138-6.736,0.281-10.008,0.43c-0.88,0.04-1.82,0.075-2.692,0.116l0,0.007
		C592.117,866.323,593.936,945.706,595.448,1025.096z"/>
	<path style="fill:#FAD6E7;" d="M809.406,783.337c-1.579,0.005-3.099,0.01-4.663,0.015c-4.046,0.012-8.095,0.024-12.059,0.038v0.001
		c0.532,81.24,1.358,162.477,2.393,243.711v0c5.474-0.001,11.027-0.005,16.667-0.01c-0.148-11.623-0.343-23.244-0.48-34.867
		C810.438,922.598,809.862,852.968,809.406,783.337z"/>
	<path style="fill:#FAD6E7;" d="M745.997,783.633c-1.073,0.008-2.094,0.017-3.16,0.025c-4.549,0.033-9.073,0.068-13.494,0.107v0.001
		c0.047,81.085,0.095,162.169,0.143,243.255v0.001h0.001l0.635,0.002c2.365,0.008,4.813,0.012,7.218,0.019
		c2.932,0.008,5.817,0.017,8.801,0.024v-0.001C746.094,945.921,746.045,864.777,745.997,783.633z"/>
	<path style="fill:#FAD6E7;" d="M670.988,784.515v-0.002c-1.659,0.029-3.236,0.064-4.874,0.095
		c-3.389,0.064-6.798,0.127-10.087,0.197l-0.199,0.004v0c-0.888,80.534-1.446,161.072-1.794,241.611v0.005
		c0.988,0.014,2.033,0.025,3.03,0.038c2.664,0.036,5.37,0.069,8.096,0.102c1.33,0.016,2.602,0.035,3.947,0.049v-0.005
		c0.061-13.805,0.067-27.609,0.145-41.414C669.624,918.3,670.242,851.407,670.988,784.515z"/>
	<path style="fill:#FAD6E7;" d="M863.375,783.246c-3.903,0.003-7.772,0.007-11.605,0.012c-0.797,0.001-1.62,0.001-2.415,0.003v0.001
		c3.289,81.247,6.337,162.504,9.121,243.771h0.015l0.555-0.001c2.293-0.004,4.643-0.008,6.959-0.012
		c3.067-0.005,6.102-0.01,9.216-0.016v0c-2.783-81.264-5.912-162.515-9.2-243.759v-0.001
		C865.127,783.244,864.265,783.245,863.375,783.246z"/>
	<path style="fill:#FAD6E7;" d="M1214.359,1026.963c4.839,0.008,9.591,0.017,14.325,0.026c0.774,0.001,1.57,0.003,2.342,0.004
		c-0.148-11.589-0.342-23.178-0.479-34.767c-0.827-69.661-1.403-139.325-1.858-208.989v0c-0.833,0-1.693-0.001-2.529-0.002
		c-4.123-0.002-8.274-0.004-12.474-0.005c-0.579,0-1.139,0-1.72,0v0C1212.498,864.476,1213.323,945.721,1214.359,1026.963z"/>
	<path style="fill:#FAD6E7;" d="M1277.759,1027.068L1277.759,1027.068h0.016c4.751,0.006,9.414,0.012,14.053,0.017
		c0.885,0.001,1.799,0.002,2.68,0.003c-2.783-81.267-5.911-162.522-9.2-243.771v-0.001c-3.01-0.007-6.097-0.012-9.15-0.019
		c-2.508-0.005-4.975-0.011-7.518-0.015C1271.928,864.534,1274.976,945.797,1277.759,1027.068z"/>
	<path style="fill:#FAD6E7;" d="M1362.618,1027.072L1362.618,1027.072L1362.618,1027.072c5.654-0.01,11.203-0.024,16.654-0.041
		v-0.001c-0.008-14.999-0.018-29.997-0.026-44.995c-0.039-66.076-0.078-132.151-0.117-198.227v0l-0.377-0.003
		c-3.175-0.029-6.452-0.054-9.697-0.081c-2.202-0.018-4.348-0.038-6.581-0.055v0.003
		C1362.522,864.806,1362.57,945.939,1362.618,1027.072z"/>
	<path style="fill:#FAD6E7;" d="M1434.042,1026.702L1434.042,1026.702l0.092,0c2.643-0.025,5.178-0.056,7.761-0.085
		c2.38-0.026,4.815-0.049,7.15-0.078v-0.001c-1.539-80.613-3.405-161.221-5.484-241.822v-0.003c-1.547-0.031-3.17-0.057-4.737-0.087
		c-3.202-0.061-6.392-0.123-9.683-0.179l-0.559-0.01v0.001C1430.659,865.186,1432.507,945.941,1434.042,1026.702z"/>
	<path style="fill:#FAD6E7;" d="M1633.457,1012.582l0.036-0.011l1.25-0.392c1.221-0.371,2.434-0.743,3.583-1.133
		c0.701-0.237,1.352-0.488,2.026-0.732c0.807-0.292,1.626-0.581,2.396-0.884c0.743-0.291,1.442-0.596,2.152-0.896
		c0.64-0.271,1.289-0.54,1.903-0.819c0.717-0.326,1.398-0.664,2.08-1l1.14-0.548l0-0.026c-0.057-4.638-0.137-9.277-0.193-13.915
		c-0.727-61.258-1.284-122.518-1.724-183.779l0-0.034l-1.147-0.577c-0.622-0.321-1.247-0.641-1.897-0.953
		c-0.695-0.334-1.421-0.659-2.148-0.984c-0.67-0.299-1.332-0.6-2.029-0.892c-0.785-0.328-1.611-0.644-2.433-0.963
		c-0.7-0.271-1.383-0.548-2.111-0.812c-0.948-0.345-1.95-0.675-2.944-1.008c-0.661-0.222-1.292-0.45-1.974-0.666l-0.081-0.027v0.003
		c0.493,70.351,1.245,140.701,2.114,211.047V1012.582z"/>
	<path style="fill:#FAD6E7;" d="M1570.487,790.778c-0.867-0.086-1.691-0.178-2.573-0.261v0.015
		c0.045,77.293,0.091,154.586,0.137,231.879v0.005h0.001c1.255-0.095,2.44-0.199,3.666-0.297c1.6-0.128,3.23-0.253,4.782-0.388
		c2.813-0.244,5.55-0.498,8.203-0.765v-0.002c-0.044-76.211-0.09-152.422-0.135-228.634v-0.009l-0.802-0.093
		c-1.523-0.185-3.1-0.362-4.673-0.54c-1.347-0.152-2.698-0.304-4.083-0.451C1573.53,791.081,1572.011,790.929,1570.487,790.778z"/>
	<path style="fill:#FAD6E7;" d="M1492.603,1025.767v0.004l0.907-0.024c4.238-0.103,8.363-0.215,12.408-0.333
		c0.573-0.016,1.189-0.03,1.759-0.047v-0.001c0.059-13.39,0.065-26.78,0.139-40.17c0.368-66.162,0.976-132.323,1.709-198.482v-0.006
		l-1.224-0.049c-3.826-0.165-7.76-0.32-11.762-0.47c-0.736-0.027-1.42-0.059-2.162-0.086v0.003
		C1493.5,865.99,1492.951,945.878,1492.603,1025.767z"/>
	<path style="fill:#FFFFFF;" d="M1526.362,710.564c-15.293,14.797-34.625,25.672-55.829,28.797
		c-2.832,0.417-7.714,1.941-8.074,5.435c-0.348,3.367,3.905,4.405,6.489,4.024c40.957-6.036,76.059-33.314,95.477-69.477
		c23.175-43.162,24.239-94.242,16.253-141.537c-5.012-29.688-13.455-58.643-21.873-87.505c-1.735-5.949-16.181-2.039-14.457,3.874
		C1568.033,535.381,1596.234,642.958,1526.362,710.564z"/>
	<path style="fill:#FFFFFF;" d="M699.418,278.043c21.668-12.298,45.362-21.165,69.845-25.85c2.508-0.48,7.79-1.69,8.212-4.921
		c0.407-3.118-4.136-3.523-6.247-3.119c-96.283,18.424-176.102,90.221-199.896,186.046c-6.776,27.29-8.786,55.594-6.146,83.578
		c0.45,4.761,14.978,1.646,14.457-3.874C570.841,416.654,617.82,324.354,699.418,278.043z"/>
	<path style="fill:#ED6C35;" d="M1608.8,1528.016c-0.035-6.524-0.074-13.198-0.114-19.95c-0.031-5.216-0.063-10.492-0.095-15.847
		c-0.02-3.235-0.04-6.514-0.059-9.8c-0.036-6.171-0.072-12.426-0.107-18.778c-0.008-1.488-0.016-2.948-0.024-4.446
		c-0.036-6.834-0.068-13.799-0.098-20.844c-0.01-2.279-0.018-4.596-0.026-6.896c-0.021-5.387-0.037-10.833-0.052-16.343
		c-0.007-2.574-0.014-5.142-0.019-7.744c-0.015-7.417-0.025-14.917-0.026-22.556l0-1.099c0-2.909,0.006-5.709,0.008-8.587
		c0.004-5.789,0.007-11.6,0.018-17.265c0.008-4.152,0.022-8.178,0.034-12.264c0.012-4.291,0.021-8.634,0.036-12.853
		c0.017-4.897,0.038-9.668,0.058-14.47c0.014-3.239,0.026-6.529,0.041-9.726c0.032-7.159,0.067-14.214,0.101-21.162l0.005-0.904
		c-7.643-0.09-15.529-0.17-23.618-0.24c-5.446-0.047-11.001-0.089-16.654-0.128c-19.057-0.131-39.3-0.214-60.803-0.264
		c-4.942-0.011-9.934-0.022-15.009-0.031c-12.692-0.019-25.819-0.029-39.368-0.031c-4.942-0.001-9.935-0.001-14.993,0
		c-18.718,0.005-38.249,0.023-58.608,0.048c-5.491,0.006-11.04,0.013-16.654,0.021c-9.679,0.013-19.547,0.027-29.601,0.042
		c-10.054,0.015-20.294,0.03-30.72,0.046c-5.494,0.008-11.04,0.016-16.64,0.024c-16.427,0.024-33.301,0.047-50.659,0.067
		c-5.512,0.006-11.059,0.013-16.667,0.018c-6.844,0.007-13.763,0.014-20.755,0.02c-6.992,0.006-14.056,0.011-21.188,0.016
		c0.017-103.927,0.13-189.214-0.284-259.197c-0.855-0.001-1.671-0.003-2.528-0.004c0.83,0.001,1.7,0.002,2.527,0.004
		c-0.719-121.666-3.034-197.086-10.221-243.667h-0.756c-5.462,0.001-11.076,0.003-16.654,0.004
		c-19.48,0.006-39.652,0.013-60.594,0.017c-3.573,0.001-7.145,0.002-10.762,0.003c-8.478,0.002-17.015,0.003-25.736,0.003
		c-9.245,0-18.323-0.001-27.292-0.003c-2.82,0-5.572-0.002-8.366-0.003c-23.282-0.005-45.621-0.013-67.088-0.019
		c-2.698,0-5.476-0.002-8.147-0.002c-6.37,46.503-7.788,121.856-7.936,243.672c1.05-0.002,2.126-0.004,3.181-0.005
		c-1.075,0.002-2.111,0.004-3.181,0.005c-0.085,69.92,0.246,155.166,0.301,259.033c-17.13-0.025-33.74-0.051-49.84-0.072
		c-5.607-0.007-11.156-0.015-16.641-0.021c-17.501-0.022-34.377-0.037-50.66-0.045c-5.623-0.002-11.186-0.003-16.667-0.004h0
		c-4.6,0-9.153,0-13.659,0.001c-13.518,0.005-26.606,0.016-39.242,0.04c-5.646,0.011-11.177,0.025-16.655,0.04
		c-5.383,0.014-10.686,0.031-15.91,0.051c-10.42,0.039-20.523,0.088-30.316,0.148c-4.937,0.03-9.796,0.064-14.575,0.1
		c-5.081,0.039-10.1,0.081-15.008,0.127c-13.805,0.13-26.875,0.293-39.358,0.487c-5.101,0.08-10.099,0.166-14.987,0.258
		c-5.378,0.101-10.63,0.21-15.757,0.327c-10.256,0.233-20.016,0.499-29.299,0.802c-4.641,0.151-9.163,0.312-13.568,0.482
		c-3.011,0.116-5.959,0.238-8.861,0.364c-2.638,0.114-5.239,0.232-7.792,0.354c-4.108,0.196-8.118,0.402-12.019,0.618
		c-3.901,0.217-7.693,0.443-11.366,0.682c0.004,0.758,0.008,1.549,0.013,2.309c0.036,5.915,0.071,11.899,0.104,17.962
		c0.016,2.853,0.029,5.768,0.042,8.654c0.024,4.75,0.047,9.499,0.067,14.342c0.02,4.79,0.033,9.691,0.048,14.575
		c0.01,3.246,0.023,6.439,0.03,9.728c0.02,8.358,0.031,16.836,0.031,25.473c0,8.081-0.011,15.99-0.026,23.819
		c-0.004,2.112-0.009,4.206-0.014,6.3c-0.015,6.696-0.035,13.307-0.059,19.819v0.059c-0.003,0.87-0.006,1.756-0.009,2.623
		c-0.029,7.63-0.062,15.137-0.097,22.522c-0.071,14.771-0.152,29.057-0.225,42.872c-0.037,6.908-0.072,13.698-0.104,20.372
		c7.444,0.611,15.381,1.167,23.723,1.684c5.363,0.332,10.904,0.647,16.655,0.943c4.527,0.233,9.179,0.456,13.957,0.667
		c14.335,0.635,29.809,1.176,46.486,1.638c4.926,0.136,9.96,0.266,15.1,0.389c12.315,0.294,25.18,0.555,38.774,0.778
		c4.933,0.08,9.98,0.156,15.087,0.228c13.948,0.198,28.564,0.365,43.857,0.505c5.098,0.047,10.271,0.091,15.52,0.132
		c5.48,0.043,11.005,0.084,16.655,0.122c18.474,0.121,37.896,0.214,58.242,0.282c5.488,0.018,11.085,0.034,16.713,0.05
		c16.415,0.045,33.403,0.078,51.041,0.101c5.494,0.007,11.085,0.012,16.701,0.017c14.148,0.013,28.655,0.021,43.589,0.025
		c-0.348,254.612,1.325,342.255,27.642,371.665c7.101-0.054,14.323-0.105,21.636-0.152c1.507-0.01,3.047-0.018,4.563-0.026
		c6.126-0.038,12.304-0.073,18.583-0.102c3.571-0.017,7.235-0.028,10.857-0.042c1.891-0.007,3.789-0.014,5.694-0.02
		c4.659-0.016,9.352-0.027,14.094-0.037c6.647-0.014,13.284-0.028,20.096-0.028h0.004c8.231,0,16.291,0.014,24.279,0.033l0,0
		c5.053,0.011,9.995,0.031,14.953,0.05v-0.001c3.28,0.013,6.581,0.024,9.819,0.038c4.396,0.021,8.757,0.042,13.077,0.066
		c2.885,0.016,5.748,0.033,8.6,0.051c5.449,0.033,10.89,0.069,16.223,0.107c28.885-29.175,33.107-116.415,33.649-371.621
		c16.184,0.004,32.031,0.008,47.475,0.012c5.624,0.001,11.185,0.003,16.712,0.005c8.747,0.001,17.371,0.003,25.876,0.004
		c8.505,0.001,16.891,0.002,25.163,0.002c5.622,0,11.187,0,16.701,0c18.769-0.002,36.948-0.009,54.495-0.025
		c5.616-0.005,11.161-0.01,16.654-0.017c10.517-0.013,20.81-0.029,30.884-0.049c10.074-0.02,19.929-0.044,29.573-0.073
		c5.092-0.016,10.118-0.032,15.092-0.05c6.67-0.025,13.237-0.052,19.7-0.081c6.463-0.03,12.822-0.062,19.075-0.098
		c5.101-0.029,10.119-0.061,15.085-0.094c20.967-0.141,40.737-0.321,59.371-0.55c5.655-0.07,11.206-0.145,16.654-0.223
		c4.076-0.059,8.1-0.121,12.067-0.186C1601.039,1528.154,1604.95,1528.086,1608.8,1528.016L1608.8,1528.016L1608.8,1528.016z"/>
	<path style="fill:#CC4A1A;" d="M524.348,1523.784c5.363,0.332,10.904,0.647,16.655,0.943c18.109,0.932,38.207,1.689,60.443,2.305
		c4.926,0.136,9.96,0.266,15.1,0.389c12.315,0.294,25.18,0.555,38.774,0.778c4.933,0.081,9.98,0.157,15.087,0.229
		c18.597,0.264,38.382,0.472,59.378,0.637c5.48,0.043,11.005,0.084,16.655,0.121c18.474,0.122,37.896,0.214,58.242,0.282
		c5.488,0.019,11.085,0.034,16.713,0.05c16.415,0.045,33.403,0.078,51.041,0.1c5.494,0.007,11.085,0.012,16.701,0.017
		c14.148,0.014,28.655,0.022,43.589,0.026c0.084-61.668,0.287-133.088,0.287-215.898c0-9.44-0.003-18.683-0.008-27.831
		c-17.13-0.025-33.74-0.05-49.839-0.072c-5.607-0.007-11.156-0.015-16.641-0.021c-17.501-0.021-34.377-0.037-50.66-0.045
		c-5.623-0.003-11.187-0.004-16.668-0.005c-18.401-0.001-36.053,0.01-52.901,0.041c-5.647,0.01-11.178,0.024-16.655,0.039
		c-21.531,0.059-41.789,0.154-60.801,0.299c-5.081,0.039-10.1,0.08-15.008,0.126c-13.805,0.13-26.875,0.293-39.358,0.488
		c-5.101,0.08-10.099,0.166-14.987,0.257c-21.512,0.405-41.005,0.93-58.624,1.611c-5.749,0.222-11.292,0.462-16.654,0.718
		c-8.216,0.392-16.039,0.821-23.385,1.3c0.004,0.758,0.008,1.549,0.013,2.309c0.036,5.915,0.071,11.899,0.104,17.962
		c0.016,2.853,0.029,5.768,0.042,8.654c0.024,4.75,0.047,9.499,0.067,14.342c0.02,4.79,0.033,9.692,0.048,14.575
		c0.01,3.246,0.023,6.439,0.03,9.728c0.02,8.358,0.031,16.836,0.031,25.473c0,8.081-0.011,15.99-0.026,23.819
		c-0.004,2.112-0.009,4.206-0.014,6.301c-0.015,6.716-0.035,13.347-0.059,19.879c-0.003,0.87-0.006,1.756-0.009,2.622
		c-0.116,30.52-0.299,59.069-0.426,85.766C508.069,1522.711,516.005,1523.267,524.348,1523.784z"/>
	<path style="fill:#CC4A1A;" d="M1584.861,1286.243c-5.446-0.047-11-0.089-16.654-0.128c-19.057-0.13-39.3-0.214-60.803-0.264
		c-4.941-0.011-9.934-0.021-15.009-0.03c-12.692-0.02-25.819-0.03-39.368-0.032c-4.942-0.001-9.935-0.001-14.993,0
		c-18.718,0.005-38.249,0.023-58.608,0.047c-5.492,0.006-11.04,0.013-16.654,0.021c-19.359,0.026-39.469,0.057-60.321,0.088
		c-5.494,0.008-11.04,0.017-16.64,0.024c-16.427,0.025-33.302,0.047-50.659,0.067c-5.512,0.006-11.059,0.013-16.667,0.019
		c-13.687,0.014-27.679,0.026-41.943,0.035c-0.002,7.664-0.002,15.42-0.002,23.287c0,84.679,0.088,157.526-0.045,220.264
		c16.184,0.004,32.031,0.008,47.475,0.012c5.624,0.001,11.185,0.003,16.712,0.005c17.495,0.004,34.495,0.007,51.038,0.007
		c5.622,0,11.187,0,16.701-0.001c18.769-0.002,36.948-0.009,54.495-0.025c5.616-0.005,11.161-0.01,16.654-0.017
		c21.035-0.025,41.169-0.065,60.457-0.122c5.092-0.016,10.118-0.032,15.092-0.05c13.34-0.049,26.269-0.108,38.775-0.179
		c5.101-0.029,10.119-0.061,15.085-0.095c20.967-0.141,40.737-0.321,59.371-0.55c5.655-0.07,11.205-0.144,16.654-0.223
		c8.151-0.118,16.097-0.246,23.796-0.387c-0.034-6.524-0.073-13.199-0.114-19.95c-0.031-5.216-0.063-10.492-0.095-15.847
		c-0.02-3.235-0.04-6.514-0.059-9.8c-0.037-6.171-0.072-12.426-0.107-18.779c-0.008-1.488-0.016-2.948-0.024-4.446
		c-0.036-6.834-0.068-13.799-0.098-20.844c-0.01-2.278-0.018-4.595-0.027-6.896c-0.02-5.387-0.037-10.833-0.052-16.343
		c-0.007-2.574-0.014-5.142-0.019-7.744c-0.015-7.416-0.025-14.916-0.026-22.556l-0.001-1.1c0-2.909,0.007-5.71,0.009-8.588
		c0.004-5.789,0.006-11.6,0.018-17.264c0.008-4.152,0.022-8.178,0.034-12.264c0.012-4.291,0.021-8.634,0.036-12.853
		c0.017-4.897,0.038-9.668,0.058-14.469c0.014-3.239,0.026-6.53,0.041-9.726c0.032-7.159,0.066-14.214,0.101-21.162l0.005-0.904
		C1600.836,1286.392,1592.95,1286.313,1584.861,1286.243z"/>
	<path style="fill:#F1896E;" d="M1166.037,783.229h-0.756c-5.462,0.001-11.076,0.003-16.654,0.004
		c-19.48,0.006-39.652,0.013-60.594,0.018c-3.573,0-7.145,0.002-10.762,0.003c-8.478,0.002-17.015,0.003-25.736,0.003
		c-9.245,0-18.323-0.001-27.292-0.003c-2.82-0.001-5.572-0.002-8.366-0.003c-23.282-0.005-45.621-0.013-67.088-0.019
		c-2.698,0-5.476-0.002-8.147-0.002c-6.37,46.503-7.788,121.857-7.936,243.672c1.05-0.002,2.126-0.003,3.181-0.005
		c2.025-0.003,4.065-0.007,6.107-0.01c0.799-0.001,1.588-0.002,2.389-0.003c4.139-0.006,8.32-0.013,12.526-0.019
		c2.238-0.004,4.47-0.007,6.727-0.01c2.269-0.003,4.565-0.006,6.853-0.009c7.914-0.01,15.929-0.02,24.078-0.029
		c0.772-0.001,1.557-0.001,2.331-0.002c5.892-0.006,11.85-0.011,17.865-0.016c4.96-0.004,9.962-0.006,15.008-0.009
		c8.642-0.004,17.377-0.007,26.273-0.007h0h0.007c10.168,0,20.141,0.004,29.978,0.008c0.783,0.001,1.582,0.001,2.363,0.001
		c2.357,0.001,4.615,0.004,6.953,0.005c7.329,0.005,14.647,0.01,21.792,0.017c5.358,0.005,10.552,0.013,15.809,0.018
		c4.599,0.006,9.275,0.011,13.797,0.017c0.676,0.001,1.353,0.002,2.028,0.003l0.919,0.001c5.796,0.009,11.444,0.017,17.113,0.026
		c2.295,0.003,4.653,0.006,6.928,0.01c0.83,0.001,1.7,0.002,2.527,0.004C1175.538,905.229,1173.224,829.81,1166.037,783.229z"/>
	<path style="fill:#FFFFFF;" d="M1138.076,833.391c-0.431-3.016-15.009,0.01-14.458,3.874c6.084,42.626,9.047,85.615,8.87,128.672
		c-0.009,2.47,14.44,0.408,14.457-3.874C1147.123,919.005,1144.158,876.016,1138.076,833.391z"/>
	<path style="fill:#FFFFFF;" d="M1146.422,1250.707c0.402-58.421,0.236-116.845-0.474-175.263
		c-0.088-7.242-14.677-4.825-14.604,1.26c1.258,103.578,0.785,207.176-1.461,310.738c-2.255,103.975-6.281,207.912-12.078,311.75
		c-3.256,58.332-7.078,116.63-11.444,174.889c-0.534,7.127,14.142,4.903,14.604-1.26c7.739-103.296,13.752-206.72,17.994-310.22
		C1143.219,1458.69,1145.707,1354.705,1146.422,1250.707z"/>
</g>
</svg>
