<svg width="14" height="14" viewBox="0 0 14 14" fill="none" xmlns="http://www.w3.org/2000/svg">
<path fill-rule="evenodd" clip-rule="evenodd" d="M7.96967 1.21967C8.60762 0.581746 9.47282 0.223358 10.375 0.223358C11.2772 0.223358 12.1424 0.581746 12.7803 1.21967C13.4183 1.85761 13.7766 2.72283 13.7766 3.62501C13.7766 4.52718 13.4183 5.3924 12.7803 6.03032L9.78287 9.02777C9.46922 9.34712 9.09512 9.60092 8.68247 9.77432C8.26847 9.94832 7.82402 10.0379 7.375 10.0379C6.92597 10.0379 6.48152 9.94832 6.06752 9.77432C5.6536 9.6004 5.27852 9.34562 4.96428 9.02492C4.6744 8.72905 4.67924 8.25415 4.97511 7.96427C5.27098 7.6744 5.74585 7.67927 6.03572 7.97515C6.21032 8.15327 6.41867 8.29487 6.64862 8.39147C6.87857 8.48815 7.12555 8.53787 7.375 8.53787C7.62445 8.53787 7.87142 8.48815 8.10137 8.39147C8.33132 8.29487 8.53967 8.15327 8.71427 7.97515L8.71967 7.96967L11.7197 4.96967C12.0763 4.61305 12.2766 4.12936 12.2766 3.62501C12.2766 3.12066 12.0763 2.63696 11.7197 2.28034C11.363 1.92371 10.8794 1.72336 10.375 1.72336C9.87062 1.72336 9.38695 1.92371 9.03032 2.28034L8.65532 2.65534C8.36245 2.94823 7.88755 2.94823 7.59467 2.65534C7.3018 2.36244 7.3018 1.88757 7.59467 1.59467L7.96967 1.21967Z" fill="black"/>
<path fill-rule="evenodd" clip-rule="evenodd" d="M5.31755 4.22564C5.73153 4.05169 6.17598 3.9621 6.62501 3.9621C7.07403 3.9621 7.51848 4.05169 7.93248 4.22564C8.34641 4.39958 8.72148 4.65437 9.03573 4.97509C9.32561 5.27096 9.32073 5.74578 9.02493 6.03573C8.72906 6.3256 8.25416 6.32073 7.96428 6.02485C7.78968 5.84673 7.58133 5.70513 7.35138 5.60853C7.12143 5.51185 6.87446 5.4621 6.62501 5.4621C6.37556 5.4621 6.12858 5.51185 5.89863 5.60853C5.66868 5.70513 5.4603 5.84673 5.28572 6.02485L5.28036 6.03033L2.28034 9.03033C1.92371 9.38695 1.72336 9.87063 1.72336 10.375C1.72336 10.8793 1.92371 11.3631 2.28034 11.7197C2.63696 12.0763 3.12065 12.2766 3.62501 12.2766C4.12936 12.2766 4.61305 12.0763 4.96967 11.7197L5.34467 11.3447C5.63756 11.0517 6.11246 11.0517 6.40533 11.3447C6.69821 11.6376 6.69821 12.1125 6.40533 12.4053L6.03033 12.7803C5.3924 13.4183 4.52718 13.7766 3.62501 13.7766C2.72283 13.7766 1.85761 13.4183 1.21967 12.7803C0.581746 12.1424 0.223358 11.2772 0.223358 10.375C0.223358 9.47283 0.581746 8.60755 1.21967 7.96968L4.21712 4.97221C4.53079 4.65284 4.90485 4.39905 5.31755 4.22564Z" fill="black"/>
</svg>
