<svg width="14" height="14" viewBox="0 0 14 14" fill="none" xmlns="http://www.w3.org/2000/svg">
<path d="M6.99994 0C3.14018 0 0 3.14018 0 6.99994C0 10.8598 3.14011 14 6.99987 14C10.8597 14 13.9998 10.8598 13.9998 6.99994C13.9999 3.14018 10.8598 0 6.99994 0ZM6.99994 13.0418C3.66856 13.0418 0.958312 10.3314 0.958312 6.99994C0.958248 3.66856 3.66856 0.958248 6.99994 0.958248C10.3313 0.958248 13.0416 3.66856 13.0416 6.99994C13.0416 10.3314 10.3313 13.0418 6.99994 13.0418Z" fill="#696E82"/>
<path d="M10.6117 6.90645H7.28649V3.27392C7.28649 3.00932 7.07204 2.7948 6.80737 2.7948C6.54277 2.7948 6.32825 3.00932 6.32825 3.27392V7.38557C6.32825 7.65018 6.54277 7.8647 6.80737 7.8647H10.6117C10.8763 7.8647 11.0908 7.65018 11.0908 7.38557C11.0908 7.12097 10.8763 6.90645 10.6117 6.90645Z" fill="#696E82"/>
</svg>
